<svg width="50" height="50" viewBox="0 0 50 50" fill="none" xmlns="http://www.w3.org/2000/svg">
<circle cx="25" cy="25" r="25" fill="#BF360C"/>
<path d="M28.872 21.12C28.44 20.288 27.84 19.664 27.072 19.248C26.304 18.816 25.416 18.6 24.408 18.6C23.304 18.6 22.32 18.848 21.456 19.344C20.592 19.84 19.912 20.544 19.416 21.456C18.936 22.368 18.696 23.424 18.696 24.624C18.696 25.824 18.936 26.888 19.416 27.816C19.912 28.728 20.592 29.432 21.456 29.928C22.32 30.424 23.304 30.672 24.408 30.672C25.896 30.672 27.104 30.256 28.032 29.424C28.96 28.592 29.528 27.464 29.736 26.04H23.472V23.856H32.664V25.992C32.488 27.288 32.024 28.48 31.272 29.568C30.536 30.656 29.568 31.528 28.368 32.184C27.184 32.824 25.864 33.144 24.408 33.144C22.84 33.144 21.408 32.784 20.112 32.064C18.816 31.328 17.784 30.312 17.016 29.016C16.264 27.72 15.888 26.256 15.888 24.624C15.888 22.992 16.264 21.528 17.016 20.232C17.784 18.936 18.816 17.928 20.112 17.208C21.424 16.472 22.856 16.104 24.408 16.104C26.184 16.104 27.76 16.544 29.136 17.424C30.528 18.288 31.536 19.52 32.16 21.12H28.872Z" fill="white"/>
</svg>
