<svg width="28" height="28" viewBox="0 0 28 28" fill="none" xmlns="http://www.w3.org/2000/svg">
<path d="M18.6023 8.525C18.6023 13.2331 14.4367 17.05 9.30228 17.05C8.009 17.05 6.77869 16.8078 5.65978 16.3719L1.70728 18.4644C1.25681 18.7017 0.704626 18.6194 0.341345 18.2609C-0.0219366 17.9025 -0.10428 17.3455 0.137907 16.895L1.86228 13.64C0.694938 12.2159 0.00228215 10.4431 0.00228215 8.525C0.00228215 3.81688 4.16791 0 9.30228 0C14.4367 0 18.6023 3.81688 18.6023 8.525ZM18.6023 26.35C14.0443 26.35 10.2517 23.342 9.45728 19.375C15.2698 19.3023 20.3218 15.1658 20.8788 9.55672C24.9137 10.4867 27.9023 13.8338 27.9023 17.825C27.9023 19.7431 27.2096 21.5159 26.0423 22.94L27.7667 26.195C28.004 26.6455 27.9217 27.1977 27.5632 27.5609C27.2048 27.9242 26.6478 28.0066 26.1973 27.7644L22.2448 25.6719C21.1259 26.1078 19.8956 26.35 18.6023 26.35Z" fill="white"/>
</svg>
