<svg width="132" height="36" viewBox="0 0 132 36" fill="none" xmlns="http://www.w3.org/2000/svg">
<path d="M34.672 19.304C34.672 17.912 34.952 16.696 35.512 15.656C36.088 14.616 36.88 13.816 37.888 13.256C38.912 12.696 40.08 12.416 41.392 12.416C43.072 12.416 44.472 12.856 45.592 13.736C46.728 14.616 47.472 15.856 47.824 17.456H43.456C43.088 16.432 42.376 15.92 41.32 15.92C40.568 15.92 39.968 16.216 39.52 16.808C39.072 17.384 38.848 18.216 38.848 19.304C38.848 20.392 39.072 21.232 39.52 21.824C39.968 22.4 40.568 22.688 41.32 22.688C42.376 22.688 43.088 22.176 43.456 21.152H47.824C47.472 22.72 46.728 23.952 45.592 24.848C44.456 25.744 43.056 26.192 41.392 26.192C40.08 26.192 38.912 25.912 37.888 25.352C36.88 24.792 36.088 23.992 35.512 22.952C34.952 21.912 34.672 20.696 34.672 19.304ZM56.1153 26.192C54.8033 26.192 53.6193 25.912 52.5633 25.352C51.5233 24.792 50.6993 23.992 50.0913 22.952C49.4993 21.912 49.2033 20.696 49.2033 19.304C49.2033 17.928 49.5073 16.72 50.1152 15.68C50.7233 14.624 51.5553 13.816 52.6113 13.256C53.6673 12.696 54.8513 12.416 56.1633 12.416C57.4753 12.416 58.6593 12.696 59.7153 13.256C60.7713 13.816 61.6033 14.624 62.2113 15.68C62.8193 16.72 63.1233 17.928 63.1233 19.304C63.1233 20.68 62.8113 21.896 62.1873 22.952C61.5793 23.992 60.7393 24.792 59.6673 25.352C58.6113 25.912 57.4273 26.192 56.1153 26.192ZM56.1153 22.64C56.8993 22.64 57.5633 22.352 58.1073 21.776C58.6673 21.2 58.9473 20.376 58.9473 19.304C58.9473 18.232 58.6753 17.408 58.1313 16.832C57.6033 16.256 56.9473 15.968 56.1633 15.968C55.3633 15.968 54.6993 16.256 54.1713 16.832C53.6433 17.392 53.3793 18.216 53.3793 19.304C53.3793 20.376 53.6353 21.2 54.1473 21.776C54.6753 22.352 55.3313 22.64 56.1153 22.64ZM73.4605 12.464C75.0285 12.464 76.2765 12.976 77.2045 14C78.1485 15.008 78.6205 16.4 78.6205 18.176V26H74.5405V18.728C74.5405 17.832 74.3085 17.136 73.8445 16.64C73.3805 16.144 72.7565 15.896 71.9725 15.896C71.1885 15.896 70.5645 16.144 70.1005 16.64C69.6365 17.136 69.4045 17.832 69.4045 18.728V26H65.3005V12.608H69.4045V14.384C69.8205 13.792 70.3805 13.328 71.0845 12.992C71.7885 12.64 72.5805 12.464 73.4605 12.464ZM88.9364 22.52V26H86.8484C85.3604 26 84.2004 25.64 83.3684 24.92C82.5364 24.184 82.1204 22.992 82.1204 21.344V16.016H80.4884V12.608H82.1204V9.344H86.2244V12.608H88.9124V16.016H86.2244V21.392C86.2244 21.792 86.3204 22.08 86.5124 22.256C86.7044 22.432 87.0244 22.52 87.4724 22.52H88.9364ZM90.4064 19.28C90.4064 17.904 90.6624 16.696 91.1744 15.656C91.7024 14.616 92.4144 13.816 93.3104 13.256C94.2064 12.696 95.2064 12.416 96.3104 12.416C97.2544 12.416 98.0784 12.608 98.7824 12.992C99.5024 13.376 100.054 13.88 100.438 14.504V12.608H104.542V26H100.438V24.104C100.038 24.728 99.4784 25.232 98.7584 25.616C98.0544 26 97.2304 26.192 96.2864 26.192C95.1984 26.192 94.2064 25.912 93.3104 25.352C92.4144 24.776 91.7024 23.968 91.1744 22.928C90.6624 21.872 90.4064 20.656 90.4064 19.28ZM100.438 19.304C100.438 18.28 100.15 17.472 99.5744 16.88C99.0144 16.288 98.3264 15.992 97.5104 15.992C96.6944 15.992 95.9984 16.288 95.4224 16.88C94.8624 17.456 94.5824 18.256 94.5824 19.28C94.5824 20.304 94.8624 21.12 95.4224 21.728C95.9984 22.32 96.6944 22.616 97.5104 22.616C98.3264 22.616 99.0144 22.32 99.5744 21.728C100.15 21.136 100.438 20.328 100.438 19.304ZM114.975 22.52V26H112.887C111.399 26 110.239 25.64 109.407 24.92C108.575 24.184 108.159 22.992 108.159 21.344V16.016H106.527V12.608H108.159V9.344H112.263V12.608H114.951V16.016H112.263V21.392C112.263 21.792 112.359 22.08 112.551 22.256C112.743 22.432 113.063 22.52 113.511 22.52H114.975ZM123.357 26.192C122.045 26.192 120.861 25.912 119.805 25.352C118.765 24.792 117.941 23.992 117.333 22.952C116.741 21.912 116.445 20.696 116.445 19.304C116.445 17.928 116.749 16.72 117.357 15.68C117.965 14.624 118.797 13.816 119.853 13.256C120.909 12.696 122.093 12.416 123.405 12.416C124.717 12.416 125.901 12.696 126.957 13.256C128.013 13.816 128.845 14.624 129.453 15.68C130.061 16.72 130.365 17.928 130.365 19.304C130.365 20.68 130.053 21.896 129.429 22.952C128.821 23.992 127.981 24.792 126.909 25.352C125.853 25.912 124.669 26.192 123.357 26.192ZM123.357 22.64C124.141 22.64 124.805 22.352 125.349 21.776C125.909 21.2 126.189 20.376 126.189 19.304C126.189 18.232 125.917 17.408 125.373 16.832C124.845 16.256 124.189 15.968 123.405 15.968C122.605 15.968 121.941 16.256 121.413 16.832C120.885 17.392 120.621 18.216 120.621 19.304C120.621 20.376 120.877 21.2 121.389 21.776C121.917 22.352 122.573 22.64 123.357 22.64Z" fill="white"/>
<path d="M3.33333 7C1.49479 7 0 8.34531 0 10V28C0 29.6547 1.49479 31 3.33333 31H18.3333C20.1719 31 21.6667 29.6547 21.6667 28V10C21.6667 8.34531 20.1719 7 18.3333 7H3.33333ZM9.16667 20.5H12.5C14.8021 20.5 16.6667 22.1781 16.6667 24.25C16.6667 24.6625 16.2917 25 15.8333 25H5.83333C5.375 25 5 24.6625 5 24.25C5 22.1781 6.86458 20.5 9.16667 20.5ZM7.91667 16C7.91667 14.5516 9.22396 13.375 10.8333 13.375C12.4427 13.375 13.75 14.5516 13.75 16C13.75 17.4484 12.4427 18.625 10.8333 18.625C9.22396 18.625 7.91667 17.4484 7.91667 16ZM25 10.75C25 10.3375 24.625 10 24.1667 10C23.7083 10 23.3333 10.3375 23.3333 10.75V13.75C23.3333 14.1625 23.7083 14.5 24.1667 14.5C24.625 14.5 25 14.1625 25 13.75V10.75ZM25 16.75C25 16.3375 24.625 16 24.1667 16C23.7083 16 23.3333 16.3375 23.3333 16.75V19.75C23.3333 20.1625 23.7083 20.5 24.1667 20.5C24.625 20.5 25 20.1625 25 19.75V16.75ZM24.1667 22C23.7083 22 23.3333 22.3375 23.3333 22.75V25.75C23.3333 26.1625 23.7083 26.5 24.1667 26.5C24.625 26.5 25 26.1625 25 25.75V22.75C25 22.3375 24.625 22 24.1667 22Z" fill="white"/>
</svg>
