<svg width="109" height="30" viewBox="0 0 109 30" fill="none" xmlns="http://www.w3.org/2000/svg">
<path d="M28.56 16.42C28.56 15.26 28.7933 14.2467 29.26 13.38C29.74 12.5133 30.4 11.8467 31.24 11.38C32.0933 10.9133 33.0667 10.68 34.16 10.68C35.56 10.68 36.7267 11.0467 37.66 11.78C38.6067 12.5133 39.2267 13.5467 39.52 14.88H35.88C35.5733 14.0267 34.98 13.6 34.1 13.6C33.4733 13.6 32.9733 13.8467 32.6 14.34C32.2267 14.82 32.04 15.5133 32.04 16.42C32.04 17.3267 32.2267 18.0267 32.6 18.52C32.9733 19 33.4733 19.24 34.1 19.24C34.98 19.24 35.5733 18.8133 35.88 17.96H39.52C39.2267 19.2667 38.6067 20.2933 37.66 21.04C36.7133 21.7867 35.5467 22.16 34.16 22.16C33.0667 22.16 32.0933 21.9267 31.24 21.46C30.4 20.9933 29.74 20.3267 29.26 19.46C28.7933 18.5933 28.56 17.58 28.56 16.42ZM46.4294 22.16C45.336 22.16 44.3494 21.9267 43.4694 21.46C42.6027 20.9933 41.916 20.3267 41.4094 19.46C40.916 18.5933 40.6694 17.58 40.6694 16.42C40.6694 15.2733 40.9227 14.2667 41.4294 13.4C41.936 12.52 42.6294 11.8467 43.5094 11.38C44.3894 10.9133 45.376 10.68 46.4694 10.68C47.5627 10.68 48.5494 10.9133 49.4294 11.38C50.3094 11.8467 51.0027 12.52 51.5094 13.4C52.016 14.2667 52.2694 15.2733 52.2694 16.42C52.2694 17.5667 52.0094 18.58 51.4894 19.46C50.9827 20.3267 50.2827 20.9933 49.3894 21.46C48.5094 21.9267 47.5227 22.16 46.4294 22.16ZM46.4294 19.2C47.0827 19.2 47.636 18.96 48.0894 18.48C48.556 18 48.7894 17.3133 48.7894 16.42C48.7894 15.5267 48.5627 14.84 48.1094 14.36C47.6694 13.88 47.1227 13.64 46.4694 13.64C45.8027 13.64 45.2494 13.88 44.8094 14.36C44.3694 14.8267 44.1494 15.5133 44.1494 16.42C44.1494 17.3133 44.3627 18 44.7894 18.48C45.2294 18.96 45.776 19.2 46.4294 19.2ZM60.8838 10.72C62.1904 10.72 63.2304 11.1467 64.0038 12C64.7904 12.84 65.1838 14 65.1838 15.48V22H61.7838V15.94C61.7838 15.1933 61.5904 14.6133 61.2038 14.2C60.8171 13.7867 60.2971 13.58 59.6438 13.58C58.9904 13.58 58.4704 13.7867 58.0838 14.2C57.6971 14.6133 57.5038 15.1933 57.5038 15.94V22H54.0838V10.84H57.5038V12.32C57.8504 11.8267 58.3171 11.44 58.9038 11.16C59.4904 10.8667 60.1504 10.72 60.8838 10.72ZM73.7803 19.1V22H72.0403C70.8003 22 69.8336 21.7 69.1403 21.1C68.447 20.4867 68.1003 19.4933 68.1003 18.12V13.68H66.7403V10.84H68.1003V8.12H71.5203V10.84H73.7603V13.68H71.5203V18.16C71.5203 18.4933 71.6003 18.7333 71.7603 18.88C71.9203 19.0267 72.187 19.1 72.5603 19.1H73.7803ZM75.0053 16.4C75.0053 15.2533 75.2186 14.2467 75.6453 13.38C76.0853 12.5133 76.6786 11.8467 77.4253 11.38C78.172 10.9133 79.0053 10.68 79.9253 10.68C80.712 10.68 81.3986 10.84 81.9853 11.16C82.5853 11.48 83.0453 11.9 83.3653 12.42V10.84H86.7853V22H83.3653V20.42C83.032 20.94 82.5653 21.36 81.9653 21.68C81.3786 22 80.692 22.16 79.9053 22.16C78.9986 22.16 78.172 21.9267 77.4253 21.46C76.6786 20.98 76.0853 20.3067 75.6453 19.44C75.2186 18.56 75.0053 17.5467 75.0053 16.4ZM83.3653 16.42C83.3653 15.5667 83.1253 14.8933 82.6453 14.4C82.1786 13.9067 81.6053 13.66 80.9253 13.66C80.2453 13.66 79.6653 13.9067 79.1853 14.4C78.7186 14.88 78.4853 15.5467 78.4853 16.4C78.4853 17.2533 78.7186 17.9333 79.1853 18.44C79.6653 18.9333 80.2453 19.18 80.9253 19.18C81.6053 19.18 82.1786 18.9333 82.6453 18.44C83.1253 17.9467 83.3653 17.2733 83.3653 16.42ZM95.4795 19.1V22H93.7395C92.4995 22 91.5329 21.7 90.8395 21.1C90.1462 20.4867 89.7995 19.4933 89.7995 18.12V13.68H88.4395V10.84H89.7995V8.12H93.2195V10.84H95.4595V13.68H93.2195V18.16C93.2195 18.4933 93.2995 18.7333 93.4595 18.88C93.6195 19.0267 93.8862 19.1 94.2595 19.1H95.4795ZM102.465 22.16C101.371 22.16 100.385 21.9267 99.5045 21.46C98.6379 20.9933 97.9512 20.3267 97.4445 19.46C96.9512 18.5933 96.7045 17.58 96.7045 16.42C96.7045 15.2733 96.9579 14.2667 97.4645 13.4C97.9712 12.52 98.6645 11.8467 99.5445 11.38C100.425 10.9133 101.411 10.68 102.505 10.68C103.598 10.68 104.585 10.9133 105.465 11.38C106.345 11.8467 107.038 12.52 107.545 13.4C108.051 14.2667 108.305 15.2733 108.305 16.42C108.305 17.5667 108.045 18.58 107.525 19.46C107.018 20.3267 106.318 20.9933 105.425 21.46C104.545 21.9267 103.558 22.16 102.465 22.16ZM102.465 19.2C103.118 19.2 103.671 18.96 104.125 18.48C104.591 18 104.825 17.3133 104.825 16.42C104.825 15.5267 104.598 14.84 104.145 14.36C103.705 13.88 103.158 13.64 102.505 13.64C101.838 13.64 101.285 13.88 100.845 14.36C100.405 14.8267 100.185 15.5133 100.185 16.42C100.185 17.3133 100.398 18 100.825 18.48C101.265 18.96 101.811 19.2 102.465 19.2Z" fill="white"/>
<path d="M2.53333 7C1.13604 7 0 8.00898 0 9.25V22.75C0 23.991 1.13604 25 2.53333 25H13.9333C15.3306 25 16.4667 23.991 16.4667 22.75V9.25C16.4667 8.00898 15.3306 7 13.9333 7H2.53333ZM6.96667 17.125H9.5C11.2496 17.125 12.6667 18.3836 12.6667 19.9375C12.6667 20.2469 12.3817 20.5 12.0333 20.5H4.43333C4.085 20.5 3.8 20.2469 3.8 19.9375C3.8 18.3836 5.21708 17.125 6.96667 17.125ZM6.01667 13.75C6.01667 12.6637 7.01021 11.7812 8.23333 11.7812C9.45646 11.7812 10.45 12.6637 10.45 13.75C10.45 14.8363 9.45646 15.7188 8.23333 15.7188C7.01021 15.7188 6.01667 14.8363 6.01667 13.75ZM19 9.8125C19 9.50312 18.715 9.25 18.3667 9.25C18.0183 9.25 17.7333 9.50312 17.7333 9.8125V12.0625C17.7333 12.3719 18.0183 12.625 18.3667 12.625C18.715 12.625 19 12.3719 19 12.0625V9.8125ZM19 14.3125C19 14.0031 18.715 13.75 18.3667 13.75C18.0183 13.75 17.7333 14.0031 17.7333 14.3125V16.5625C17.7333 16.8719 18.0183 17.125 18.3667 17.125C18.715 17.125 19 16.8719 19 16.5625V14.3125ZM18.3667 18.25C18.0183 18.25 17.7333 18.5031 17.7333 18.8125V21.0625C17.7333 21.3719 18.0183 21.625 18.3667 21.625C18.715 21.625 19 21.3719 19 21.0625V18.8125C19 18.5031 18.715 18.25 18.3667 18.25Z" fill="white"/>
</svg>
