<svg width="111" height="30" viewBox="0 0 111 30" fill="none" xmlns="http://www.w3.org/2000/svg">
<path d="M35.04 10.72C36.3467 10.72 37.3867 11.1467 38.16 12C38.9467 12.84 39.34 14 39.34 15.48V22H35.94V15.94C35.94 15.1933 35.7467 14.6133 35.36 14.2C34.9733 13.7867 34.4533 13.58 33.8 13.58C33.1467 13.58 32.6267 13.7867 32.24 14.2C31.8533 14.6133 31.66 15.1933 31.66 15.94V22H28.24V10.84H31.66V12.32C32.0067 11.8267 32.4733 11.44 33.06 11.16C33.6467 10.8667 34.3067 10.72 35.04 10.72ZM46.7966 22.16C45.7032 22.16 44.7166 21.9267 43.8366 21.46C42.9699 20.9933 42.2832 20.3267 41.7766 19.46C41.2832 18.5933 41.0366 17.58 41.0366 16.42C41.0366 15.2733 41.2899 14.2667 41.7966 13.4C42.3032 12.52 42.9966 11.8467 43.8766 11.38C44.7566 10.9133 45.7432 10.68 46.8366 10.68C47.9299 10.68 48.9166 10.9133 49.7966 11.38C50.6766 11.8467 51.3699 12.52 51.8766 13.4C52.3832 14.2667 52.6366 15.2733 52.6366 16.42C52.6366 17.5667 52.3766 18.58 51.8566 19.46C51.3499 20.3267 50.6499 20.9933 49.7566 21.46C48.8766 21.9267 47.8899 22.16 46.7966 22.16ZM46.7966 19.2C47.4499 19.2 48.0032 18.96 48.4566 18.48C48.9232 18 49.1566 17.3133 49.1566 16.42C49.1566 15.5267 48.9299 14.84 48.4766 14.36C48.0366 13.88 47.4899 13.64 46.8366 13.64C46.1699 13.64 45.6166 13.88 45.1766 14.36C44.7366 14.8267 44.5166 15.5133 44.5166 16.42C44.5166 17.3133 44.7299 18 45.1566 18.48C45.5966 18.96 46.1432 19.2 46.7966 19.2ZM60.6709 19.1V22H58.9309C57.6909 22 56.7243 21.7 56.0309 21.1C55.3376 20.4867 54.9909 19.4933 54.9909 18.12V13.68H53.6309V10.84H54.9909V8.12H58.4109V10.84H60.6509V13.68H58.4109V18.16C58.4109 18.4933 58.4909 18.7333 58.6509 18.88C58.8109 19.0267 59.0776 19.1 59.4509 19.1H60.6709ZM66.2559 10.84V22H62.8359V10.84H66.2559ZM66.8759 8.06L62.0559 10.08V7.72L66.8759 5.4V8.06ZM68.3217 16.42C68.3217 15.26 68.5551 14.2467 69.0217 13.38C69.5017 12.5133 70.1617 11.8467 71.0017 11.38C71.8551 10.9133 72.8284 10.68 73.9217 10.68C75.3217 10.68 76.4884 11.0467 77.4217 11.78C78.3684 12.5133 78.9884 13.5467 79.2817 14.88H75.6417C75.3351 14.0267 74.7417 13.6 73.8617 13.6C73.2351 13.6 72.7351 13.8467 72.3617 14.34C71.9884 14.82 71.8017 15.5133 71.8017 16.42C71.8017 17.3267 71.9884 18.0267 72.3617 18.52C72.7351 19 73.2351 19.24 73.8617 19.24C74.7417 19.24 75.3351 18.8133 75.6417 17.96H79.2817C78.9884 19.2667 78.3684 20.2933 77.4217 21.04C76.4751 21.7867 75.3084 22.16 73.9217 22.16C72.8284 22.16 71.8551 21.9267 71.0017 21.46C70.1617 20.9933 69.5017 20.3267 69.0217 19.46C68.5551 18.5933 68.3217 17.58 68.3217 16.42ZM82.8311 9.68C82.2311 9.68 81.7378 9.50667 81.3511 9.16C80.9778 8.8 80.7911 8.36 80.7911 7.84C80.7911 7.30667 80.9778 6.86667 81.3511 6.52C81.7378 6.16 82.2311 5.98 82.8311 5.98C83.4178 5.98 83.8978 6.16 84.2711 6.52C84.6578 6.86667 84.8511 7.30667 84.8511 7.84C84.8511 8.36 84.6578 8.8 84.2711 9.16C83.8978 9.50667 83.4178 9.68 82.8311 9.68ZM84.5311 10.84V22H81.1111V10.84H84.5311ZM86.3295 16.4C86.3295 15.2533 86.5429 14.2467 86.9695 13.38C87.4095 12.5133 88.0029 11.8467 88.7495 11.38C89.4962 10.9133 90.3295 10.68 91.2495 10.68C92.0362 10.68 92.7229 10.84 93.3095 11.16C93.9095 11.48 94.3695 11.9 94.6895 12.42V10.84H98.1095V22H94.6895V20.42C94.3562 20.94 93.8895 21.36 93.2895 21.68C92.7029 22 92.0162 22.16 91.2295 22.16C90.3229 22.16 89.4962 21.9267 88.7495 21.46C88.0029 20.98 87.4095 20.3067 86.9695 19.44C86.5429 18.56 86.3295 17.5467 86.3295 16.4ZM94.6895 16.42C94.6895 15.5667 94.4495 14.8933 93.9695 14.4C93.5029 13.9067 92.9295 13.66 92.2495 13.66C91.5695 13.66 90.9895 13.9067 90.5095 14.4C90.0429 14.88 89.8095 15.5467 89.8095 16.4C89.8095 17.2533 90.0429 17.9333 90.5095 18.44C90.9895 18.9333 91.5695 19.18 92.2495 19.18C92.9295 19.18 93.5029 18.9333 93.9695 18.44C94.4495 17.9467 94.6895 17.2733 94.6895 16.42ZM105.124 22.16C104.15 22.16 103.284 21.9933 102.524 21.66C101.764 21.3267 101.164 20.8733 100.724 20.3C100.284 19.7133 100.037 19.06 99.9838 18.34H103.364C103.404 18.7267 103.584 19.04 103.904 19.28C104.224 19.52 104.617 19.64 105.084 19.64C105.51 19.64 105.837 19.56 106.064 19.4C106.304 19.2267 106.424 19.0067 106.424 18.74C106.424 18.42 106.257 18.1867 105.924 18.04C105.59 17.88 105.05 17.7067 104.304 17.52C103.504 17.3333 102.837 17.14 102.304 16.94C101.77 16.7267 101.31 16.4 100.924 15.96C100.537 15.5067 100.344 14.9 100.344 14.14C100.344 13.5 100.517 12.92 100.864 12.4C101.224 11.8667 101.744 11.4467 102.424 11.14C103.117 10.8333 103.937 10.68 104.884 10.68C106.284 10.68 107.384 11.0267 108.184 11.72C108.997 12.4133 109.464 13.3333 109.584 14.48H106.424C106.37 14.0933 106.197 13.7867 105.904 13.56C105.624 13.3333 105.25 13.22 104.784 13.22C104.384 13.22 104.077 13.3 103.864 13.46C103.65 13.6067 103.544 13.8133 103.544 14.08C103.544 14.4 103.71 14.64 104.044 14.8C104.39 14.96 104.924 15.12 105.644 15.28C106.47 15.4933 107.144 15.7067 107.664 15.92C108.184 16.12 108.637 16.4533 109.024 16.92C109.424 17.3733 109.63 17.9867 109.644 18.76C109.644 19.4133 109.457 20 109.084 20.52C108.724 21.0267 108.197 21.4267 107.504 21.72C106.824 22.0133 106.03 22.16 105.124 22.16Z" fill="white"/>
<path d="M9.76478 6.30062C9.33228 5.89979 8.6642 5.89979 8.23522 6.30062L0.358842 13.6138C0.0212827 13.9303 -0.0912369 14.419 0.0775426 14.8479C0.246322 15.2769 0.657722 15.5617 1.12187 15.5617H1.68446V21.7498C1.68446 22.9909 2.69362 24 3.93486 24H14.0616C15.3029 24 16.312 22.9909 16.312 21.7498V15.5617H16.8746C17.3388 15.5617 17.7537 15.2769 17.9225 14.8479C18.0912 14.419 17.9787 13.9268 17.6412 13.6138L9.76478 6.30062ZM8.43564 17.2493H9.56084C10.4926 17.2493 11.2486 18.0053 11.2486 18.937V22.3123H6.74785V18.937C6.74785 18.0053 7.50384 17.2493 8.43564 17.2493Z" fill="white"/>
</svg>
