<svg width="134" height="36" viewBox="0 0 134 36" fill="none" xmlns="http://www.w3.org/2000/svg">
<path d="M42.648 12.464C44.216 12.464 45.464 12.976 46.392 14C47.336 15.008 47.808 16.4 47.808 18.176V26H43.728V18.728C43.728 17.832 43.496 17.136 43.032 16.64C42.568 16.144 41.944 15.896 41.16 15.896C40.376 15.896 39.752 16.144 39.288 16.64C38.824 17.136 38.592 17.832 38.592 18.728V26H34.488V12.608H38.592V14.384C39.008 13.792 39.568 13.328 40.272 12.992C40.976 12.64 41.768 12.464 42.648 12.464ZM56.7559 26.192C55.4439 26.192 54.2599 25.912 53.2039 25.352C52.1639 24.792 51.3399 23.992 50.7319 22.952C50.1399 21.912 49.8439 20.696 49.8439 19.304C49.8439 17.928 50.1479 16.72 50.7559 15.68C51.3639 14.624 52.1959 13.816 53.2519 13.256C54.3079 12.696 55.4919 12.416 56.8039 12.416C58.1159 12.416 59.2999 12.696 60.3559 13.256C61.4119 13.816 62.2439 14.624 62.8519 15.68C63.4599 16.72 63.7639 17.928 63.7639 19.304C63.7639 20.68 63.4519 21.896 62.8279 22.952C62.2199 23.992 61.3799 24.792 60.3079 25.352C59.2519 25.912 58.0679 26.192 56.7559 26.192ZM56.7559 22.64C57.5399 22.64 58.2039 22.352 58.7479 21.776C59.3079 21.2 59.5879 20.376 59.5879 19.304C59.5879 18.232 59.3159 17.408 58.7719 16.832C58.2439 16.256 57.5879 15.968 56.8039 15.968C56.0039 15.968 55.3399 16.256 54.8119 16.832C54.2839 17.392 54.0199 18.216 54.0199 19.304C54.0199 20.376 54.2759 21.2 54.7879 21.776C55.3159 22.352 55.9719 22.64 56.7559 22.64ZM73.4051 22.52V26H71.3171C69.8291 26 68.6691 25.64 67.8371 24.92C67.0051 24.184 66.5891 22.992 66.5891 21.344V16.016H64.9571V12.608H66.5891V9.344H70.6931V12.608H73.3811V16.016H70.6931V21.392C70.6931 21.792 70.7891 22.08 70.9811 22.256C71.1731 22.432 71.4931 22.52 71.9411 22.52H73.4051ZM80.1071 12.608V26H76.0031V12.608H80.1071ZM80.8511 9.272L75.0671 11.696V8.864L80.8511 6.08V9.272ZM82.5861 19.304C82.5861 17.912 82.8661 16.696 83.4261 15.656C84.0021 14.616 84.7941 13.816 85.8021 13.256C86.8261 12.696 87.9941 12.416 89.3061 12.416C90.9861 12.416 92.3861 12.856 93.5061 13.736C94.6421 14.616 95.3861 15.856 95.7381 17.456H91.3701C91.0021 16.432 90.2901 15.92 89.2341 15.92C88.4821 15.92 87.8821 16.216 87.4341 16.808C86.9861 17.384 86.7621 18.216 86.7621 19.304C86.7621 20.392 86.9861 21.232 87.4341 21.824C87.8821 22.4 88.4821 22.688 89.2341 22.688C90.2901 22.688 91.0021 22.176 91.3701 21.152H95.7381C95.3861 22.72 94.6421 23.952 93.5061 24.848C92.3701 25.744 90.9701 26.192 89.3061 26.192C87.9941 26.192 86.8261 25.912 85.8021 25.352C84.7941 24.792 84.0021 23.992 83.4261 22.952C82.8661 21.912 82.5861 20.696 82.5861 19.304ZM99.9973 11.216C99.2773 11.216 98.6853 11.008 98.2213 10.592C97.7733 10.16 97.5493 9.632 97.5493 9.008C97.5493 8.368 97.7733 7.84 98.2213 7.424C98.6853 6.992 99.2773 6.776 99.9973 6.776C100.701 6.776 101.277 6.992 101.725 7.424C102.189 7.84 102.421 8.368 102.421 9.008C102.421 9.632 102.189 10.16 101.725 10.592C101.277 11.008 100.701 11.216 99.9973 11.216ZM102.037 12.608V26H97.9333V12.608H102.037ZM104.195 19.28C104.195 17.904 104.451 16.696 104.963 15.656C105.491 14.616 106.203 13.816 107.099 13.256C107.995 12.696 108.995 12.416 110.099 12.416C111.043 12.416 111.867 12.608 112.571 12.992C113.291 13.376 113.843 13.88 114.227 14.504V12.608H118.331V26H114.227V24.104C113.827 24.728 113.267 25.232 112.547 25.616C111.843 26 111.019 26.192 110.075 26.192C108.987 26.192 107.995 25.912 107.099 25.352C106.203 24.776 105.491 23.968 104.963 22.928C104.451 21.872 104.195 20.656 104.195 19.28ZM114.227 19.304C114.227 18.28 113.939 17.472 113.363 16.88C112.803 16.288 112.115 15.992 111.299 15.992C110.483 15.992 109.787 16.288 109.211 16.88C108.651 17.456 108.371 18.256 108.371 19.28C108.371 20.304 108.651 21.12 109.211 21.728C109.787 22.32 110.483 22.616 111.299 22.616C112.115 22.616 112.803 22.32 113.363 21.728C113.939 21.136 114.227 20.328 114.227 19.304ZM126.749 26.192C125.581 26.192 124.541 25.992 123.629 25.592C122.717 25.192 121.997 24.648 121.469 23.96C120.941 23.256 120.645 22.472 120.581 21.608H124.637C124.685 22.072 124.901 22.448 125.285 22.736C125.669 23.024 126.141 23.168 126.701 23.168C127.213 23.168 127.605 23.072 127.877 22.88C128.165 22.672 128.309 22.408 128.309 22.088C128.309 21.704 128.109 21.424 127.709 21.248C127.309 21.056 126.661 20.848 125.765 20.624C124.805 20.4 124.005 20.168 123.365 19.928C122.725 19.672 122.173 19.28 121.709 18.752C121.245 18.208 121.013 17.48 121.013 16.568C121.013 15.8 121.221 15.104 121.637 14.48C122.069 13.84 122.693 13.336 123.509 12.968C124.341 12.6 125.325 12.416 126.461 12.416C128.141 12.416 129.461 12.832 130.421 13.664C131.397 14.496 131.957 15.6 132.101 16.976H128.309C128.245 16.512 128.037 16.144 127.685 15.872C127.349 15.6 126.901 15.464 126.341 15.464C125.861 15.464 125.493 15.56 125.237 15.752C124.981 15.928 124.853 16.176 124.853 16.496C124.853 16.88 125.053 17.168 125.453 17.36C125.869 17.552 126.509 17.744 127.373 17.936C128.365 18.192 129.173 18.448 129.797 18.704C130.421 18.944 130.965 19.344 131.429 19.904C131.909 20.448 132.157 21.184 132.173 22.112C132.173 22.896 131.949 23.6 131.501 24.224C131.069 24.832 130.437 25.312 129.605 25.664C128.789 26.016 127.837 26.192 126.749 26.192Z" fill="white"/>
<path d="M13.0197 6.40082C12.443 5.86639 11.5523 5.86639 10.9803 6.40082L0.478456 16.1518C0.028377 16.5737 -0.121649 17.2253 0.10339 17.7972C0.328429 18.3692 0.876963 18.7489 1.49582 18.7489H2.24595V26.9997C2.24595 28.6546 3.5915 30 5.24648 30H18.7488C20.4038 30 21.7494 28.6546 21.7494 26.9997V18.7489H22.4995C23.1183 18.7489 23.6716 18.3692 23.8966 17.7972C24.1216 17.2253 23.9716 16.569 23.5215 16.1518L13.0197 6.40082ZM11.2475 20.9991H12.7478C13.9902 20.9991 14.9982 22.007 14.9982 23.2493V27.7498H8.99713V23.2493C8.99713 22.007 10.0051 20.9991 11.2475 20.9991Z" fill="white"/>
</svg>
