<svg width="85" height="61" viewBox="0 0 85 61" fill="none" xmlns="http://www.w3.org/2000/svg">
<path d="M40.8837 13.7583C39.6281 14.5469 38.9008 15.9633 38.9773 17.4409C39.0616 18.9262 39.9497 20.2431 41.2819 20.8939C42.6217 21.537 44.2066 21.3992 45.4163 20.5417C46.6719 19.7531 47.3992 18.3367 47.3227 16.8591C47.2384 15.3738 46.3503 14.0569 45.0181 13.4061C43.6783 12.763 42.0934 12.9008 40.8837 13.7583ZM51.7786 8.52141C51.3805 8.12328 50.8981 7.80938 50.3698 7.60266C48.9841 7.05906 45.9598 7.08203 44.0075 7.105C43.6936 7.105 43.4027 7.11266 43.15 7.11266C42.8973 7.11266 42.5988 7.11266 42.2772 7.105C40.3248 7.08203 37.3159 7.05141 35.9302 7.60266C35.4019 7.80938 34.9272 8.12328 34.5214 8.52141C34.1156 8.91953 33.8094 9.40187 33.6027 9.93016C33.0591 11.3159 33.0897 14.3478 33.105 16.3002C33.105 16.6141 33.1127 16.905 33.1127 17.15C33.1127 17.395 33.1127 17.6859 33.105 17.9998C33.0897 19.9522 33.0591 22.9841 33.6027 24.3698C33.8094 24.8981 34.1233 25.3728 34.5214 25.7786C34.9195 26.1844 35.4019 26.4906 35.9302 26.6973C37.3159 27.2409 40.3402 27.218 42.2925 27.195C42.6064 27.195 42.8973 27.1873 43.15 27.1873C43.4027 27.1873 43.7013 27.1873 44.0228 27.195C45.9752 27.218 48.9841 27.2486 50.3698 26.6973C50.8981 26.4906 51.3728 26.1767 51.7786 25.7786C52.1844 25.3805 52.4906 24.8981 52.6973 24.3698C53.2486 22.9917 53.218 19.9752 53.195 18.0152C53.195 17.6936 53.1873 17.395 53.1873 17.1423C53.1873 16.8897 53.1873 16.5988 53.195 16.2695C53.218 14.3172 53.2486 11.3006 52.6973 9.91484C52.4906 9.38656 52.1767 8.91188 51.7786 8.50609V8.52141ZM46.6413 11.9284C48.027 12.8548 48.9841 14.2942 49.3133 15.925C49.6425 17.5558 49.298 19.2555 48.3716 20.6413C47.9122 21.3303 47.3227 21.9122 46.6413 22.3716C45.9598 22.8309 45.1866 23.1448 44.375 23.3056C42.7442 23.6272 41.0445 23.2903 39.6587 22.3639C38.273 21.4375 37.3159 19.9981 36.9867 18.3673C36.6575 16.7366 37.002 15.0369 37.9208 13.6511C38.8395 12.2653 40.2866 11.3083 41.9173 10.9791C43.5481 10.6498 45.2478 10.9944 46.6336 11.9131H46.6413V11.9284ZM48.8769 11.8289C48.6395 11.6681 48.4481 11.4384 48.3333 11.1705C48.2184 10.9025 48.1955 10.6116 48.2491 10.3206C48.3027 10.0297 48.4481 9.77703 48.6472 9.57031C48.8462 9.36359 49.1142 9.22578 49.3975 9.17219C49.6808 9.11859 49.9794 9.14156 50.2473 9.25641C50.5153 9.37125 50.745 9.555 50.9058 9.79234C51.0666 10.0297 51.1508 10.313 51.1508 10.6039C51.1508 10.7953 51.1125 10.9867 51.0436 11.1628C50.9747 11.3389 50.8598 11.4997 50.7297 11.6375C50.5995 11.7753 50.4311 11.8825 50.255 11.9591C50.0789 12.0356 49.8875 12.0739 49.6961 12.0739C49.4052 12.0739 49.1219 11.9897 48.8845 11.8289H48.8769ZM60.3 4.9C60.3 2.19734 58.1027 0 55.4 0H30.9C28.1973 0 26 2.19734 26 4.9V29.4C26 32.1027 28.1973 34.3 30.9 34.3H55.4C58.1027 34.3 60.3 32.1027 60.3 29.4V4.9ZM53.3328 27.3328C51.9011 28.7645 50.1631 29.2162 48.2031 29.3158C46.1819 29.4306 40.1181 29.4306 38.0969 29.3158C36.1369 29.2162 34.3989 28.7645 32.9672 27.3328C31.5355 25.9011 31.0837 24.1631 30.9919 22.2031C30.877 20.1819 30.877 14.1181 30.9919 12.0969C31.0914 10.1369 31.5355 8.39891 32.9672 6.96719C34.3989 5.53547 36.1445 5.08375 38.0969 4.99187C40.1181 4.87703 46.1819 4.87703 48.2031 4.99187C50.1631 5.09141 51.9011 5.53547 53.3328 6.96719C54.7645 8.39891 55.2162 10.1369 55.3081 12.0969C55.423 14.1105 55.423 20.1666 55.3081 22.1955C55.2086 24.1555 54.7645 25.8934 53.3328 27.3252V27.3328Z" fill="white"/>
<path d="M2.128 45.016C1.79733 45.016 1.52 44.904 1.296 44.68C1.072 44.456 0.96 44.1787 0.96 43.848C0.96 43.5173 1.072 43.24 1.296 43.016C1.52 42.792 1.79733 42.68 2.128 42.68C2.448 42.68 2.72 42.792 2.944 43.016C3.168 43.24 3.28 43.5173 3.28 43.848C3.28 44.1787 3.168 44.456 2.944 44.68C2.72 44.904 2.448 45.016 2.128 45.016ZM3.024 46.184V55H1.2V46.184H3.024ZM9.86675 46.04C10.5601 46.04 11.1788 46.184 11.7228 46.472C12.2774 46.76 12.7094 47.1867 13.0188 47.752C13.3281 48.3173 13.4828 49 13.4828 49.8V55H11.6748V50.072C11.6748 49.2827 11.4774 48.68 11.0828 48.264C10.6881 47.8373 10.1494 47.624 9.46675 47.624C8.78408 47.624 8.24008 47.8373 7.83475 48.264C7.44008 48.68 7.24275 49.2827 7.24275 50.072V55H5.41875V46.184H7.24275V47.192C7.54142 46.8293 7.92008 46.5467 8.37875 46.344C8.84808 46.1413 9.34408 46.04 9.86675 46.04ZM19.0094 55.144C18.316 55.144 17.692 55.0213 17.1374 54.776C16.5934 54.52 16.1614 54.1787 15.8414 53.752C15.5214 53.3147 15.3507 52.8293 15.3294 52.296H17.2174C17.2494 52.6693 17.4254 52.984 17.7454 53.24C18.076 53.4853 18.4867 53.608 18.9774 53.608C19.4894 53.608 19.884 53.512 20.1614 53.32C20.4494 53.1173 20.5934 52.8613 20.5934 52.552C20.5934 52.2213 20.4334 51.976 20.1134 51.816C19.804 51.656 19.308 51.48 18.6254 51.288C17.964 51.1067 17.4254 50.9307 17.0094 50.76C16.5934 50.5893 16.2307 50.328 15.9214 49.976C15.6227 49.624 15.4734 49.16 15.4734 48.584C15.4734 48.1147 15.612 47.688 15.8894 47.304C16.1667 46.9093 16.5614 46.6 17.0734 46.376C17.596 46.152 18.1934 46.04 18.8654 46.04C19.868 46.04 20.6734 46.296 21.2814 46.808C21.9 47.3093 22.2307 47.9973 22.2734 48.872H20.4494C20.4174 48.4773 20.2574 48.1627 19.9694 47.928C19.6814 47.6933 19.292 47.576 18.8014 47.576C18.3214 47.576 17.9534 47.6667 17.6974 47.848C17.4414 48.0293 17.3134 48.2693 17.3134 48.568C17.3134 48.8027 17.3987 49 17.5694 49.16C17.74 49.32 17.948 49.448 18.1934 49.544C18.4387 49.6293 18.8014 49.7413 19.2814 49.88C19.9214 50.0507 20.444 50.2267 20.8494 50.408C21.2654 50.5787 21.6227 50.8347 21.9214 51.176C22.22 51.5173 22.3747 51.9707 22.3854 52.536C22.3854 53.0373 22.2467 53.4853 21.9694 53.88C21.692 54.2747 21.2974 54.584 20.7854 54.808C20.284 55.032 19.692 55.144 19.0094 55.144ZM26.4843 47.672V52.552C26.4843 52.8827 26.5589 53.1227 26.7083 53.272C26.8683 53.4107 27.1349 53.48 27.5083 53.48H28.6283V55H27.1883C26.3669 55 25.7376 54.808 25.3003 54.424C24.8629 54.04 24.6443 53.416 24.6443 52.552V47.672H23.6043V46.184H24.6443V43.992H26.4843V46.184H28.6283V47.672H26.4843ZM29.7014 50.552C29.7014 49.6667 29.8827 48.8827 30.2454 48.2C30.6187 47.5173 31.12 46.9893 31.7494 46.616C32.3894 46.232 33.0934 46.04 33.8614 46.04C34.5547 46.04 35.1574 46.1787 35.6694 46.456C36.192 46.7227 36.608 47.0587 36.9174 47.464V46.184H38.7574V55H36.9174V53.688C36.608 54.104 36.1867 54.4507 35.6534 54.728C35.12 55.0053 34.512 55.144 33.8294 55.144C33.072 55.144 32.3787 54.952 31.7494 54.568C31.12 54.1733 30.6187 53.6293 30.2454 52.936C29.8827 52.232 29.7014 51.4373 29.7014 50.552ZM36.9174 50.584C36.9174 49.976 36.7894 49.448 36.5334 49C36.288 48.552 35.9627 48.2107 35.5574 47.976C35.152 47.7413 34.7147 47.624 34.2454 47.624C33.776 47.624 33.3387 47.7413 32.9334 47.976C32.528 48.2 32.1974 48.536 31.9414 48.984C31.696 49.4213 31.5734 49.944 31.5734 50.552C31.5734 51.16 31.696 51.6933 31.9414 52.152C32.1974 52.6107 32.528 52.9627 32.9334 53.208C33.3494 53.4427 33.7867 53.56 34.2454 53.56C34.7147 53.56 35.152 53.4427 35.5574 53.208C35.9627 52.9733 36.288 52.632 36.5334 52.184C36.7894 51.7253 36.9174 51.192 36.9174 50.584ZM44.7051 46.04C45.3878 46.04 45.9905 46.1787 46.5131 46.456C47.0465 46.7227 47.4625 47.0587 47.7611 47.464V46.184H49.6011V55.144C49.6011 55.9547 49.4305 56.6747 49.0891 57.304C48.7478 57.944 48.2518 58.4453 47.6011 58.808C46.9611 59.1707 46.1931 59.352 45.2971 59.352C44.1025 59.352 43.1105 59.0693 42.3211 58.504C41.5318 57.9493 41.0838 57.192 40.9771 56.232H42.7851C42.9238 56.6907 43.2171 57.0587 43.6651 57.336C44.1238 57.624 44.6678 57.768 45.2971 57.768C46.0331 57.768 46.6251 57.544 47.0731 57.096C47.5318 56.648 47.7611 55.9973 47.7611 55.144V53.672C47.4518 54.088 47.0305 54.44 46.4971 54.728C45.9745 55.0053 45.3771 55.144 44.7051 55.144C43.9371 55.144 43.2331 54.952 42.5931 54.568C41.9638 54.1733 41.4625 53.6293 41.0891 52.936C40.7265 52.232 40.5451 51.4373 40.5451 50.552C40.5451 49.6667 40.7265 48.8827 41.0891 48.2C41.4625 47.5173 41.9638 46.9893 42.5931 46.616C43.2331 46.232 43.9371 46.04 44.7051 46.04ZM47.7611 50.584C47.7611 49.976 47.6331 49.448 47.3771 49C47.1318 48.552 46.8065 48.2107 46.4011 47.976C45.9958 47.7413 45.5585 47.624 45.0891 47.624C44.6198 47.624 44.1825 47.7413 43.7771 47.976C43.3718 48.2 43.0411 48.536 42.7851 48.984C42.5398 49.4213 42.4171 49.944 42.4171 50.552C42.4171 51.16 42.5398 51.6933 42.7851 52.152C43.0411 52.6107 43.3718 52.9627 43.7771 53.208C44.1931 53.4427 44.6305 53.56 45.0891 53.56C45.5585 53.56 45.9958 53.4427 46.4011 53.208C46.8065 52.9733 47.1318 52.632 47.3771 52.184C47.6331 51.7253 47.7611 51.192 47.7611 50.584ZM53.8209 47.464C54.0875 47.016 54.4395 46.6693 54.8769 46.424C55.3249 46.168 55.8529 46.04 56.4609 46.04V47.928H55.9969C55.2822 47.928 54.7382 48.1093 54.3649 48.472C54.0022 48.8347 53.8209 49.464 53.8209 50.36V55H51.9969V46.184H53.8209V47.464ZM57.5295 50.552C57.5295 49.6667 57.7108 48.8827 58.0735 48.2C58.4468 47.5173 58.9482 46.9893 59.5775 46.616C60.2175 46.232 60.9215 46.04 61.6895 46.04C62.3828 46.04 62.9855 46.1787 63.4975 46.456C64.0202 46.7227 64.4362 47.0587 64.7455 47.464V46.184H66.5855V55H64.7455V53.688C64.4362 54.104 64.0148 54.4507 63.4815 54.728C62.9482 55.0053 62.3402 55.144 61.6575 55.144C60.9002 55.144 60.2068 54.952 59.5775 54.568C58.9482 54.1733 58.4468 53.6293 58.0735 52.936C57.7108 52.232 57.5295 51.4373 57.5295 50.552ZM64.7455 50.584C64.7455 49.976 64.6175 49.448 64.3615 49C64.1162 48.552 63.7908 48.2107 63.3855 47.976C62.9802 47.7413 62.5428 47.624 62.0735 47.624C61.6042 47.624 61.1668 47.7413 60.7615 47.976C60.3562 48.2 60.0255 48.536 59.7695 48.984C59.5242 49.4213 59.4015 49.944 59.4015 50.552C59.4015 51.16 59.5242 51.6933 59.7695 52.152C60.0255 52.6107 60.3562 52.9627 60.7615 53.208C61.1775 53.4427 61.6148 53.56 62.0735 53.56C62.5428 53.56 62.9802 53.4427 63.3855 53.208C63.7908 52.9733 64.1162 52.632 64.3615 52.184C64.6175 51.7253 64.7455 51.192 64.7455 50.584ZM79.6533 46.04C80.3466 46.04 80.9653 46.184 81.5093 46.472C82.0639 46.76 82.4959 47.1867 82.8053 47.752C83.1253 48.3173 83.2853 49 83.2853 49.8V55H81.4773V50.072C81.4773 49.2827 81.2799 48.68 80.8853 48.264C80.4906 47.8373 79.9519 47.624 79.2693 47.624C78.5866 47.624 78.0426 47.8373 77.6373 48.264C77.2426 48.68 77.0453 49.2827 77.0453 50.072V55H75.2373V50.072C75.2373 49.2827 75.0399 48.68 74.6453 48.264C74.2506 47.8373 73.7119 47.624 73.0293 47.624C72.3466 47.624 71.8026 47.8373 71.3973 48.264C71.0026 48.68 70.8053 49.2827 70.8053 50.072V55H68.9813V46.184H70.8053V47.192C71.1039 46.8293 71.4826 46.5467 71.9413 46.344C72.3999 46.1413 72.8906 46.04 73.4133 46.04C74.1173 46.04 74.7466 46.1893 75.3013 46.488C75.8559 46.7867 76.2826 47.2187 76.5813 47.784C76.8479 47.2507 77.2639 46.8293 77.8293 46.52C78.3946 46.2 79.0026 46.04 79.6533 46.04Z" fill="white"/>
</svg>
