<svg width="35" height="35" viewBox="0 0 35 35" fill="none" xmlns="http://www.w3.org/2000/svg">
<path d="M14.8837 13.7583C13.6281 14.5469 12.9008 15.9633 12.9773 17.4409C13.0616 18.9263 13.9497 20.2431 15.2819 20.8939C16.6217 21.537 18.2066 21.3992 19.4163 20.5417C20.6719 19.7531 21.3992 18.3367 21.3227 16.8591C21.2384 15.3738 20.3503 14.0569 19.0181 13.4061C17.6783 12.763 16.0934 12.9008 14.8837 13.7583ZM25.7786 8.52141C25.3805 8.12328 24.8981 7.80938 24.3698 7.60266C22.9841 7.05906 19.9598 7.08203 18.0075 7.105C17.6936 7.105 17.4027 7.11266 17.15 7.11266C16.8973 7.11266 16.5987 7.11266 16.2772 7.105C14.3248 7.08203 11.3159 7.05141 9.93016 7.60266C9.40187 7.80938 8.92719 8.12328 8.52141 8.52141C8.11563 8.91953 7.80938 9.40187 7.60266 9.93016C7.05906 11.3159 7.08969 14.3478 7.105 16.3002C7.105 16.6141 7.11266 16.905 7.11266 17.15C7.11266 17.395 7.11266 17.6859 7.105 17.9998C7.08969 19.9522 7.05906 22.9841 7.60266 24.3698C7.80938 24.8981 8.12328 25.3728 8.52141 25.7786C8.91953 26.1844 9.40187 26.4906 9.93016 26.6973C11.3159 27.2409 14.3402 27.218 16.2925 27.195C16.6064 27.195 16.8973 27.1873 17.15 27.1873C17.4027 27.1873 17.7013 27.1873 18.0228 27.195C19.9752 27.218 22.9841 27.2486 24.3698 26.6973C24.8981 26.4906 25.3728 26.1767 25.7786 25.7786C26.1844 25.3805 26.4906 24.8981 26.6973 24.3698C27.2486 22.9917 27.218 19.9752 27.195 18.0152C27.195 17.6936 27.1873 17.395 27.1873 17.1423C27.1873 16.8897 27.1873 16.5987 27.195 16.2695C27.218 14.3172 27.2486 11.3006 26.6973 9.91484C26.4906 9.38656 26.1767 8.91187 25.7786 8.50609V8.52141ZM20.6413 11.9284C22.027 12.8548 22.9841 14.2942 23.3133 15.925C23.6425 17.5558 23.298 19.2555 22.3716 20.6413C21.9122 21.3303 21.3227 21.9122 20.6413 22.3716C19.9598 22.8309 19.1866 23.1448 18.375 23.3056C16.7442 23.6272 15.0445 23.2903 13.6587 22.3639C12.273 21.4375 11.3159 19.9981 10.9867 18.3673C10.6575 16.7366 11.002 15.0369 11.9208 13.6511C12.8395 12.2653 14.2866 11.3083 15.9173 10.9791C17.5481 10.6498 19.2478 10.9944 20.6336 11.9131H20.6413V11.9284ZM22.8769 11.8289C22.6395 11.6681 22.4481 11.4384 22.3333 11.1705C22.2184 10.9025 22.1955 10.6116 22.2491 10.3206C22.3027 10.0297 22.4481 9.77703 22.6472 9.57031C22.8462 9.36359 23.1142 9.22578 23.3975 9.17219C23.6808 9.11859 23.9794 9.14156 24.2473 9.25641C24.5153 9.37125 24.745 9.555 24.9058 9.79234C25.0666 10.0297 25.1508 10.313 25.1508 10.6039C25.1508 10.7953 25.1125 10.9867 25.0436 11.1628C24.9747 11.3389 24.8598 11.4997 24.7297 11.6375C24.5995 11.7753 24.4311 11.8825 24.255 11.9591C24.0789 12.0356 23.8875 12.0739 23.6961 12.0739C23.4052 12.0739 23.1219 11.9897 22.8845 11.8289H22.8769ZM34.3 4.9C34.3 2.19734 32.1027 0 29.4 0H4.9C2.19734 0 0 2.19734 0 4.9V29.4C0 32.1027 2.19734 34.3 4.9 34.3H29.4C32.1027 34.3 34.3 32.1027 34.3 29.4V4.9ZM27.3328 27.3328C25.9011 28.7645 24.1631 29.2162 22.2031 29.3158C20.1819 29.4306 14.1181 29.4306 12.0969 29.3158C10.1369 29.2162 8.39891 28.7645 6.96719 27.3328C5.53547 25.9011 5.08375 24.1631 4.99187 22.2031C4.87703 20.1819 4.87703 14.1181 4.99187 12.0969C5.09141 10.1369 5.53547 8.39891 6.96719 6.96719C8.39891 5.53547 10.1445 5.08375 12.0969 4.99187C14.1181 4.87703 20.1819 4.87703 22.2031 4.99187C24.1631 5.09141 25.9011 5.53547 27.3328 6.96719C28.7645 8.39891 29.2162 10.1369 29.3081 12.0969C29.423 14.1105 29.423 20.1666 29.3081 22.1955C29.2086 24.1555 28.7645 25.8934 27.3328 27.3252V27.3328Z" fill="white"/>
</svg>
