<svg width="115" height="30" viewBox="0 0 115 30" fill="none" xmlns="http://www.w3.org/2000/svg">
<path d="M33.78 22.16C32.8067 22.16 31.94 21.9933 31.18 21.66C30.42 21.3267 29.82 20.8733 29.38 20.3C28.94 19.7133 28.6933 19.06 28.64 18.34H32.02C32.06 18.7267 32.24 19.04 32.56 19.28C32.88 19.52 33.2733 19.64 33.74 19.64C34.1667 19.64 34.4933 19.56 34.72 19.4C34.96 19.2267 35.08 19.0067 35.08 18.74C35.08 18.42 34.9133 18.1867 34.58 18.04C34.2467 17.88 33.7067 17.7067 32.96 17.52C32.16 17.3333 31.4933 17.14 30.96 16.94C30.4267 16.7267 29.9667 16.4 29.58 15.96C29.1933 15.5067 29 14.9 29 14.14C29 13.5 29.1733 12.92 29.52 12.4C29.88 11.8667 30.4 11.4467 31.08 11.14C31.7733 10.8333 32.5933 10.68 33.54 10.68C34.94 10.68 36.04 11.0267 36.84 11.72C37.6533 12.4133 38.12 13.3333 38.24 14.48H35.08C35.0267 14.0933 34.8533 13.7867 34.56 13.56C34.28 13.3333 33.9067 13.22 33.44 13.22C33.04 13.22 32.7333 13.3 32.52 13.46C32.3067 13.6067 32.2 13.8133 32.2 14.08C32.2 14.4 32.3667 14.64 32.7 14.8C33.0467 14.96 33.58 15.12 34.3 15.28C35.1267 15.4933 35.8 15.7067 36.32 15.92C36.84 16.12 37.2933 16.4533 37.68 16.92C38.08 17.3733 38.2867 17.9867 38.3 18.76C38.3 19.4133 38.1133 20 37.74 20.52C37.38 21.0267 36.8533 21.4267 36.16 21.72C35.48 22.0133 34.6867 22.16 33.78 22.16ZM50.9123 16.24C50.9123 16.56 50.8923 16.8933 50.8523 17.24H43.1123C43.1657 17.9333 43.3857 18.4667 43.7723 18.84C44.1723 19.2 44.659 19.38 45.2323 19.38C46.0857 19.38 46.679 19.02 47.0123 18.3H50.6523C50.4657 19.0333 50.1257 19.6933 49.6323 20.28C49.1523 20.8667 48.5457 21.3267 47.8123 21.66C47.079 21.9933 46.259 22.16 45.3523 22.16C44.259 22.16 43.2857 21.9267 42.4323 21.46C41.579 20.9933 40.9123 20.3267 40.4323 19.46C39.9523 18.5933 39.7123 17.58 39.7123 16.42C39.7123 15.26 39.9457 14.2467 40.4123 13.38C40.8923 12.5133 41.559 11.8467 42.4123 11.38C43.2657 10.9133 44.2457 10.68 45.3523 10.68C46.4323 10.68 47.3923 10.9067 48.2323 11.36C49.0723 11.8133 49.7257 12.46 50.1923 13.3C50.6723 14.14 50.9123 15.12 50.9123 16.24ZM47.4123 15.34C47.4123 14.7533 47.2123 14.2867 46.8123 13.94C46.4123 13.5933 45.9123 13.42 45.3123 13.42C44.739 13.42 44.2523 13.5867 43.8523 13.92C43.4657 14.2533 43.2257 14.7267 43.1323 15.34H47.4123ZM56.1366 12.7C56.5366 12.0867 57.0366 11.6067 57.6366 11.26C58.2366 10.9 58.9032 10.72 59.6366 10.72V14.34H58.6966C57.8432 14.34 57.2032 14.5267 56.7766 14.9C56.3499 15.26 56.1366 15.9 56.1366 16.82V22H52.7166V10.84H56.1366V12.7ZM66.2913 18.8L68.7113 10.84H72.3513L68.3913 22H64.1713L60.2113 10.84H63.8713L66.2913 18.8ZM75.5108 9.68C74.9108 9.68 74.4174 9.50667 74.0308 9.16C73.6574 8.8 73.4708 8.36 73.4708 7.84C73.4708 7.30667 73.6574 6.86667 74.0308 6.52C74.4174 6.16 74.9108 5.98 75.5108 5.98C76.0974 5.98 76.5774 6.16 76.9508 6.52C77.3374 6.86667 77.5308 7.30667 77.5308 7.84C77.5308 8.36 77.3374 8.8 76.9508 9.16C76.5774 9.50667 76.0974 9.68 75.5108 9.68ZM77.2108 10.84V22H73.7908V10.84H77.2108ZM84.5492 19.24C85.4292 19.24 86.0226 18.8133 86.3292 17.96H89.9692C89.7159 19.0933 89.2092 20.02 88.4492 20.74C87.6892 21.46 86.7426 21.9067 85.6092 22.08V22.82C86.3026 22.82 86.9092 23.0067 87.4292 23.38C87.9492 23.7667 88.2092 24.34 88.2092 25.1C88.2092 25.86 87.9359 26.4333 87.3892 26.82C86.8426 27.22 86.1892 27.42 85.4292 27.42H82.3492V25.54H84.9692C85.2359 25.54 85.4359 25.5 85.5692 25.42C85.7026 25.34 85.7692 25.2067 85.7692 25.02C85.7692 24.8333 85.7026 24.7 85.5692 24.62C85.4359 24.5533 85.2359 24.52 84.9692 24.52H83.5492V22.08C82.1759 21.8667 81.0759 21.26 80.2492 20.26C79.4226 19.2467 79.0092 17.9667 79.0092 16.42C79.0092 15.26 79.2426 14.2467 79.7092 13.38C80.1892 12.5133 80.8492 11.8467 81.6892 11.38C82.5426 10.9133 83.5159 10.68 84.6092 10.68C86.0092 10.68 87.1759 11.0467 88.1092 11.78C89.0559 12.5133 89.6759 13.5467 89.9692 14.88H86.3292C86.0226 14.0267 85.4292 13.6 84.5492 13.6C83.9226 13.6 83.4226 13.8467 83.0492 14.34C82.6759 14.82 82.4892 15.5133 82.4892 16.42C82.4892 17.3267 82.6759 18.0267 83.0492 18.52C83.4226 19 83.9226 19.24 84.5492 19.24ZM96.8786 22.16C95.7853 22.16 94.7986 21.9267 93.9186 21.46C93.0519 20.9933 92.3653 20.3267 91.8586 19.46C91.3653 18.5933 91.1186 17.58 91.1186 16.42C91.1186 15.2733 91.3719 14.2667 91.8786 13.4C92.3853 12.52 93.0786 11.8467 93.9586 11.38C94.8386 10.9133 95.8253 10.68 96.9186 10.68C98.0119 10.68 98.9986 10.9133 99.8786 11.38C100.759 11.8467 101.452 12.52 101.959 13.4C102.465 14.2667 102.719 15.2733 102.719 16.42C102.719 17.5667 102.459 18.58 101.939 19.46C101.432 20.3267 100.732 20.9933 99.8386 21.46C98.9586 21.9267 97.9719 22.16 96.8786 22.16ZM96.8786 19.2C97.5319 19.2 98.0853 18.96 98.5386 18.48C99.0053 18 99.2386 17.3133 99.2386 16.42C99.2386 15.5267 99.0119 14.84 98.5586 14.36C98.1186 13.88 97.5719 13.64 96.9186 13.64C96.2519 13.64 95.6986 13.88 95.2586 14.36C94.8186 14.8267 94.5986 15.5133 94.5986 16.42C94.5986 17.3133 94.8119 18 95.2386 18.48C95.6786 18.96 96.2253 19.2 96.8786 19.2ZM109.073 22.16C108.1 22.16 107.233 21.9933 106.473 21.66C105.713 21.3267 105.113 20.8733 104.673 20.3C104.233 19.7133 103.986 19.06 103.933 18.34H107.313C107.353 18.7267 107.533 19.04 107.853 19.28C108.173 19.52 108.566 19.64 109.033 19.64C109.46 19.64 109.786 19.56 110.013 19.4C110.253 19.2267 110.373 19.0067 110.373 18.74C110.373 18.42 110.206 18.1867 109.873 18.04C109.54 17.88 109 17.7067 108.253 17.52C107.453 17.3333 106.786 17.14 106.253 16.94C105.72 16.7267 105.26 16.4 104.873 15.96C104.486 15.5067 104.293 14.9 104.293 14.14C104.293 13.5 104.466 12.92 104.813 12.4C105.173 11.8667 105.693 11.4467 106.373 11.14C107.066 10.8333 107.886 10.68 108.833 10.68C110.233 10.68 111.333 11.0267 112.133 11.72C112.946 12.4133 113.413 13.3333 113.533 14.48H110.373C110.32 14.0933 110.146 13.7867 109.853 13.56C109.573 13.3333 109.2 13.22 108.733 13.22C108.333 13.22 108.026 13.3 107.813 13.46C107.6 13.6067 107.493 13.8133 107.493 14.08C107.493 14.4 107.66 14.64 107.993 14.8C108.34 14.96 108.873 15.12 109.593 15.28C110.42 15.4933 111.093 15.7067 111.613 15.92C112.133 16.12 112.586 16.4533 112.973 16.92C113.373 17.3733 113.58 17.9867 113.593 18.76C113.593 19.4133 113.406 20 113.033 20.52C112.673 21.0267 112.146 21.4267 111.453 21.72C110.773 22.0133 109.98 22.16 109.073 22.16Z" fill="white"/>
<path d="M7.42188 8.6H11.5781C11.7414 8.6 11.875 8.72 11.875 8.86667V10.2H7.125V8.86667C7.125 8.72 7.25859 8.6 7.42188 8.6ZM5.34375 8.86667V10.2H2.375C1.06504 10.2 0 11.1567 0 12.3333V15.5333H19V12.3333C19 11.1567 17.935 10.2 16.625 10.2H13.6562V8.86667C13.6562 7.83667 12.7248 7 11.5781 7H7.42188C6.2752 7 5.34375 7.83667 5.34375 8.86667ZM19 17.1333H11.875V17.6667C11.875 18.2567 11.3443 18.7333 10.6875 18.7333H8.3125C7.65566 18.7333 7.125 18.2567 7.125 17.6667V17.1333H0V20.8667C0 22.0433 1.06504 23 2.375 23H16.625C17.935 23 19 22.0433 19 20.8667V17.1333Z" fill="white"/>
</svg>
