<svg width="137" height="36" viewBox="0 0 137 36" fill="none" xmlns="http://www.w3.org/2000/svg">
<path d="M39.936 26.192C38.768 26.192 37.728 25.992 36.816 25.592C35.904 25.192 35.184 24.648 34.656 23.96C34.128 23.256 33.832 22.472 33.768 21.608H37.824C37.872 22.072 38.088 22.448 38.472 22.736C38.856 23.024 39.328 23.168 39.888 23.168C40.4 23.168 40.792 23.072 41.064 22.88C41.352 22.672 41.496 22.408 41.496 22.088C41.496 21.704 41.296 21.424 40.896 21.248C40.496 21.056 39.848 20.848 38.952 20.624C37.992 20.4 37.192 20.168 36.552 19.928C35.912 19.672 35.36 19.28 34.896 18.752C34.432 18.208 34.2 17.48 34.2 16.568C34.2 15.8 34.408 15.104 34.824 14.48C35.256 13.84 35.88 13.336 36.696 12.968C37.528 12.6 38.512 12.416 39.648 12.416C41.328 12.416 42.648 12.832 43.608 13.664C44.584 14.496 45.144 15.6 45.288 16.976H41.496C41.432 16.512 41.224 16.144 40.872 15.872C40.536 15.6 40.088 15.464 39.528 15.464C39.048 15.464 38.68 15.56 38.424 15.752C38.168 15.928 38.04 16.176 38.04 16.496C38.04 16.88 38.24 17.168 38.64 17.36C39.056 17.552 39.696 17.744 40.56 17.936C41.552 18.192 42.36 18.448 42.984 18.704C43.608 18.944 44.152 19.344 44.616 19.904C45.096 20.448 45.344 21.184 45.36 22.112C45.36 22.896 45.136 23.6 44.688 24.224C44.256 24.832 43.624 25.312 42.792 25.664C41.976 26.016 41.024 26.192 39.936 26.192ZM60.4948 19.088C60.4948 19.472 60.4708 19.872 60.4228 20.288H51.1348C51.1988 21.12 51.4628 21.76 51.9268 22.208C52.4068 22.64 52.9908 22.856 53.6788 22.856C54.7028 22.856 55.4148 22.424 55.8148 21.56H60.1828C59.9588 22.44 59.5508 23.232 58.9588 23.936C58.3828 24.64 57.6548 25.192 56.7748 25.592C55.8948 25.992 54.9108 26.192 53.8228 26.192C52.5108 26.192 51.3428 25.912 50.3188 25.352C49.2948 24.792 48.4948 23.992 47.9188 22.952C47.3428 21.912 47.0548 20.696 47.0548 19.304C47.0548 17.912 47.3348 16.696 47.8948 15.656C48.4708 14.616 49.2708 13.816 50.2948 13.256C51.3188 12.696 52.4948 12.416 53.8228 12.416C55.1188 12.416 56.2708 12.688 57.2788 13.232C58.2868 13.776 59.0708 14.552 59.6308 15.56C60.2068 16.568 60.4948 17.744 60.4948 19.088ZM56.2948 18.008C56.2948 17.304 56.0548 16.744 55.5748 16.328C55.0948 15.912 54.4948 15.704 53.7748 15.704C53.0868 15.704 52.5028 15.904 52.0228 16.304C51.5588 16.704 51.2708 17.272 51.1588 18.008H56.2948ZM66.7639 14.84C67.2439 14.104 67.8439 13.528 68.5639 13.112C69.2839 12.68 70.0839 12.464 70.9639 12.464V16.808H69.8359C68.8119 16.808 68.0439 17.032 67.5319 17.48C67.0199 17.912 66.7639 18.68 66.7639 19.784V26H62.6599V12.608H66.7639V14.84ZM78.9495 22.16L81.8535 12.608H86.2215L81.4695 26H76.4055L71.6535 12.608H76.0455L78.9495 22.16ZM90.0129 11.216C89.2929 11.216 88.7009 11.008 88.2369 10.592C87.7889 10.16 87.5649 9.632 87.5649 9.008C87.5649 8.368 87.7889 7.84 88.2369 7.424C88.7009 6.992 89.2929 6.776 90.0129 6.776C90.7169 6.776 91.2929 6.992 91.7409 7.424C92.2049 7.84 92.4369 8.368 92.4369 9.008C92.4369 9.632 92.2049 10.16 91.7409 10.592C91.2929 11.008 90.7169 11.216 90.0129 11.216ZM92.0529 12.608V26H87.9489V12.608H92.0529ZM100.859 22.688C101.915 22.688 102.627 22.176 102.995 21.152H107.363C107.059 22.512 106.451 23.624 105.539 24.488C104.627 25.352 103.491 25.888 102.131 26.096V26.984C102.963 26.984 103.691 27.208 104.315 27.656C104.939 28.12 105.251 28.808 105.251 29.72C105.251 30.632 104.923 31.32 104.267 31.784C103.611 32.264 102.827 32.504 101.915 32.504H98.2191V30.248H101.363C101.683 30.248 101.923 30.2 102.083 30.104C102.243 30.008 102.323 29.848 102.323 29.624C102.323 29.4 102.243 29.24 102.083 29.144C101.923 29.064 101.683 29.024 101.363 29.024H99.6591V26.096C98.0111 25.84 96.6911 25.112 95.6991 23.912C94.7071 22.696 94.2111 21.16 94.2111 19.304C94.2111 17.912 94.4911 16.696 95.0511 15.656C95.6271 14.616 96.4191 13.816 97.4271 13.256C98.4511 12.696 99.6191 12.416 100.931 12.416C102.611 12.416 104.011 12.856 105.131 13.736C106.267 14.616 107.011 15.856 107.363 17.456H102.995C102.627 16.432 101.915 15.92 100.859 15.92C100.107 15.92 99.5071 16.216 99.0591 16.808C98.6111 17.384 98.3871 18.216 98.3871 19.304C98.3871 20.392 98.6111 21.232 99.0591 21.824C99.5071 22.4 100.107 22.688 100.859 22.688ZM115.654 26.192C114.342 26.192 113.158 25.912 112.102 25.352C111.062 24.792 110.238 23.992 109.63 22.952C109.038 21.912 108.742 20.696 108.742 19.304C108.742 17.928 109.046 16.72 109.654 15.68C110.262 14.624 111.094 13.816 112.15 13.256C113.206 12.696 114.39 12.416 115.702 12.416C117.014 12.416 118.198 12.696 119.254 13.256C120.31 13.816 121.142 14.624 121.75 15.68C122.358 16.72 122.662 17.928 122.662 19.304C122.662 20.68 122.35 21.896 121.726 22.952C121.118 23.992 120.278 24.792 119.206 25.352C118.15 25.912 116.966 26.192 115.654 26.192ZM115.654 22.64C116.438 22.64 117.102 22.352 117.646 21.776C118.206 21.2 118.486 20.376 118.486 19.304C118.486 18.232 118.214 17.408 117.67 16.832C117.142 16.256 116.486 15.968 115.702 15.968C114.902 15.968 114.238 16.256 113.71 16.832C113.182 17.392 112.918 18.216 112.918 19.304C112.918 20.376 113.174 21.2 113.686 21.776C114.214 22.352 114.87 22.64 115.654 22.64ZM130.288 26.192C129.12 26.192 128.08 25.992 127.168 25.592C126.256 25.192 125.536 24.648 125.008 23.96C124.48 23.256 124.184 22.472 124.12 21.608H128.176C128.224 22.072 128.44 22.448 128.824 22.736C129.208 23.024 129.68 23.168 130.24 23.168C130.752 23.168 131.144 23.072 131.416 22.88C131.704 22.672 131.848 22.408 131.848 22.088C131.848 21.704 131.648 21.424 131.248 21.248C130.848 21.056 130.2 20.848 129.304 20.624C128.344 20.4 127.544 20.168 126.904 19.928C126.264 19.672 125.712 19.28 125.248 18.752C124.784 18.208 124.552 17.48 124.552 16.568C124.552 15.8 124.76 15.104 125.176 14.48C125.608 13.84 126.232 13.336 127.048 12.968C127.88 12.6 128.864 12.416 130 12.416C131.68 12.416 133 12.832 133.96 13.664C134.936 14.496 135.496 15.6 135.64 16.976H131.848C131.784 16.512 131.576 16.144 131.224 15.872C130.888 15.6 130.44 15.464 129.88 15.464C129.4 15.464 129.032 15.56 128.776 15.752C128.52 15.928 128.392 16.176 128.392 16.496C128.392 16.88 128.592 17.168 128.992 17.36C129.408 17.552 130.048 17.744 130.912 17.936C131.904 18.192 132.712 18.448 133.336 18.704C133.96 18.944 134.504 19.344 134.968 19.904C135.448 20.448 135.696 21.184 135.712 22.112C135.712 22.896 135.488 23.6 135.04 24.224C134.608 24.832 133.976 25.312 133.144 25.664C132.328 26.016 131.376 26.192 130.288 26.192Z" fill="white"/>
<path d="M9.375 9.2H14.625C14.8313 9.2 15 9.365 15 9.56667V11.4H9V9.56667C9 9.365 9.16875 9.2 9.375 9.2ZM6.75 9.56667V11.4H3C1.34531 11.4 0 12.7154 0 14.3333V18.7333H24V14.3333C24 12.7154 22.6547 11.4 21 11.4H17.25V9.56667C17.25 8.15042 16.0734 7 14.625 7H9.375C7.92656 7 6.75 8.15042 6.75 9.56667ZM24 20.9333H15V21.6667C15 22.4779 14.3297 23.1333 13.5 23.1333H10.5C9.67031 23.1333 9 22.4779 9 21.6667V20.9333H0V26.0667C0 27.6846 1.34531 29 3 29H21C22.6547 29 24 27.6846 24 26.0667V20.9333Z" fill="white"/>
</svg>
