<svg width="93" height="30" viewBox="0 0 93 30" fill="none" xmlns="http://www.w3.org/2000/svg">
<path d="M39.76 16.24C39.76 16.56 39.74 16.8933 39.7 17.24H31.96C32.0133 17.9333 32.2333 18.4667 32.62 18.84C33.02 19.2 33.5067 19.38 34.08 19.38C34.9333 19.38 35.5267 19.02 35.86 18.3H39.5C39.3133 19.0333 38.9733 19.6933 38.48 20.28C38 20.8667 37.3933 21.3267 36.66 21.66C35.9267 21.9933 35.1067 22.16 34.2 22.16C33.1067 22.16 32.1333 21.9267 31.28 21.46C30.4267 20.9933 29.76 20.3267 29.28 19.46C28.8 18.5933 28.56 17.58 28.56 16.42C28.56 15.26 28.7933 14.2467 29.26 13.38C29.74 12.5133 30.4067 11.8467 31.26 11.38C32.1133 10.9133 33.0933 10.68 34.2 10.68C35.28 10.68 36.24 10.9067 37.08 11.36C37.92 11.8133 38.5733 12.46 39.04 13.3C39.52 14.14 39.76 15.12 39.76 16.24ZM36.26 15.34C36.26 14.7533 36.06 14.2867 35.66 13.94C35.26 13.5933 34.76 13.42 34.16 13.42C33.5867 13.42 33.1 13.5867 32.7 13.92C32.3133 14.2533 32.0733 14.7267 31.98 15.34H36.26ZM48.3642 10.72C49.6709 10.72 50.7109 11.1467 51.4842 12C52.2709 12.84 52.6642 14 52.6642 15.48V22H49.2642V15.94C49.2642 15.1933 49.0709 14.6133 48.6842 14.2C48.2976 13.7867 47.7776 13.58 47.1242 13.58C46.4709 13.58 45.9509 13.7867 45.5642 14.2C45.1776 14.6133 44.9842 15.1933 44.9842 15.94V22H41.5642V10.84H44.9842V12.32C45.3309 11.8267 45.7976 11.44 46.3842 11.16C46.9709 10.8667 47.6309 10.72 48.3642 10.72ZM61.2608 19.1V22H59.5208C58.2808 22 57.3141 21.7 56.6208 21.1C55.9274 20.4867 55.5808 19.4933 55.5808 18.12V13.68H54.2208V10.84H55.5808V8.12H59.0008V10.84H61.2408V13.68H59.0008V18.16C59.0008 18.4933 59.0808 18.7333 59.2408 18.88C59.4008 19.0267 59.6674 19.1 60.0408 19.1H61.2608ZM66.5858 12.7C66.9858 12.0867 67.4858 11.6067 68.0858 11.26C68.6858 10.9 69.3524 10.72 70.0858 10.72V14.34H69.1458C68.2924 14.34 67.6524 14.5267 67.2258 14.9C66.7991 15.26 66.5858 15.9 66.5858 16.82V22H63.1658V10.84H66.5858V12.7ZM71.0405 16.4C71.0405 15.2533 71.2538 14.2467 71.6805 13.38C72.1205 12.5133 72.7138 11.8467 73.4605 11.38C74.2071 10.9133 75.0405 10.68 75.9605 10.68C76.7471 10.68 77.4338 10.84 78.0205 11.16C78.6205 11.48 79.0805 11.9 79.4005 12.42V10.84H82.8205V22H79.4005V20.42C79.0671 20.94 78.6005 21.36 78.0005 21.68C77.4138 22 76.7271 22.16 75.9405 22.16C75.0338 22.16 74.2071 21.9267 73.4605 21.46C72.7138 20.98 72.1205 20.3067 71.6805 19.44C71.2538 18.56 71.0405 17.5467 71.0405 16.4ZM79.4005 16.42C79.4005 15.5667 79.1605 14.8933 78.6805 14.4C78.2138 13.9067 77.6405 13.66 76.9605 13.66C76.2805 13.66 75.7005 13.9067 75.2205 14.4C74.7538 14.88 74.5205 15.5467 74.5205 16.4C74.5205 17.2533 74.7538 17.9333 75.2205 18.44C75.7005 18.9333 76.2805 19.18 76.9605 19.18C77.6405 19.18 78.2138 18.9333 78.6805 18.44C79.1605 17.9467 79.4005 17.2733 79.4005 16.42ZM88.7147 12.7C89.1147 12.0867 89.6147 11.6067 90.2147 11.26C90.8147 10.9 91.4814 10.72 92.2147 10.72V14.34H91.2747C90.4214 14.34 89.7814 14.5267 89.3547 14.9C88.928 15.26 88.7147 15.9 88.7147 16.82V22H85.2947V10.84H88.7147V12.7Z" fill="white"/>
<path d="M13.0625 10.5714H15.4375C16.0943 10.5714 16.625 11.146 16.625 11.8571V22.1429C16.625 22.854 16.0943 23.4286 15.4375 23.4286H13.0625C12.4057 23.4286 11.875 24.0031 11.875 24.7143C11.875 25.4254 12.4057 26 13.0625 26H15.4375C17.4043 26 19 24.2723 19 22.1429V11.8571C19 9.72768 17.4043 8 15.4375 8H13.0625C12.4057 8 11.875 8.57455 11.875 9.28571C11.875 9.99688 12.4057 10.5714 13.0625 10.5714ZM12.7137 17.908C13.1775 17.4058 13.1775 16.5902 12.7137 16.0879L7.96367 10.9451C7.4998 10.4429 6.74648 10.4429 6.28262 10.9451C5.81875 11.4473 5.81875 12.2629 6.28262 12.7652L9.00645 15.7143H1.1875C0.530664 15.7143 0 16.2888 0 17C0 17.7112 0.530664 18.2857 1.1875 18.2857H9.00645L6.28262 21.2348C5.81875 21.7371 5.81875 22.5527 6.28262 23.0549C6.74648 23.5571 7.4998 23.5571 7.96367 23.0549L12.7137 17.9121V17.908Z" fill="white"/>
</svg>
