<svg width="173" height="30" viewBox="0 0 173 30" fill="none" xmlns="http://www.w3.org/2000/svg">
<path d="M42.48 10.72C43.8667 10.72 44.9667 11.14 45.78 11.98C46.6067 12.82 47.02 13.9867 47.02 15.48V22H43.62V15.94C43.62 15.22 43.4267 14.6667 43.04 14.28C42.6667 13.88 42.1467 13.68 41.48 13.68C40.8133 13.68 40.2867 13.88 39.9 14.28C39.5267 14.6667 39.34 15.22 39.34 15.94V22H35.94V15.94C35.94 15.22 35.7467 14.6667 35.36 14.28C34.9867 13.88 34.4667 13.68 33.8 13.68C33.1333 13.68 32.6067 13.88 32.22 14.28C31.8467 14.6667 31.66 15.22 31.66 15.94V22H28.24V10.84H31.66V12.24C32.0067 11.7733 32.46 11.4067 33.02 11.14C33.58 10.86 34.2133 10.72 34.92 10.72C35.76 10.72 36.5067 10.9 37.16 11.26C37.8267 11.62 38.3467 12.1333 38.72 12.8C39.1067 12.1867 39.6333 11.6867 40.3 11.3C40.9667 10.9133 41.6933 10.72 42.48 10.72ZM59.9319 16.24C59.9319 16.56 59.9119 16.8933 59.8719 17.24H52.1319C52.1852 17.9333 52.4052 18.4667 52.7919 18.84C53.1919 19.2 53.6785 19.38 54.2519 19.38C55.1052 19.38 55.6985 19.02 56.0319 18.3H59.6719C59.4852 19.0333 59.1452 19.6933 58.6519 20.28C58.1719 20.8667 57.5652 21.3267 56.8319 21.66C56.0985 21.9933 55.2785 22.16 54.3719 22.16C53.2785 22.16 52.3052 21.9267 51.4519 21.46C50.5985 20.9933 49.9319 20.3267 49.4519 19.46C48.9719 18.5933 48.7319 17.58 48.7319 16.42C48.7319 15.26 48.9652 14.2467 49.4319 13.38C49.9119 12.5133 50.5785 11.8467 51.4319 11.38C52.2852 10.9133 53.2652 10.68 54.3719 10.68C55.4519 10.68 56.4119 10.9067 57.2519 11.36C58.0919 11.8133 58.7452 12.46 59.2119 13.3C59.6919 14.14 59.9319 15.12 59.9319 16.24ZM56.4319 15.34C56.4319 14.7533 56.2319 14.2867 55.8319 13.94C55.4319 13.5933 54.9319 13.42 54.3319 13.42C53.7585 13.42 53.2719 13.5867 52.8719 13.92C52.4852 14.2533 52.2452 14.7267 52.1519 15.34H56.4319ZM72.7561 10.84V22H69.3361V20.48C68.9894 20.9733 68.5161 21.3733 67.9161 21.68C67.3294 21.9733 66.6761 22.12 65.9561 22.12C65.1028 22.12 64.3494 21.9333 63.6961 21.56C63.0428 21.1733 62.5361 20.62 62.1761 19.9C61.8161 19.18 61.6361 18.3333 61.6361 17.36V10.84H65.0361V16.9C65.0361 17.6467 65.2294 18.2267 65.6161 18.64C66.0028 19.0533 66.5228 19.26 67.1761 19.26C67.8428 19.26 68.3694 19.0533 68.7561 18.64C69.1428 18.2267 69.3361 17.6467 69.3361 16.9V10.84H72.7561ZM79.7527 22.16C78.7793 22.16 77.9127 21.9933 77.1527 21.66C76.3927 21.3267 75.7927 20.8733 75.3527 20.3C74.9127 19.7133 74.666 19.06 74.6127 18.34H77.9927C78.0327 18.7267 78.2127 19.04 78.5327 19.28C78.8527 19.52 79.246 19.64 79.7127 19.64C80.1393 19.64 80.466 19.56 80.6927 19.4C80.9327 19.2267 81.0527 19.0067 81.0527 18.74C81.0527 18.42 80.886 18.1867 80.5527 18.04C80.2193 17.88 79.6793 17.7067 78.9327 17.52C78.1327 17.3333 77.466 17.14 76.9327 16.94C76.3993 16.7267 75.9393 16.4 75.5527 15.96C75.166 15.5067 74.9727 14.9 74.9727 14.14C74.9727 13.5 75.146 12.92 75.4927 12.4C75.8527 11.8667 76.3727 11.4467 77.0527 11.14C77.746 10.8333 78.566 10.68 79.5127 10.68C80.9127 10.68 82.0127 11.0267 82.8127 11.72C83.626 12.4133 84.0927 13.3333 84.2127 14.48H81.0527C80.9993 14.0933 80.826 13.7867 80.5327 13.56C80.2527 13.3333 79.8793 13.22 79.4127 13.22C79.0127 13.22 78.706 13.3 78.4927 13.46C78.2793 13.6067 78.1727 13.8133 78.1727 14.08C78.1727 14.4 78.3393 14.64 78.6727 14.8C79.0193 14.96 79.5527 15.12 80.2727 15.28C81.0993 15.4933 81.7727 15.7067 82.2927 15.92C82.8127 16.12 83.266 16.4533 83.6527 16.92C84.0527 17.3733 84.2593 17.9867 84.2727 18.76C84.2727 19.4133 84.086 20 83.7127 20.52C83.3527 21.0267 82.826 21.4267 82.1327 21.72C81.4527 22.0133 80.6593 22.16 79.7527 22.16ZM94.0233 12.42C94.3566 11.9 94.8166 11.48 95.4033 11.16C95.9899 10.84 96.6766 10.68 97.4633 10.68C98.3833 10.68 99.2166 10.9133 99.9633 11.38C100.71 11.8467 101.297 12.5133 101.723 13.38C102.163 14.2467 102.383 15.2533 102.383 16.4C102.383 17.5467 102.163 18.56 101.723 19.44C101.297 20.3067 100.71 20.98 99.9633 21.46C99.2166 21.9267 98.3833 22.16 97.4633 22.16C96.6899 22.16 96.0033 22 95.4033 21.68C94.8166 21.36 94.3566 20.9467 94.0233 20.44V27.32H90.6033V10.84H94.0233V12.42ZM98.9033 16.4C98.9033 15.5467 98.6633 14.88 98.1833 14.4C97.7166 13.9067 97.1366 13.66 96.4433 13.66C95.7633 13.66 95.1833 13.9067 94.7033 14.4C94.2366 14.8933 94.0033 15.5667 94.0033 16.42C94.0033 17.2733 94.2366 17.9467 94.7033 18.44C95.1833 18.9333 95.7633 19.18 96.4433 19.18C97.1233 19.18 97.7033 18.9333 98.1833 18.44C98.6633 17.9333 98.9033 17.2533 98.9033 16.4ZM114.697 16.24C114.697 16.56 114.678 16.8933 114.638 17.24H106.898C106.951 17.9333 107.171 18.4667 107.558 18.84C107.958 19.2 108.444 19.38 109.018 19.38C109.871 19.38 110.464 19.02 110.798 18.3H114.438C114.251 19.0333 113.911 19.6933 113.418 20.28C112.938 20.8667 112.331 21.3267 111.598 21.66C110.864 21.9933 110.044 22.16 109.138 22.16C108.044 22.16 107.071 21.9267 106.218 21.46C105.364 20.9933 104.698 20.3267 104.218 19.46C103.738 18.5933 103.498 17.58 103.498 16.42C103.498 15.26 103.731 14.2467 104.198 13.38C104.678 12.5133 105.344 11.8467 106.198 11.38C107.051 10.9133 108.031 10.68 109.138 10.68C110.218 10.68 111.178 10.9067 112.018 11.36C112.858 11.8133 113.511 12.46 113.978 13.3C114.458 14.14 114.697 15.12 114.697 16.24ZM111.198 15.34C111.198 14.7533 110.998 14.2867 110.598 13.94C110.198 13.5933 109.698 13.42 109.098 13.42C108.524 13.42 108.038 13.5867 107.638 13.92C107.251 14.2533 107.011 14.7267 106.918 15.34H111.198ZM115.822 16.4C115.822 15.2533 116.035 14.2467 116.462 13.38C116.902 12.5133 117.495 11.8467 118.242 11.38C118.988 10.9133 119.822 10.68 120.742 10.68C121.475 10.68 122.142 10.8333 122.742 11.14C123.355 11.4467 123.835 11.86 124.182 12.38V7.2H127.602V22H124.182V20.4C123.862 20.9333 123.402 21.36 122.802 21.68C122.215 22 121.528 22.16 120.742 22.16C119.822 22.16 118.988 21.9267 118.242 21.46C117.495 20.98 116.902 20.3067 116.462 19.44C116.035 18.56 115.822 17.5467 115.822 16.4ZM124.182 16.42C124.182 15.5667 123.942 14.8933 123.462 14.4C122.995 13.9067 122.422 13.66 121.742 13.66C121.062 13.66 120.482 13.9067 120.002 14.4C119.535 14.88 119.302 15.5467 119.302 16.4C119.302 17.2533 119.535 17.9333 120.002 18.44C120.482 18.9333 121.062 19.18 121.742 19.18C122.422 19.18 122.995 18.9333 123.462 18.44C123.942 17.9467 124.182 17.2733 124.182 16.42ZM131.796 9.68C131.196 9.68 130.703 9.50667 130.316 9.16C129.943 8.8 129.756 8.36 129.756 7.84C129.756 7.30667 129.943 6.86667 130.316 6.52C130.703 6.16 131.196 5.98 131.796 5.98C132.383 5.98 132.863 6.16 133.236 6.52C133.623 6.86667 133.816 7.30667 133.816 7.84C133.816 8.36 133.623 8.8 133.236 9.16C132.863 9.50667 132.383 9.68 131.796 9.68ZM133.496 10.84V22H130.076V10.84H133.496ZM135.294 16.4C135.294 15.2533 135.508 14.2467 135.934 13.38C136.374 12.5133 136.968 11.8467 137.714 11.38C138.461 10.9133 139.294 10.68 140.214 10.68C140.948 10.68 141.614 10.8333 142.214 11.14C142.828 11.4467 143.308 11.86 143.654 12.38V7.2H147.074V22H143.654V20.4C143.334 20.9333 142.874 21.36 142.274 21.68C141.688 22 141.001 22.16 140.214 22.16C139.294 22.16 138.461 21.9267 137.714 21.46C136.968 20.98 136.374 20.3067 135.934 19.44C135.508 18.56 135.294 17.5467 135.294 16.4ZM143.654 16.42C143.654 15.5667 143.414 14.8933 142.934 14.4C142.468 13.9067 141.894 13.66 141.214 13.66C140.534 13.66 139.954 13.9067 139.474 14.4C139.008 14.88 138.774 15.5467 138.774 16.4C138.774 17.2533 139.008 17.9333 139.474 18.44C139.954 18.9333 140.534 19.18 141.214 19.18C141.894 19.18 142.468 18.9333 142.934 18.44C143.414 17.9467 143.654 17.2733 143.654 16.42ZM154.629 22.16C153.535 22.16 152.549 21.9267 151.669 21.46C150.802 20.9933 150.115 20.3267 149.609 19.46C149.115 18.5933 148.869 17.58 148.869 16.42C148.869 15.2733 149.122 14.2667 149.629 13.4C150.135 12.52 150.829 11.8467 151.709 11.38C152.589 10.9133 153.575 10.68 154.669 10.68C155.762 10.68 156.749 10.9133 157.629 11.38C158.509 11.8467 159.202 12.52 159.709 13.4C160.215 14.2667 160.469 15.2733 160.469 16.42C160.469 17.5667 160.209 18.58 159.689 19.46C159.182 20.3267 158.482 20.9933 157.589 21.46C156.709 21.9267 155.722 22.16 154.629 22.16ZM154.629 19.2C155.282 19.2 155.835 18.96 156.289 18.48C156.755 18 156.989 17.3133 156.989 16.42C156.989 15.5267 156.762 14.84 156.309 14.36C155.869 13.88 155.322 13.64 154.669 13.64C154.002 13.64 153.449 13.88 153.009 14.36C152.569 14.8267 152.349 15.5133 152.349 16.42C152.349 17.3133 152.562 18 152.989 18.48C153.429 18.96 153.975 19.2 154.629 19.2ZM166.823 22.16C165.85 22.16 164.983 21.9933 164.223 21.66C163.463 21.3267 162.863 20.8733 162.423 20.3C161.983 19.7133 161.736 19.06 161.683 18.34H165.063C165.103 18.7267 165.283 19.04 165.603 19.28C165.923 19.52 166.316 19.64 166.783 19.64C167.21 19.64 167.536 19.56 167.763 19.4C168.003 19.2267 168.123 19.0067 168.123 18.74C168.123 18.42 167.956 18.1867 167.623 18.04C167.29 17.88 166.75 17.7067 166.003 17.52C165.203 17.3333 164.536 17.14 164.003 16.94C163.47 16.7267 163.01 16.4 162.623 15.96C162.236 15.5067 162.043 14.9 162.043 14.14C162.043 13.5 162.216 12.92 162.563 12.4C162.923 11.8667 163.443 11.4467 164.123 11.14C164.816 10.8333 165.636 10.68 166.583 10.68C167.983 10.68 169.083 11.0267 169.883 11.72C170.696 12.4133 171.163 13.3333 171.283 14.48H168.123C168.07 14.0933 167.896 13.7867 167.603 13.56C167.323 13.3333 166.95 13.22 166.483 13.22C166.083 13.22 165.776 13.3 165.563 13.46C165.35 13.6067 165.243 13.8133 165.243 14.08C165.243 14.4 165.41 14.64 165.743 14.8C166.09 14.96 166.623 15.12 167.343 15.28C168.17 15.4933 168.843 15.7067 169.363 15.92C169.883 16.12 170.336 16.4533 170.723 16.92C171.123 17.3733 171.33 17.9867 171.343 18.76C171.343 19.4133 171.156 20 170.783 20.52C170.423 21.0267 169.896 21.4267 169.203 21.72C168.523 22.0133 167.73 22.16 166.823 22.16Z" fill="white"/>
<path d="M6.4576 6.84375C6.55768 6.35404 6.99465 6 7.50168 6H9.49644C10.0035 6 10.4404 6.35404 10.5405 6.84375L11.0242 9.15993C11.4945 9.35846 11.9348 9.61324 12.3351 9.91434L14.5967 9.16985C15.0771 9.01103 15.6041 9.20956 15.8576 9.64632L16.855 11.3603C17.1085 11.7971 17.0185 12.3463 16.6382 12.6805L14.8603 14.2489C14.8903 14.4937 14.9036 14.7452 14.9036 15C14.9036 15.2548 14.887 15.5063 14.8603 15.7511L16.6415 17.3228C17.0218 17.657 17.1085 18.2096 16.8584 18.643L15.861 20.357C15.6075 20.7904 15.0804 20.9923 14.6001 20.8335L12.3385 20.089C11.9348 20.3901 11.4945 20.6415 11.0275 20.8434L10.5472 23.1562C10.4438 23.6493 10.0068 24 9.50311 24H7.50836C7.00133 24 6.56435 23.646 6.46428 23.1562L5.98393 20.8434C5.5136 20.6449 5.07662 20.3901 4.673 20.089L2.40138 20.8335C1.92103 20.9923 1.39399 20.7938 1.14048 20.357L0.143097 18.643C-0.110418 18.2063 -0.0203533 17.657 0.359918 17.3228L2.14119 15.7511C2.11117 15.5063 2.09783 15.2548 2.09783 15C2.09783 14.7452 2.1145 14.4937 2.14119 14.2489L0.359918 12.6772C-0.0203533 12.343 -0.107082 11.7904 0.143097 11.357L1.14048 9.64302C1.39399 9.20625 1.92103 9.00772 2.40138 9.16654L4.66299 9.91103C5.06661 9.60993 5.50693 9.35846 5.97393 9.15662L6.4576 6.84375ZM8.49906 17.6471C9.97345 17.6404 11.1643 16.4526 11.1576 14.9901C11.151 13.5276 9.95343 12.3463 8.47905 12.3529C7.00466 12.3596 5.81381 13.5474 5.82048 15.0099C5.82715 16.4724 7.02468 17.6537 8.49906 17.6471Z" fill="white"/>
</svg>
