<svg width="174" height="30" viewBox="0 0 174 30" fill="none" xmlns="http://www.w3.org/2000/svg">
<path d="M43.48 10.72C44.8667 10.72 45.9667 11.14 46.78 11.98C47.6067 12.82 48.02 13.9867 48.02 15.48V22H44.62V15.94C44.62 15.22 44.4267 14.6667 44.04 14.28C43.6667 13.88 43.1467 13.68 42.48 13.68C41.8133 13.68 41.2867 13.88 40.9 14.28C40.5267 14.6667 40.34 15.22 40.34 15.94V22H36.94V15.94C36.94 15.22 36.7467 14.6667 36.36 14.28C35.9867 13.88 35.4667 13.68 34.8 13.68C34.1333 13.68 33.6067 13.88 33.22 14.28C32.8467 14.6667 32.66 15.22 32.66 15.94V22H29.24V10.84H32.66V12.24C33.0067 11.7733 33.46 11.4067 34.02 11.14C34.58 10.86 35.2133 10.72 35.92 10.72C36.76 10.72 37.5067 10.9 38.16 11.26C38.8267 11.62 39.3467 12.1333 39.72 12.8C40.1067 12.1867 40.6333 11.6867 41.3 11.3C41.9667 10.9133 42.6933 10.72 43.48 10.72ZM60.9319 16.24C60.9319 16.56 60.9119 16.8933 60.8719 17.24H53.1319C53.1852 17.9333 53.4052 18.4667 53.7919 18.84C54.1919 19.2 54.6785 19.38 55.2519 19.38C56.1052 19.38 56.6985 19.02 57.0319 18.3H60.6719C60.4852 19.0333 60.1452 19.6933 59.6519 20.28C59.1719 20.8667 58.5652 21.3267 57.8319 21.66C57.0985 21.9933 56.2785 22.16 55.3719 22.16C54.2785 22.16 53.3052 21.9267 52.4519 21.46C51.5985 20.9933 50.9319 20.3267 50.4519 19.46C49.9719 18.5933 49.7319 17.58 49.7319 16.42C49.7319 15.26 49.9652 14.2467 50.4319 13.38C50.9119 12.5133 51.5785 11.8467 52.4319 11.38C53.2852 10.9133 54.2652 10.68 55.3719 10.68C56.4519 10.68 57.4119 10.9067 58.2519 11.36C59.0919 11.8133 59.7452 12.46 60.2119 13.3C60.6919 14.14 60.9319 15.12 60.9319 16.24ZM57.4319 15.34C57.4319 14.7533 57.2319 14.2867 56.8319 13.94C56.4319 13.5933 55.9319 13.42 55.3319 13.42C54.7585 13.42 54.2719 13.5867 53.8719 13.92C53.4852 14.2533 53.2452 14.7267 53.1519 15.34H57.4319ZM73.7561 10.84V22H70.3361V20.48C69.9894 20.9733 69.5161 21.3733 68.9161 21.68C68.3294 21.9733 67.6761 22.12 66.9561 22.12C66.1028 22.12 65.3494 21.9333 64.6961 21.56C64.0428 21.1733 63.5361 20.62 63.1761 19.9C62.8161 19.18 62.6361 18.3333 62.6361 17.36V10.84H66.0361V16.9C66.0361 17.6467 66.2294 18.2267 66.6161 18.64C67.0028 19.0533 67.5228 19.26 68.1761 19.26C68.8428 19.26 69.3694 19.0533 69.7561 18.64C70.1428 18.2267 70.3361 17.6467 70.3361 16.9V10.84H73.7561ZM80.7527 22.16C79.7793 22.16 78.9127 21.9933 78.1527 21.66C77.3927 21.3267 76.7927 20.8733 76.3527 20.3C75.9127 19.7133 75.666 19.06 75.6127 18.34H78.9927C79.0327 18.7267 79.2127 19.04 79.5327 19.28C79.8527 19.52 80.246 19.64 80.7127 19.64C81.1393 19.64 81.466 19.56 81.6927 19.4C81.9327 19.2267 82.0527 19.0067 82.0527 18.74C82.0527 18.42 81.886 18.1867 81.5527 18.04C81.2193 17.88 80.6793 17.7067 79.9327 17.52C79.1327 17.3333 78.466 17.14 77.9327 16.94C77.3993 16.7267 76.9393 16.4 76.5527 15.96C76.166 15.5067 75.9727 14.9 75.9727 14.14C75.9727 13.5 76.146 12.92 76.4927 12.4C76.8527 11.8667 77.3727 11.4467 78.0527 11.14C78.746 10.8333 79.566 10.68 80.5127 10.68C81.9127 10.68 83.0127 11.0267 83.8127 11.72C84.626 12.4133 85.0927 13.3333 85.2127 14.48H82.0527C81.9993 14.0933 81.826 13.7867 81.5327 13.56C81.2527 13.3333 80.8793 13.22 80.4127 13.22C80.0127 13.22 79.706 13.3 79.4927 13.46C79.2793 13.6067 79.1727 13.8133 79.1727 14.08C79.1727 14.4 79.3393 14.64 79.6727 14.8C80.0193 14.96 80.5527 15.12 81.2727 15.28C82.0993 15.4933 82.7727 15.7067 83.2927 15.92C83.8127 16.12 84.266 16.4533 84.6527 16.92C85.0527 17.3733 85.2593 17.9867 85.2727 18.76C85.2727 19.4133 85.086 20 84.7127 20.52C84.3527 21.0267 83.826 21.4267 83.1327 21.72C82.4527 22.0133 81.6593 22.16 80.7527 22.16ZM95.0233 12.42C95.3566 11.9 95.8166 11.48 96.4033 11.16C96.9899 10.84 97.6766 10.68 98.4633 10.68C99.3833 10.68 100.217 10.9133 100.963 11.38C101.71 11.8467 102.297 12.5133 102.723 13.38C103.163 14.2467 103.383 15.2533 103.383 16.4C103.383 17.5467 103.163 18.56 102.723 19.44C102.297 20.3067 101.71 20.98 100.963 21.46C100.217 21.9267 99.3833 22.16 98.4633 22.16C97.6899 22.16 97.0033 22 96.4033 21.68C95.8166 21.36 95.3566 20.9467 95.0233 20.44V27.32H91.6033V10.84H95.0233V12.42ZM99.9033 16.4C99.9033 15.5467 99.6633 14.88 99.1833 14.4C98.7166 13.9067 98.1366 13.66 97.4433 13.66C96.7633 13.66 96.1833 13.9067 95.7033 14.4C95.2366 14.8933 95.0033 15.5667 95.0033 16.42C95.0033 17.2733 95.2366 17.9467 95.7033 18.44C96.1833 18.9333 96.7633 19.18 97.4433 19.18C98.1233 19.18 98.7033 18.9333 99.1833 18.44C99.6633 17.9333 99.9033 17.2533 99.9033 16.4ZM115.697 16.24C115.697 16.56 115.678 16.8933 115.638 17.24H107.898C107.951 17.9333 108.171 18.4667 108.558 18.84C108.958 19.2 109.444 19.38 110.018 19.38C110.871 19.38 111.464 19.02 111.798 18.3H115.438C115.251 19.0333 114.911 19.6933 114.418 20.28C113.938 20.8667 113.331 21.3267 112.598 21.66C111.864 21.9933 111.044 22.16 110.138 22.16C109.044 22.16 108.071 21.9267 107.218 21.46C106.364 20.9933 105.698 20.3267 105.218 19.46C104.738 18.5933 104.498 17.58 104.498 16.42C104.498 15.26 104.731 14.2467 105.198 13.38C105.678 12.5133 106.344 11.8467 107.198 11.38C108.051 10.9133 109.031 10.68 110.138 10.68C111.218 10.68 112.178 10.9067 113.018 11.36C113.858 11.8133 114.511 12.46 114.978 13.3C115.458 14.14 115.697 15.12 115.697 16.24ZM112.198 15.34C112.198 14.7533 111.998 14.2867 111.598 13.94C111.198 13.5933 110.698 13.42 110.098 13.42C109.524 13.42 109.038 13.5867 108.638 13.92C108.251 14.2533 108.011 14.7267 107.918 15.34H112.198ZM116.822 16.4C116.822 15.2533 117.035 14.2467 117.462 13.38C117.902 12.5133 118.495 11.8467 119.242 11.38C119.988 10.9133 120.822 10.68 121.742 10.68C122.475 10.68 123.142 10.8333 123.742 11.14C124.355 11.4467 124.835 11.86 125.182 12.38V7.2H128.602V22H125.182V20.4C124.862 20.9333 124.402 21.36 123.802 21.68C123.215 22 122.528 22.16 121.742 22.16C120.822 22.16 119.988 21.9267 119.242 21.46C118.495 20.98 117.902 20.3067 117.462 19.44C117.035 18.56 116.822 17.5467 116.822 16.4ZM125.182 16.42C125.182 15.5667 124.942 14.8933 124.462 14.4C123.995 13.9067 123.422 13.66 122.742 13.66C122.062 13.66 121.482 13.9067 121.002 14.4C120.535 14.88 120.302 15.5467 120.302 16.4C120.302 17.2533 120.535 17.9333 121.002 18.44C121.482 18.9333 122.062 19.18 122.742 19.18C123.422 19.18 123.995 18.9333 124.462 18.44C124.942 17.9467 125.182 17.2733 125.182 16.42ZM132.796 9.68C132.196 9.68 131.703 9.50667 131.316 9.16C130.943 8.8 130.756 8.36 130.756 7.84C130.756 7.30667 130.943 6.86667 131.316 6.52C131.703 6.16 132.196 5.98 132.796 5.98C133.383 5.98 133.863 6.16 134.236 6.52C134.623 6.86667 134.816 7.30667 134.816 7.84C134.816 8.36 134.623 8.8 134.236 9.16C133.863 9.50667 133.383 9.68 132.796 9.68ZM134.496 10.84V22H131.076V10.84H134.496ZM136.294 16.4C136.294 15.2533 136.508 14.2467 136.934 13.38C137.374 12.5133 137.968 11.8467 138.714 11.38C139.461 10.9133 140.294 10.68 141.214 10.68C141.948 10.68 142.614 10.8333 143.214 11.14C143.828 11.4467 144.308 11.86 144.654 12.38V7.2H148.074V22H144.654V20.4C144.334 20.9333 143.874 21.36 143.274 21.68C142.688 22 142.001 22.16 141.214 22.16C140.294 22.16 139.461 21.9267 138.714 21.46C137.968 20.98 137.374 20.3067 136.934 19.44C136.508 18.56 136.294 17.5467 136.294 16.4ZM144.654 16.42C144.654 15.5667 144.414 14.8933 143.934 14.4C143.468 13.9067 142.894 13.66 142.214 13.66C141.534 13.66 140.954 13.9067 140.474 14.4C140.008 14.88 139.774 15.5467 139.774 16.4C139.774 17.2533 140.008 17.9333 140.474 18.44C140.954 18.9333 141.534 19.18 142.214 19.18C142.894 19.18 143.468 18.9333 143.934 18.44C144.414 17.9467 144.654 17.2733 144.654 16.42ZM155.629 22.16C154.535 22.16 153.549 21.9267 152.669 21.46C151.802 20.9933 151.115 20.3267 150.609 19.46C150.115 18.5933 149.869 17.58 149.869 16.42C149.869 15.2733 150.122 14.2667 150.629 13.4C151.135 12.52 151.829 11.8467 152.709 11.38C153.589 10.9133 154.575 10.68 155.669 10.68C156.762 10.68 157.749 10.9133 158.629 11.38C159.509 11.8467 160.202 12.52 160.709 13.4C161.215 14.2667 161.469 15.2733 161.469 16.42C161.469 17.5667 161.209 18.58 160.689 19.46C160.182 20.3267 159.482 20.9933 158.589 21.46C157.709 21.9267 156.722 22.16 155.629 22.16ZM155.629 19.2C156.282 19.2 156.835 18.96 157.289 18.48C157.755 18 157.989 17.3133 157.989 16.42C157.989 15.5267 157.762 14.84 157.309 14.36C156.869 13.88 156.322 13.64 155.669 13.64C155.002 13.64 154.449 13.88 154.009 14.36C153.569 14.8267 153.349 15.5133 153.349 16.42C153.349 17.3133 153.562 18 153.989 18.48C154.429 18.96 154.975 19.2 155.629 19.2ZM167.823 22.16C166.85 22.16 165.983 21.9933 165.223 21.66C164.463 21.3267 163.863 20.8733 163.423 20.3C162.983 19.7133 162.736 19.06 162.683 18.34H166.063C166.103 18.7267 166.283 19.04 166.603 19.28C166.923 19.52 167.316 19.64 167.783 19.64C168.21 19.64 168.536 19.56 168.763 19.4C169.003 19.2267 169.123 19.0067 169.123 18.74C169.123 18.42 168.956 18.1867 168.623 18.04C168.29 17.88 167.75 17.7067 167.003 17.52C166.203 17.3333 165.536 17.14 165.003 16.94C164.47 16.7267 164.01 16.4 163.623 15.96C163.236 15.5067 163.043 14.9 163.043 14.14C163.043 13.5 163.216 12.92 163.563 12.4C163.923 11.8667 164.443 11.4467 165.123 11.14C165.816 10.8333 166.636 10.68 167.583 10.68C168.983 10.68 170.083 11.0267 170.883 11.72C171.696 12.4133 172.163 13.3333 172.283 14.48H169.123C169.07 14.0933 168.896 13.7867 168.603 13.56C168.323 13.3333 167.95 13.22 167.483 13.22C167.083 13.22 166.776 13.3 166.563 13.46C166.35 13.6067 166.243 13.8133 166.243 14.08C166.243 14.4 166.41 14.64 166.743 14.8C167.09 14.96 167.623 15.12 168.343 15.28C169.17 15.4933 169.843 15.7067 170.363 15.92C170.883 16.12 171.336 16.4533 171.723 16.92C172.123 17.3733 172.33 17.9867 172.343 18.76C172.343 19.4133 172.156 20 171.783 20.52C171.423 21.0267 170.896 21.4267 170.203 21.72C169.523 22.0133 168.73 22.16 167.823 22.16Z" fill="white"/>
<path d="M18.1135 14.2963C18.4635 14.7034 19.0657 14.793 19.52 14.4861C20.0146 14.148 20.1491 13.4616 19.8194 12.9546L18.2044 10.4711C18.1102 10.3262 17.9823 10.2055 17.8309 10.1193L11.0848 6.2768C10.4354 5.90773 9.64476 5.90773 8.99202 6.2768L2.24929 10.1158C2.0676 10.2193 1.92292 10.3711 1.82535 10.5573L0.193499 13.6582C-0.230445 14.4654 0.0656429 15.4691 0.852967 15.9037L1.9633 16.5142V18.3527C1.9633 19.146 2.38051 19.8807 3.05344 20.2739L8.97519 23.7128C9.63466 24.0957 10.4388 24.0957 11.0983 23.7128L17.02 20.2739C17.6963 19.8807 18.1102 19.1495 18.1102 18.3527V14.2998L18.1135 14.2963ZM10.0384 13.9583L4.9881 11.0816L10.0384 8.20494L15.0887 11.0816L10.0384 13.9583ZM8.64209 15.6899L7.92543 17.2834L2.34686 14.2205L3.20148 12.5924L8.64209 15.6899Z" fill="white"/>
</svg>
