<svg width="144" height="144" viewBox="0 0 144 144" fill="none" xmlns="http://www.w3.org/2000/svg">
<path d="M64.9228 18.1328C65.3017 17.303 66.0724 16.7642 66.9397 16.693C67.858 16.6178 68.7223 17.0391 69.2022 17.7496L69.2067 17.7562L76.4316 28.3727L76.4342 28.3769C77.7455 30.2956 80.3915 30.7546 82.2761 29.4058L82.2828 29.4013L92.6891 21.9015L92.8325 21.8046C93.5311 21.3677 94.4109 21.314 95.1599 21.6632C95.9588 22.0358 96.5023 22.8176 96.565 23.7021L96.5655 23.7091L97.5094 36.5015C97.6657 38.8592 99.7566 40.5569 102.057 40.322L102.057 40.323L114.806 39.0407C115.7 38.9607 116.568 39.3603 117.087 40.0933C117.559 40.759 117.661 41.624 117.349 42.4081L117.281 42.5638L111.712 54.0924L111.705 54.1077L111.698 54.1237C110.73 56.1995 111.605 58.7267 113.75 59.6892L113.75 59.6901L125.439 64.9479L125.445 64.9508C126.24 65.3062 126.794 66.0802 126.866 66.959C126.941 67.8773 126.52 68.7416 125.809 69.2214L125.802 69.2272L115.205 76.4451L115.202 76.4474C113.283 77.7586 112.824 80.4038 114.172 82.2884L114.177 82.295L121.677 92.7022L121.681 92.708C122.201 93.4258 122.287 94.3732 121.915 95.1721C121.542 95.9709 120.762 96.5149 119.877 96.5778L119.869 96.5787L107.077 97.5216L107.076 97.522C104.719 97.6789 103.022 99.7687 103.256 102.068L104.529 114.79C104.613 115.688 104.213 116.559 103.478 117.08C102.812 117.552 101.947 117.654 101.163 117.342L101.007 117.274L89.5005 111.7L89.4839 111.691L89.4676 111.683L89.2713 111.598C87.2345 110.771 84.8324 111.658 83.9002 113.736L78.6483 125.412C78.2694 126.242 77.4987 126.781 76.6314 126.852C75.7131 126.927 74.8488 126.506 74.3689 125.795L74.3641 125.788L67.1461 115.19L67.1439 115.187L67.0168 115.012C65.6677 113.242 63.1278 112.852 61.302 114.158L61.2953 114.163L50.8891 121.663L50.8833 121.667C50.1655 122.187 49.2172 122.273 48.4183 121.901C47.6195 121.528 47.0763 120.747 47.0135 119.863L47.0124 119.857L46.0764 107.084L46.0742 107.083C45.9184 104.722 43.8226 103.021 41.5178 103.262L28.7884 104.541L28.7893 104.541C27.8912 104.625 27.0187 104.226 26.4976 103.49C25.9967 102.783 25.9128 101.851 26.2994 101.03L31.8546 89.4955L31.8619 89.4814L31.8684 89.4676C32.8372 87.3899 31.9595 84.8585 29.811 83.8979L18.1389 78.6486L18.1398 78.6483C17.3101 78.2694 16.7712 77.4987 16.7001 76.6314C16.6248 75.7131 17.0462 74.8488 17.7566 74.3689L17.7633 74.3644L28.3797 67.1395L28.3839 67.1369C30.3026 65.8256 30.7617 63.1796 29.4128 61.295L29.4083 61.2883L21.9086 50.882L21.9044 50.8763L21.8116 50.7386C21.3748 50.04 21.321 49.1602 21.6702 48.4112C22.0428 47.6123 22.8246 47.0688 23.7091 47.0061L23.7202 47.0052L36.5055 46.042L36.5052 46.0411C38.8612 45.8828 40.557 43.7935 40.3217 41.4938L40.323 41.4944L39.0405 28.7369L39.0393 28.7279C38.9502 27.8751 39.3293 27.0231 40.0811 26.4906C40.7912 25.9876 41.728 25.905 42.5516 26.2971L54.0801 31.8657L54.0955 31.8736L54.1105 31.8806C56.1882 32.8495 58.7196 31.9717 59.6802 29.8233L59.679 29.8227L64.9228 18.1328Z" fill="url(#paint0_radial_119_2)" stroke="#FF0000" stroke-width="5"/>
<mask id="path-2-outside-1_119_2" maskUnits="userSpaceOnUse" x="31.2759" y="36.6549" width="73.8177" height="50.5085" fill="black">
<rect fill="white" x="31.2759" y="36.6549" width="73.8177" height="50.5085"/>
<path d="M35.5028 65.839L33.5995 60.6096L42.7098 57.2937L51.4484 81.3028L45.5941 83.4336L38.7589 64.6539L35.5028 65.839ZM65.2458 54.641L54.9843 58.3758L56.6363 62.9145C56.8993 62.2726 57.3695 61.6544 58.0472 61.0602C58.7248 60.4659 59.524 60.0012 60.4449 59.666C62.0894 59.0675 63.5845 58.9454 64.9302 59.2999C66.2978 59.6463 67.4493 60.3198 68.3845 61.3203C69.3198 62.3207 70.0388 63.5116 70.5416 64.893C71.4753 67.4583 71.4939 69.7608 70.5974 71.8004C69.693 73.8181 67.9252 75.3058 65.294 76.2635C63.5399 76.9019 61.9083 77.1605 60.3992 77.0394C58.8821 76.8963 57.5772 76.4152 56.4845 75.5962C55.3919 74.7772 54.5573 73.6781 53.9807 72.2987L59.4732 70.2996C59.8522 70.9315 60.3776 71.3858 61.0495 71.6627C61.7134 71.9177 62.4839 71.8856 63.3609 71.5663C64.3915 71.1913 65.0392 70.5831 65.3041 69.7417C65.569 68.9004 65.5019 67.9316 65.1029 66.8353C64.7118 65.7609 64.1494 65.0344 63.4157 64.6559C62.682 64.2773 61.8108 64.2716 60.8022 64.6387C60.0567 64.91 59.5106 65.3198 59.1639 65.8682C58.8092 66.3945 58.6629 66.9817 58.7249 67.6295L53.2982 69.6047L48.0909 55.2979L63.4502 49.7076L65.2458 54.641ZM69.6901 54.327C69.0437 52.551 69.0492 50.997 69.7067 49.6652C70.3861 48.3253 71.537 47.3601 73.1596 46.7696C74.7821 46.179 76.2732 46.1826 77.633 46.7802C78.9927 47.3779 79.9958 48.5647 80.6422 50.3407C81.2886 52.1168 81.2831 53.6707 80.6256 55.0025C79.9682 56.3344 78.8282 57.2956 77.2057 57.8862C75.5831 58.4767 74.081 58.4772 72.6993 57.8875C71.3396 57.2898 70.3365 56.103 69.6901 54.327ZM90.1305 41.0024L85.8955 68.7651L80.4688 70.7403L84.7038 42.9775L90.1305 41.0024ZM74.3237 50.0705C73.2713 50.4536 73.0204 51.4015 73.571 52.9144C74.1137 54.4054 74.9113 54.9594 75.9637 54.5763C76.468 54.3928 76.7949 54.0627 76.9442 53.5863C77.0936 53.1098 77.0326 52.4988 76.7613 51.7533C76.2106 50.2404 75.3981 49.6794 74.3237 50.0705ZM89.99 61.39C89.3436 59.6139 89.3491 58.06 90.0066 56.7281C90.664 55.3963 91.804 54.4351 93.4266 53.8445C95.0491 53.254 96.5403 53.2575 97.9 53.8552C99.2597 54.4528 100.263 55.6397 100.909 57.4157C101.556 59.1917 101.55 60.7456 100.893 62.0775C100.235 63.4093 99.0952 64.3705 97.4727 64.9611C95.8501 65.5517 94.359 65.5481 92.9993 64.9505C91.6395 64.3528 90.6364 63.166 89.99 61.39ZM94.5908 57.1454C94.0865 57.329 93.7596 57.659 93.6102 58.1355C93.4828 58.604 93.5587 59.222 93.8381 59.9894C94.3807 61.4804 95.1783 62.0343 96.2307 61.6513C96.735 61.4677 97.0619 61.1377 97.2113 60.6612C97.3606 60.1847 97.2996 59.5737 97.0283 58.8282C96.757 58.0827 96.411 57.5755 95.9902 57.3065C95.5616 57.0156 95.0951 56.9619 94.5908 57.1454Z"/>
</mask>
<path d="M35.5028 65.839L33.5995 60.6096L42.7098 57.2937L51.4484 81.3028L45.5941 83.4336L38.7589 64.6539L35.5028 65.839ZM65.2458 54.641L54.9843 58.3758L56.6363 62.9145C56.8993 62.2726 57.3695 61.6544 58.0472 61.0602C58.7248 60.4659 59.524 60.0012 60.4449 59.666C62.0894 59.0675 63.5845 58.9454 64.9302 59.2999C66.2978 59.6463 67.4493 60.3198 68.3845 61.3203C69.3198 62.3207 70.0388 63.5116 70.5416 64.893C71.4753 67.4583 71.4939 69.7608 70.5974 71.8004C69.693 73.8181 67.9252 75.3058 65.294 76.2635C63.5399 76.9019 61.9083 77.1605 60.3992 77.0394C58.8821 76.8963 57.5772 76.4152 56.4845 75.5962C55.3919 74.7772 54.5573 73.6781 53.9807 72.2987L59.4732 70.2996C59.8522 70.9315 60.3776 71.3858 61.0495 71.6627C61.7134 71.9177 62.4839 71.8856 63.3609 71.5663C64.3915 71.1913 65.0392 70.5831 65.3041 69.7417C65.569 68.9004 65.5019 67.9316 65.1029 66.8353C64.7118 65.7609 64.1494 65.0344 63.4157 64.6559C62.682 64.2773 61.8108 64.2716 60.8022 64.6387C60.0567 64.91 59.5106 65.3198 59.1639 65.8682C58.8092 66.3945 58.6629 66.9817 58.7249 67.6295L53.2982 69.6047L48.0909 55.2979L63.4502 49.7076L65.2458 54.641ZM69.6901 54.327C69.0437 52.551 69.0492 50.997 69.7067 49.6652C70.3861 48.3253 71.537 47.3601 73.1596 46.7696C74.7821 46.179 76.2732 46.1826 77.633 46.7802C78.9927 47.3779 79.9958 48.5647 80.6422 50.3407C81.2886 52.1168 81.2831 53.6707 80.6256 55.0025C79.9682 56.3344 78.8282 57.2956 77.2057 57.8862C75.5831 58.4767 74.081 58.4772 72.6993 57.8875C71.3396 57.2898 70.3365 56.103 69.6901 54.327ZM90.1305 41.0024L85.8955 68.7651L80.4688 70.7403L84.7038 42.9775L90.1305 41.0024ZM74.3237 50.0705C73.2713 50.4536 73.0204 51.4015 73.571 52.9144C74.1137 54.4054 74.9113 54.9594 75.9637 54.5763C76.468 54.3928 76.7949 54.0627 76.9442 53.5863C77.0936 53.1098 77.0326 52.4988 76.7613 51.7533C76.2106 50.2404 75.3981 49.6794 74.3237 50.0705ZM89.99 61.39C89.3436 59.6139 89.3491 58.06 90.0066 56.7281C90.664 55.3963 91.804 54.4351 93.4266 53.8445C95.0491 53.254 96.5403 53.2575 97.9 53.8552C99.2597 54.4528 100.263 55.6397 100.909 57.4157C101.556 59.1917 101.55 60.7456 100.893 62.0775C100.235 63.4093 99.0952 64.3705 97.4727 64.9611C95.8501 65.5517 94.359 65.5481 92.9993 64.9505C91.6395 64.3528 90.6364 63.166 89.99 61.39ZM94.5908 57.1454C94.0865 57.329 93.7596 57.659 93.6102 58.1355C93.4828 58.604 93.5587 59.222 93.8381 59.9894C94.3807 61.4804 95.1783 62.0343 96.2307 61.6513C96.735 61.4677 97.0619 61.1377 97.2113 60.6612C97.3606 60.1847 97.2996 59.5737 97.0283 58.8282C96.757 58.0827 96.411 57.5755 95.9902 57.3065C95.5616 57.0156 95.0951 56.9619 94.5908 57.1454Z" fill="url(#paint1_linear_119_2)"/>
<path d="M35.5028 65.839L34.5631 66.181L34.9052 67.1207L35.8449 66.7787L35.5028 65.839ZM33.5995 60.6096L33.2575 59.6699L32.3178 60.0119L32.6598 60.9516L33.5995 60.6096ZM42.7098 57.2937L43.6495 56.9517L43.3075 56.012L42.3678 56.354L42.7098 57.2937ZM51.4484 81.3028L51.7904 82.2425L52.7301 81.9005L52.3881 80.9608L51.4484 81.3028ZM45.5941 83.4336L44.6545 83.7757L44.9965 84.7153L45.9362 84.3733L45.5941 83.4336ZM38.7589 64.6539L39.6986 64.3119L39.3565 63.3722L38.4169 63.7142L38.7589 64.6539ZM35.5028 65.839L36.4425 65.497L34.5392 60.2676L33.5995 60.6096L32.6598 60.9516L34.5631 66.181L35.5028 65.839ZM33.5995 60.6096L33.9415 61.5493L43.0518 58.2334L42.7098 57.2937L42.3678 56.354L33.2575 59.6699L33.5995 60.6096ZM42.7098 57.2937L41.7701 57.6357L50.5087 81.6449L51.4484 81.3028L52.3881 80.9608L43.6495 56.9517L42.7098 57.2937ZM51.4484 81.3028L51.1064 80.3632L45.2521 82.4939L45.5941 83.4336L45.9362 84.3733L51.7904 82.2425L51.4484 81.3028ZM45.5941 83.4336L46.5338 83.0916L39.6986 64.3119L38.7589 64.6539L37.8192 64.9959L44.6545 83.7757L45.5941 83.4336ZM38.7589 64.6539L38.4169 63.7142L35.1608 64.8993L35.5028 65.839L35.8449 66.7787L39.1009 65.5936L38.7589 64.6539ZM65.2458 54.641L65.5878 55.5807L66.5275 55.2386L66.1855 54.2989L65.2458 54.641ZM54.9843 58.3758L54.6423 57.4361L53.7026 57.7781L54.0447 58.7178L54.9843 58.3758ZM56.6363 62.9145L55.6966 63.2566L56.5813 65.6872L57.5617 63.2936L56.6363 62.9145ZM58.0472 61.0602L57.3878 60.3083V60.3083L58.0472 61.0602ZM64.9302 59.2999L64.6755 60.2669L64.6846 60.2692L64.9302 59.2999ZM68.3845 61.3203L69.115 60.6374V60.6374L68.3845 61.3203ZM70.5974 71.8004L71.51 72.2095L71.5129 72.2028L70.5974 71.8004ZM60.3992 77.0394L60.3053 78.0351L60.3192 78.0362L60.3992 77.0394ZM56.4846 75.5962L55.8848 76.3964V76.3964L56.4846 75.5962ZM53.9807 72.2987L53.6387 71.359L52.6539 71.7175L53.0581 72.6844L53.9807 72.2987ZM59.4732 70.2996L60.3308 69.7853L59.9065 69.0778L59.1312 69.3599L59.4732 70.2996ZM61.0495 71.6627L60.6685 72.5873L60.6797 72.5919L60.691 72.5962L61.0495 71.6627ZM63.4157 64.6559L63.8742 63.7672L63.8742 63.7672L63.4157 64.6559ZM59.1639 65.8682L59.9932 66.427L60.0014 66.4149L60.0091 66.4026L59.1639 65.8682ZM58.7249 67.6295L59.0669 68.5692L59.794 68.3046L59.7203 67.5343L58.7249 67.6295ZM53.2982 69.6047L52.3585 69.9467L52.7005 70.8864L53.6402 70.5444L53.2982 69.6047ZM48.0909 55.2979L47.7489 54.3582L46.8092 54.7002L47.1512 55.6399L48.0909 55.2979ZM63.4502 49.7076L64.3899 49.3656L64.0479 48.4259L63.1082 48.7679L63.4502 49.7076ZM65.2458 54.641L64.9038 53.7013L54.6423 57.4361L54.9843 58.3758L55.3264 59.3155L65.5878 55.5807L65.2458 54.641ZM54.9843 58.3758L54.0447 58.7178L55.6966 63.2566L56.6363 62.9145L57.576 62.5725L55.924 58.0338L54.9843 58.3758ZM56.6363 62.9145L57.5617 63.2936C57.7511 62.831 58.1117 62.3337 58.7065 61.812L58.0472 61.0602L57.3878 60.3083C56.6274 60.9752 56.0474 61.7141 55.7109 62.5355L56.6363 62.9145ZM58.0472 61.0602L58.7065 61.812C59.2831 61.3064 59.9723 60.9022 60.7869 60.6057L60.4449 59.666L60.1029 58.7263C59.0757 59.1002 58.1665 59.6254 57.3878 60.3083L58.0472 61.0602ZM60.4449 59.666L60.7869 60.6057C62.2894 60.0588 63.5723 59.9763 64.6755 60.2669L64.9302 59.2999L65.1849 58.3328C63.5967 57.9145 61.8893 58.0761 60.1029 58.7263L60.4449 59.666ZM64.9302 59.2999L64.6846 60.2692C65.8724 60.5702 66.8537 61.1471 67.654 62.0032L68.3845 61.3203L69.115 60.6374C68.0448 59.4925 66.7233 58.7225 65.1758 58.3305L64.9302 59.2999ZM68.3845 61.3203L67.654 62.0032C68.4907 62.8982 69.1417 63.9708 69.6019 65.235L70.5416 64.893L71.4813 64.551C70.9358 63.0525 70.1489 61.7433 69.115 60.6374L68.3845 61.3203ZM70.5416 64.893L69.6019 65.235C70.4685 67.6159 70.4525 69.6449 69.6819 71.3981L70.5974 71.8004L71.5129 72.2028C72.5353 69.8767 72.4821 67.3007 71.4813 64.551L70.5416 64.893ZM70.5974 71.8004L69.6849 71.3914C68.9187 73.1006 67.4006 74.4326 64.952 75.3238L65.294 76.2635L65.636 77.2032C68.4498 76.179 70.4672 74.5356 71.5099 72.2095L70.5974 71.8004ZM65.294 76.2635L64.952 75.3238C63.3022 75.9242 61.8159 76.1499 60.4792 76.0426L60.3992 77.0394L60.3192 78.0362C62.0008 78.1712 63.7777 77.8795 65.636 77.2032L65.294 76.2635ZM60.3992 77.0394L60.4931 76.0438C59.1376 75.9159 58.013 75.4921 57.0843 74.7961L56.4846 75.5962L55.8848 76.3964C57.1415 77.3384 58.6267 77.8766 60.3053 78.035L60.3992 77.0394ZM56.4846 75.5962L57.0843 74.7961C56.1476 74.094 55.4179 73.144 54.9034 71.9131L53.9807 72.2987L53.0581 72.6844C53.6967 74.2121 54.6361 75.4605 55.8848 76.3964L56.4846 75.5962ZM53.9807 72.2987L54.3228 73.2384L59.8153 71.2393L59.4732 70.2996L59.1312 69.3599L53.6387 71.359L53.9807 72.2987ZM59.4732 70.2996L58.6157 70.814C59.1036 71.6275 59.7948 72.2272 60.6685 72.5873L61.0495 71.6627L61.4305 70.7382C60.9604 70.5444 60.6008 70.2354 60.3308 69.7853L59.4732 70.2996ZM61.0495 71.6627L60.691 72.5962C61.6426 72.9617 62.6713 72.8815 63.703 72.506L63.3609 71.5663L63.0189 70.6266C62.2964 70.8896 61.7843 70.8737 61.408 70.7292L61.0495 71.6627ZM63.3609 71.5663L63.703 72.506C64.9471 72.0532 65.877 71.2517 66.2579 70.042L65.3041 69.7417L64.3502 69.4414C64.2013 69.9144 63.8359 70.3293 63.0189 70.6266L63.3609 71.5663ZM65.3041 69.7417L66.2579 70.042C66.6074 68.932 66.4926 67.7297 66.0426 66.4932L65.1029 66.8353L64.1632 67.1773C64.5112 68.1335 64.5305 68.8687 64.3502 69.4414L65.3041 69.7417ZM65.1029 66.8353L66.0426 66.4932C65.5988 65.2742 64.905 64.299 63.8742 63.7672L63.4157 64.6559L62.9572 65.5445C63.3939 65.7698 63.8248 66.2476 64.1632 67.1773L65.1029 66.8353ZM63.4157 64.6559L63.8742 63.7672C62.8235 63.2251 61.648 63.2667 60.4602 63.699L60.8022 64.6387L61.1443 65.5784C61.9737 65.2765 62.5405 65.3295 62.9572 65.5445L63.4157 64.6559ZM60.8022 64.6387L60.4602 63.699C59.5543 64.0287 58.8082 64.5597 58.3187 65.3337L59.1639 65.8682L60.0091 66.4026C60.2131 66.08 60.5592 65.7913 61.1443 65.5784L60.8022 64.6387ZM59.1639 65.8682L58.3346 65.3094C57.8469 66.0332 57.646 66.8526 57.7294 67.7248L58.7249 67.6295L59.7203 67.5343C59.6798 67.1107 59.7716 66.7559 59.9932 66.427L59.1639 65.8682ZM58.7249 67.6295L58.3829 66.6899L52.9561 68.665L53.2982 69.6047L53.6402 70.5444L59.0669 68.5692L58.7249 67.6295ZM53.2982 69.6047L54.2379 69.2627L49.0306 54.9559L48.0909 55.2979L47.1512 55.6399L52.3585 69.9467L53.2982 69.6047ZM48.0909 55.2979L48.4329 56.2376L63.7922 50.6473L63.4502 49.7076L63.1082 48.7679L47.7489 54.3582L48.0909 55.2979ZM63.4502 49.7076L62.5105 50.0496L64.3061 54.983L65.2458 54.641L66.1855 54.2989L64.3899 49.3656L63.4502 49.7076ZM69.7067 49.6652L68.8147 49.2129L68.81 49.2225L69.7067 49.6652ZM77.633 46.7802L77.2306 47.6957V47.6957L77.633 46.7802ZM80.6256 55.0025L79.729 54.5599L79.729 54.5599L80.6256 55.0025ZM72.6993 57.8875L72.2969 58.803L72.3068 58.8072L72.6993 57.8875ZM90.1305 41.0024L91.1191 41.1532L91.3734 39.4858L89.7885 40.0627L90.1305 41.0024ZM85.8955 68.7651L86.2376 69.7048L86.7947 69.502L86.8841 68.9159L85.8955 68.7651ZM80.4688 70.7403L79.4803 70.5895L79.2259 72.2568L80.8108 71.68L80.4688 70.7403ZM84.7038 42.9775L84.3618 42.0378L83.8046 42.2406L83.7152 42.8267L84.7038 42.9775ZM76.9442 53.5863L75.99 53.2871V53.2871L76.9442 53.5863ZM90.0066 56.7281L89.1099 56.2855V56.2855L90.0066 56.7281ZM97.9 53.8552L98.3024 52.9397V52.9397L97.9 53.8552ZM100.893 62.0775L101.789 62.5201V62.5201L100.893 62.0775ZM92.9993 64.9505L92.5969 65.8659V65.8659L92.9993 64.9505ZM93.6102 58.1355L92.656 57.8364L92.6503 57.8546L92.6453 57.873L93.6102 58.1355ZM97.2113 60.6612L96.257 60.3621L96.257 60.3621L97.2113 60.6612ZM95.9902 57.3065L95.4287 58.1339L95.44 58.1416L95.4516 58.149L95.9902 57.3065ZM69.6901 54.327L70.6298 53.985C70.0498 52.3915 70.0976 51.1324 70.6034 50.1078L69.7067 49.6652L68.81 49.2225C68.0008 50.8616 68.0375 52.7104 68.7504 54.669L69.6901 54.327ZM69.7067 49.6652L70.5986 50.1174C71.146 49.0378 72.0793 48.227 73.5016 47.7093L73.1596 46.7696L72.8175 45.8299C70.9947 46.4933 69.6261 47.6128 68.8148 49.2129L69.7067 49.6652ZM73.1596 46.7696L73.5016 47.7093C74.9243 47.1914 76.1448 47.2185 77.2306 47.6957L77.633 46.7802L78.0354 45.8648C76.4017 45.1467 74.6398 45.1666 72.8175 45.8299L73.1596 46.7696ZM77.633 46.7802L77.2306 47.6957C78.2766 48.1555 79.1226 49.0893 79.7025 50.6828L80.6422 50.3407L81.5819 49.9987C80.869 48.0401 79.7088 46.6003 78.0354 45.8648L77.633 46.7802ZM80.6422 50.3407L79.7025 50.6828C80.2825 52.2762 80.2347 53.5353 79.729 54.5599L80.6256 55.0025L81.5223 55.4452C82.3315 53.8061 82.2948 51.9573 81.5819 49.9987L80.6422 50.3407ZM80.6256 55.0025L79.729 54.5599C79.2039 55.6235 78.2864 56.4286 76.8636 56.9465L77.2057 57.8862L77.5477 58.8259C79.37 58.1626 80.7324 57.0453 81.5223 55.4452L80.6256 55.0025ZM77.2057 57.8862L76.8636 56.9465C75.4413 57.4641 74.2052 57.4429 73.0919 56.9677L72.6993 57.8875L72.3068 58.8072C73.9569 59.5114 75.7249 59.4893 77.5477 58.8259L77.2057 57.8862ZM72.6993 57.8875L73.1017 56.972C72.0557 56.5122 71.2098 55.5784 70.6298 53.985L69.6901 54.327L68.7504 54.669C69.4633 56.6276 70.6235 58.0674 72.297 58.803L72.6993 57.8875ZM90.1305 41.0024L89.142 40.8516L84.907 68.6143L85.8955 68.7651L86.8841 68.9159L91.1191 41.1532L90.1305 41.0024ZM85.8955 68.7651L85.5535 67.8254L80.1268 69.8006L80.4688 70.7403L80.8108 71.68L86.2376 69.7048L85.8955 68.7651ZM80.4688 70.7403L81.4574 70.8911L85.6924 43.1283L84.7038 42.9775L83.7152 42.8267L79.4803 70.5895L80.4688 70.7403ZM84.7038 42.9775L85.0458 43.9172L90.4725 41.9421L90.1305 41.0024L89.7885 40.0627L84.3618 42.0378L84.7038 42.9775ZM74.3237 50.0705L73.9817 49.1308C73.1985 49.4159 72.6016 49.9738 72.3795 50.8129C72.1779 51.5745 72.3269 52.42 72.6313 53.2565L73.571 52.9144L74.5107 52.5724C74.2645 51.896 74.2636 51.5111 74.3129 51.3246C74.3417 51.2158 74.3965 51.1082 74.6658 51.0102L74.3237 50.0705ZM73.571 52.9144L72.6313 53.2565C72.9325 54.0839 73.3604 54.8212 74.0057 55.2695C74.7153 55.7623 75.5281 55.7991 76.3057 55.516L75.9637 54.5763L75.6217 53.6366C75.3469 53.7366 75.2347 53.688 75.1467 53.6268C74.9945 53.5211 74.7522 53.236 74.5107 52.5724L73.571 52.9144ZM75.9637 54.5763L76.3057 55.516C77.0774 55.2351 77.6481 54.6839 77.8984 53.8854L76.9442 53.5863L75.99 53.2871C75.9416 53.4416 75.8586 53.5504 75.6217 53.6366L75.9637 54.5763ZM76.9442 53.5863L77.8984 53.8854C78.1421 53.108 78.0063 52.25 77.701 51.4113L76.7613 51.7533L75.8216 52.0953C76.059 52.7475 76.0451 53.1115 75.99 53.2871L76.9442 53.5863ZM76.7613 51.7533L77.701 51.4113C77.3955 50.5721 76.9613 49.8267 76.307 49.375C75.5893 48.8794 74.7681 48.8446 73.9817 49.1308L74.3237 50.0705L74.6658 51.0102C74.9538 50.9053 75.076 50.9554 75.1708 51.0208C75.329 51.1301 75.5764 51.4216 75.8216 52.0953L76.7613 51.7533ZM89.99 61.39L90.9297 61.0479C90.3497 59.4545 90.3975 58.1954 90.9033 57.1708L90.0066 56.7281L89.1099 56.2855C88.3007 57.9246 88.3375 59.7734 89.0503 61.732L89.99 61.39ZM90.0066 56.7281L90.9033 57.1708C91.4283 56.1072 92.3458 55.3021 93.7686 54.7842L93.4266 53.8445L93.0846 52.9048C91.2622 53.5681 89.8998 54.6854 89.1099 56.2855L90.0066 56.7281ZM93.4266 53.8445L93.7686 54.7842C95.1914 54.2664 96.4118 54.2934 97.4976 54.7706L97.9 53.8552L98.3024 52.9397C96.6687 52.2217 94.9069 52.2416 93.0846 52.9048L93.4266 53.8445ZM97.9 53.8552L97.4976 54.7706C98.5437 55.2304 99.3896 56.1643 99.9696 57.7577L100.909 57.4157L101.849 57.0737C101.136 55.1151 99.9758 53.6752 98.3024 52.9397L97.9 53.8552ZM100.909 57.4157L99.9696 57.7577C100.55 59.3511 100.502 60.6103 99.996 61.6348L100.893 62.0775L101.789 62.5201C102.599 60.881 102.562 59.0322 101.849 57.0737L100.909 57.4157ZM100.893 62.0775L99.996 61.6348C99.471 62.6984 98.5534 63.5036 97.1307 64.0214L97.4727 64.9611L97.8147 65.9008C99.637 65.2375 100.999 64.1203 101.789 62.5201L100.893 62.0775ZM97.4727 64.9611L97.1307 64.0214C95.7079 64.5392 94.4875 64.5122 93.4016 64.035L92.9993 64.9505L92.5969 65.8659C94.2305 66.584 95.9924 66.5641 97.8147 65.9008L97.4727 64.9611ZM92.9993 64.9505L93.4016 64.035C92.3556 63.5752 91.5097 62.6414 90.9297 61.0479L89.99 61.39L89.0503 61.732C89.7632 63.6906 90.9234 65.1304 92.5969 65.8659L92.9993 64.9505ZM94.5908 57.1454L94.2487 56.2057C93.4771 56.4866 92.9064 57.0379 92.656 57.8364L93.6102 58.1355L94.5645 58.4346C94.6129 58.2801 94.6958 58.1714 94.9328 58.0851L94.5908 57.1454ZM93.6102 58.1355L92.6453 57.873C92.4379 58.6356 92.5918 59.4891 92.8984 60.3314L93.8381 59.9894L94.7777 59.6474C94.5257 58.9548 94.5277 58.5724 94.5752 58.398L93.6102 58.1355ZM93.8381 59.9894L92.8984 60.3314C93.1995 61.1588 93.6274 61.8961 94.2728 62.3444C94.9823 62.8372 95.7951 62.874 96.5728 62.5909L96.2307 61.6513L95.8887 60.7116C95.6139 60.8116 95.5017 60.7629 95.4137 60.7018C95.2615 60.5961 95.0193 60.3109 94.7777 59.6474L93.8381 59.9894ZM96.2307 61.6513L96.5728 62.5909C97.3444 62.3101 97.9152 61.7588 98.1655 60.9603L97.2113 60.6612L96.257 60.3621C96.2086 60.5165 96.1257 60.6253 95.8887 60.7116L96.2307 61.6513ZM97.2113 60.6612L98.1655 60.9603C98.4092 60.1829 98.2733 59.325 97.968 58.4862L97.0283 58.8282L96.0886 59.1702C96.326 59.8225 96.3121 60.1865 96.257 60.3621L97.2113 60.6612ZM97.0283 58.8282L97.968 58.4862C97.6627 57.6475 97.2153 56.9029 96.5289 56.464L95.9902 57.3065L95.4516 58.149C95.6066 58.2481 95.8512 58.518 96.0886 59.1702L97.0283 58.8282ZM95.9902 57.3065L96.5518 56.479C95.8463 56.0003 95.042 55.917 94.2487 56.2057L94.5908 57.1454L94.9328 58.0851C95.1481 58.0067 95.2768 58.0308 95.4287 58.1339L95.9902 57.3065Z" fill="black" mask="url(#path-2-outside-1_119_2)"/>
<mask id="path-4-outside-2_119_2" maskUnits="userSpaceOnUse" x="52.3015" y="72.3666" width="51.348" height="35.8085" fill="black">
<rect fill="white" x="52.3015" y="72.3666" width="51.348" height="35.8085"/>
<path d="M68.6827 102.877C67.1943 103.419 65.7002 103.571 64.2006 103.334C62.716 103.091 61.3809 102.487 60.1955 101.523C59.0196 100.537 58.1498 99.2704 57.5862 97.7218C57.0225 96.1731 56.8772 94.6511 57.1502 93.1555C57.4381 91.6545 58.0727 90.3338 59.0539 89.1935C60.05 88.0477 61.2924 87.2039 62.7808 86.6621C64.2693 86.1203 65.7559 85.9709 67.2405 86.2138C68.7401 86.4512 70.0676 87.0577 71.223 88.0334C72.3934 89.0036 73.2604 90.263 73.8241 91.8117C74.3877 93.3603 74.5358 94.8899 74.2683 96.4004C73.9954 97.896 73.3683 99.2139 72.3872 100.354C71.406 101.495 70.1712 102.336 68.6827 102.877ZM67.4022 99.3592C68.6652 98.8996 69.5193 98.1119 69.9646 96.9964C70.4249 95.8753 70.4034 94.6232 69.8999 93.2399C69.391 91.8417 68.6027 90.8686 67.5349 90.3208C66.4767 89.7524 65.3161 89.6981 64.0532 90.1578C62.7752 90.6229 61.9033 91.4085 61.4375 92.5145C60.9867 93.6151 61.0185 94.872 61.5329 96.2853C62.0418 97.6835 62.8254 98.6668 63.8836 99.2352C64.9514 99.783 66.1242 99.8244 67.4022 99.3592ZM83.4114 79.4086L84.5359 82.4983L78.0859 84.846L79.3007 88.1837L84.127 86.4271L85.2187 89.4266L80.3925 91.1832L82.7237 97.5882L78.8672 98.9918L73.1048 83.1599L83.4114 79.4086ZM95.7448 74.9196L96.8694 78.0093L90.4193 80.3569L91.6342 83.6947L96.4605 81.9381L97.5522 84.9376L92.7259 86.6942L95.0571 93.0992L91.2006 94.5028L85.4383 78.6709L95.7448 74.9196Z"/>
</mask>
<path d="M68.6827 102.877C67.1943 103.419 65.7002 103.571 64.2006 103.334C62.716 103.091 61.3809 102.487 60.1955 101.523C59.0196 100.537 58.1498 99.2704 57.5862 97.7218C57.0225 96.1731 56.8772 94.6511 57.1502 93.1555C57.4381 91.6545 58.0727 90.3338 59.0539 89.1935C60.05 88.0477 61.2924 87.2039 62.7808 86.6621C64.2693 86.1203 65.7559 85.9709 67.2405 86.2138C68.7401 86.4512 70.0676 87.0577 71.223 88.0334C72.3934 89.0036 73.2604 90.263 73.8241 91.8117C74.3877 93.3603 74.5358 94.8899 74.2683 96.4004C73.9954 97.896 73.3683 99.2139 72.3872 100.354C71.406 101.495 70.1712 102.336 68.6827 102.877ZM67.4022 99.3592C68.6652 98.8996 69.5193 98.1119 69.9646 96.9964C70.4249 95.8753 70.4034 94.6232 69.8999 93.2399C69.391 91.8417 68.6027 90.8686 67.5349 90.3208C66.4767 89.7524 65.3161 89.6981 64.0532 90.1578C62.7752 90.6229 61.9033 91.4085 61.4375 92.5145C60.9867 93.6151 61.0185 94.872 61.5329 96.2853C62.0418 97.6835 62.8254 98.6668 63.8836 99.2352C64.9514 99.783 66.1242 99.8244 67.4022 99.3592ZM83.4114 79.4086L84.5359 82.4983L78.0859 84.846L79.3007 88.1837L84.127 86.4271L85.2187 89.4266L80.3925 91.1832L82.7237 97.5882L78.8672 98.9918L73.1048 83.1599L83.4114 79.4086ZM95.7448 74.9196L96.8694 78.0093L90.4193 80.3569L91.6342 83.6947L96.4605 81.9381L97.5522 84.9376L92.7259 86.6942L95.0571 93.0992L91.2006 94.5028L85.4383 78.6709L95.7448 74.9196Z" fill="url(#paint2_linear_119_2)"/>
<path d="M64.2006 103.334L64.0391 104.321L64.0442 104.322L64.2006 103.334ZM60.1955 101.523L59.5533 102.289L59.5587 102.294L59.5643 102.298L60.1955 101.523ZM57.1502 93.1555L56.168 92.9671L56.1664 92.976L57.1502 93.1555ZM59.0539 89.1935L58.2992 88.5374L58.2958 88.5413L59.0539 89.1935ZM67.2405 86.2138L67.079 87.2007L67.0841 87.2015L67.2405 86.2138ZM71.223 88.0334L70.5778 88.7975L70.5848 88.8033L71.223 88.0334ZM74.2683 96.4005L75.2521 96.58L75.253 96.5748L74.2683 96.4005ZM72.3872 100.354L73.1452 101.007L73.1452 101.007L72.3872 100.354ZM69.9646 96.9964L69.0395 96.6165L69.0359 96.6256L69.9646 96.9964ZM67.5349 90.3208L67.0617 91.2018L67.07 91.2062L67.0784 91.2105L67.5349 90.3208ZM61.4375 92.5145L60.5158 92.1264L60.5121 92.1355L61.4375 92.5145ZM63.8836 99.2352L63.4104 100.116L63.4187 100.121L63.4271 100.125L63.8836 99.2352ZM68.6827 102.877L68.3407 101.938C67.0045 102.424 65.6817 102.556 64.3569 102.346L64.2006 103.334L64.0442 104.322C65.7187 104.587 67.3841 104.414 69.0248 103.817L68.6827 102.877ZM64.2006 103.334L64.362 102.347C63.0526 102.133 61.879 101.603 60.8267 100.747L60.1955 101.523L59.5643 102.298C60.8829 103.371 62.3793 104.049 64.0391 104.321L64.2006 103.334ZM60.1955 101.523L60.8377 100.756C59.8066 99.8921 59.034 98.7759 58.5259 97.3797L57.5862 97.7218L56.6465 98.0638C57.2657 99.7649 58.2327 101.183 59.5533 102.289L60.1955 101.523ZM57.5862 97.7218L58.5259 97.3797C58.0177 95.9835 57.8955 94.6414 58.1339 93.3351L57.1502 93.1555L56.1664 92.976C55.8589 94.6608 56.0274 96.3628 56.6465 98.0638L57.5862 97.7218ZM57.1502 93.1555L58.1322 93.3439C58.3879 92.0116 58.9465 90.8514 59.8119 89.8457L59.0539 89.1935L58.2958 88.5413C57.1989 89.8162 56.4884 91.2974 56.1681 92.9671L57.1502 93.1555ZM59.0539 89.1935L59.8085 89.8496C60.6885 88.8374 61.7866 88.0882 63.1229 87.6018L62.7808 86.6621L62.4388 85.7224C60.7981 86.3196 59.4116 87.2579 58.2992 88.5374L59.0539 89.1935ZM62.7808 86.6621L63.1229 87.6018C64.4592 87.1154 65.7725 86.9869 67.079 87.2007L67.2405 86.2138L67.4019 85.2269C65.7392 84.9549 64.0795 85.1253 62.4388 85.7224L62.7808 86.6621ZM67.2405 86.2138L67.0841 87.2015C68.4042 87.4105 69.5625 87.94 70.5778 88.7974L71.223 88.0334L71.8682 87.2694C70.5727 86.1754 69.076 85.4919 67.3968 85.2261L67.2405 86.2138ZM71.223 88.0334L70.5848 88.8033C71.6071 89.6507 72.3762 90.7574 72.8844 92.1537L73.8241 91.8117L74.7638 91.4696C74.1447 89.7686 73.1797 88.3565 71.8612 87.2635L71.223 88.0334ZM73.8241 91.8117L72.8844 92.1537C73.3925 93.5498 73.5182 94.9014 73.2837 96.2261L74.2683 96.4005L75.253 96.5748C75.5534 94.8783 75.3829 93.1707 74.7638 91.4696L73.8241 91.8117ZM74.2683 96.4005L73.2846 96.2209C73.0432 97.5436 72.4931 98.6979 71.6291 99.7021L72.3872 100.354L73.1452 101.007C74.2435 99.73 74.9476 98.2484 75.2521 96.58L74.2683 96.4005ZM72.3872 100.354L71.6291 99.7021C70.7657 100.706 69.677 101.451 68.3407 101.938L68.6827 102.877L69.0248 103.817C70.6654 103.22 72.0463 102.284 73.1452 101.007L72.3872 100.354ZM67.4022 99.3592L67.7442 100.299C69.2394 99.7547 70.3292 98.7803 70.8933 97.3671L69.9646 96.9964L69.0359 96.6256C68.7094 97.4435 68.0909 98.0444 67.0602 98.4195L67.4022 99.3592ZM69.9646 96.9964L70.8896 97.3762C71.464 95.9776 71.409 94.4624 70.8396 92.8979L69.8999 93.2399L68.9602 93.582C69.3977 94.7839 69.3859 95.773 69.0396 96.6165L69.9646 96.9964ZM69.8999 93.2399L70.8396 92.8979C70.2661 91.3222 69.3341 90.12 67.9914 89.431L67.5349 90.3208L67.0784 91.2105C67.8712 91.6173 68.5159 92.3611 68.9602 93.582L69.8999 93.2399ZM67.5349 90.3208L68.008 89.4398C66.6675 88.7198 65.2063 88.6739 63.7111 89.2181L64.0532 90.1578L64.3952 91.0975C65.4259 90.7223 66.2859 90.7851 67.0617 91.2018L67.5349 90.3208ZM64.0532 90.1578L63.7111 89.2181C62.2101 89.7644 61.1046 90.7285 60.5159 92.1264L61.4375 92.5145L62.3591 92.9027C62.702 92.0885 63.3403 91.4814 64.3952 91.0975L64.0532 90.1578ZM61.4375 92.5145L60.5121 92.1355C59.944 93.5224 60.0171 95.0444 60.5932 96.6273L61.5329 96.2853L62.4726 95.9433C62.0199 94.6996 62.0294 93.7077 62.3629 92.8935L61.4375 92.5145ZM61.5329 96.2853L60.5932 96.6273C61.1653 98.199 62.0874 99.4056 63.4104 100.116L63.8836 99.2352L64.3568 98.3542C63.5634 97.9281 62.9184 97.1681 62.4726 95.9433L61.5329 96.2853ZM63.8836 99.2352L63.4271 100.125C64.7767 100.817 66.2432 100.845 67.7442 100.299L67.4022 99.3592L67.0602 98.4195C66.0053 98.8035 65.1261 98.7487 64.3401 98.3455L63.8836 99.2352ZM83.4114 79.4086L84.3511 79.0666L84.009 78.1269L83.0693 78.4689L83.4114 79.4086ZM84.5359 82.4983L84.878 83.438L85.8176 83.096L85.4756 82.1563L84.5359 82.4983ZM78.0859 84.846L77.7439 83.9063L76.8042 84.2483L77.1462 85.188L78.0859 84.846ZM79.3007 88.1837L78.361 88.5258L78.7031 89.4655L79.6428 89.1234L79.3007 88.1837ZM84.127 86.4271L85.0667 86.0851L84.7247 85.1454L83.785 85.4874L84.127 86.4271ZM85.2187 89.4266L85.5607 90.3663L86.5004 90.0243L86.1584 89.0846L85.2187 89.4266ZM80.3925 91.1832L80.0504 90.2435L79.1107 90.5856L79.4528 91.5253L80.3925 91.1832ZM82.7237 97.5882L83.0657 98.5279L84.0054 98.1859L83.6634 97.2462L82.7237 97.5882ZM78.8672 98.9918L77.9275 99.3339L78.2695 100.274L79.2092 99.9315L78.8672 98.9918ZM73.1048 83.1599L72.7628 82.2202L71.8231 82.5622L72.1651 83.5019L73.1048 83.1599ZM83.4114 79.4086L82.4717 79.7506L83.5962 82.8403L84.5359 82.4983L85.4756 82.1563L84.3511 79.0666L83.4114 79.4086ZM84.5359 82.4983L84.1939 81.5586L77.7439 83.9063L78.0859 84.846L78.4279 85.7856L84.878 83.438L84.5359 82.4983ZM78.0859 84.846L77.1462 85.188L78.361 88.5258L79.3007 88.1837L80.2404 87.8417L79.0256 84.5039L78.0859 84.846ZM79.3007 88.1837L79.6428 89.1234L84.469 87.3668L84.127 86.4271L83.785 85.4874L78.9587 87.244L79.3007 88.1837ZM84.127 86.4271L83.1873 86.7691L84.279 89.7686L85.2187 89.4266L86.1584 89.0846L85.0667 86.0851L84.127 86.4271ZM85.2187 89.4266L84.8767 88.4869L80.0504 90.2435L80.3925 91.1832L80.7345 92.1229L85.5607 90.3663L85.2187 89.4266ZM80.3925 91.1832L79.4528 91.5253L81.784 97.9302L82.7237 97.5882L83.6634 97.2462L81.3322 90.8412L80.3925 91.1832ZM82.7237 97.5882L82.3817 96.6485L78.5252 98.0521L78.8672 98.9918L79.2092 99.9315L83.0657 98.5279L82.7237 97.5882ZM78.8672 98.9918L79.8069 98.6498L74.0445 82.8179L73.1048 83.1599L72.1651 83.5019L77.9275 99.3339L78.8672 98.9918ZM73.1048 83.1599L73.4468 84.0996L83.7534 80.3483L83.4114 79.4086L83.0693 78.4689L72.7628 82.2202L73.1048 83.1599ZM95.7448 74.9196L96.6845 74.5776L96.3425 73.6379L95.4028 73.9799L95.7448 74.9196ZM96.8694 78.0093L97.2114 78.949L98.1511 78.607L97.8091 77.6673L96.8694 78.0093ZM90.4193 80.3569L90.0773 79.4172L89.1376 79.7593L89.4797 80.699L90.4193 80.3569ZM91.6342 83.6947L90.6945 84.0367L91.0365 84.9764L91.9762 84.6344L91.6342 83.6947ZM96.4605 81.9381L97.4002 81.5961L97.0581 80.6564L96.1184 80.9984L96.4605 81.9381ZM97.5522 84.9376L97.8942 85.8773L98.8339 85.5353L98.4919 84.5956L97.5522 84.9376ZM92.7259 86.6942L92.3839 85.7545L91.4442 86.0966L91.7862 87.0362L92.7259 86.6942ZM95.0571 93.0992L95.3992 94.0389L96.3389 93.6968L95.9968 92.7571L95.0571 93.0992ZM91.2006 94.5028L90.2609 94.8448L90.603 95.7845L91.5427 95.4425L91.2006 94.5028ZM85.4383 78.6709L85.0963 77.7312L84.1566 78.0732L84.4986 79.0129L85.4383 78.6709ZM95.7448 74.9196L94.8051 75.2616L95.9297 78.3513L96.8694 78.0093L97.8091 77.6673L96.6845 74.5776L95.7448 74.9196ZM96.8694 78.0093L96.5274 77.0696L90.0773 79.4172L90.4193 80.3569L90.7614 81.2966L97.2114 78.949L96.8694 78.0093ZM90.4193 80.3569L89.4797 80.699L90.6945 84.0367L91.6342 83.6947L92.5739 83.3527L91.359 80.0149L90.4193 80.3569ZM91.6342 83.6947L91.9762 84.6344L96.8025 82.8778L96.4605 81.9381L96.1184 80.9984L91.2922 82.755L91.6342 83.6947ZM96.4605 81.9381L95.5208 82.2801L96.6125 85.2796L97.5522 84.9376L98.4919 84.5956L97.4002 81.5961L96.4605 81.9381ZM97.5522 84.9376L97.2102 83.9979L92.3839 85.7545L92.7259 86.6942L93.0679 87.6339L97.8942 85.8773L97.5522 84.9376ZM92.7259 86.6942L91.7862 87.0362L94.1174 93.4412L95.0571 93.0992L95.9968 92.7571L93.6656 86.3522L92.7259 86.6942ZM95.0571 93.0992L94.7151 92.1595L90.8586 93.5631L91.2006 94.5028L91.5427 95.4425L95.3992 94.0389L95.0571 93.0992ZM91.2006 94.5028L92.1403 94.1608L86.378 78.3289L85.4383 78.6709L84.4986 79.0129L90.2609 94.8448L91.2006 94.5028ZM85.4383 78.6709L85.7803 79.6106L96.0869 75.8593L95.7448 74.9196L95.4028 73.9799L85.0963 77.7312L85.4383 78.6709Z" fill="black" mask="url(#path-4-outside-2_119_2)"/>
<defs>
<radialGradient id="paint0_radial_119_2" cx="0" cy="0" r="1" gradientUnits="userSpaceOnUse" gradientTransform="translate(71.7759 71.7759) rotate(70) scale(56)">
<stop stop-color="#FF9706"/>
<stop offset="1" stop-color="#FFC800"/>
</radialGradient>
<linearGradient id="paint1_linear_119_2" x1="63.5" y1="48" x2="74" y2="78.5" gradientUnits="userSpaceOnUse">
<stop stop-color="#FF0000"/>
<stop offset="1" stop-color="#990000"/>
</linearGradient>
<linearGradient id="paint2_linear_119_2" x1="74" y1="79.5" x2="82" y2="100.5" gradientUnits="userSpaceOnUse">
<stop stop-color="#FF0000"/>
<stop offset="1" stop-color="#990000"/>
</linearGradient>
</defs>
</svg>
