<svg width="116" height="30" viewBox="0 0 116 30" fill="none" xmlns="http://www.w3.org/2000/svg">
<path d="M29.66 12.7C30.06 12.0867 30.56 11.6067 31.16 11.26C31.76 10.9 32.4267 10.72 33.16 10.72V14.34H32.22C31.3667 14.34 30.7267 14.5267 30.3 14.9C29.8733 15.26 29.66 15.9 29.66 16.82V22H26.24V10.84H29.66V12.7ZM45.3147 16.24C45.3147 16.56 45.2947 16.8933 45.2547 17.24H37.5147C37.568 17.9333 37.788 18.4667 38.1747 18.84C38.5747 19.2 39.0614 19.38 39.6347 19.38C40.488 19.38 41.0814 19.02 41.4147 18.3H45.0547C44.868 19.0333 44.528 19.6933 44.0347 20.28C43.5547 20.8667 42.948 21.3267 42.2147 21.66C41.4814 21.9933 40.6614 22.16 39.7547 22.16C38.6614 22.16 37.688 21.9267 36.8347 21.46C35.9814 20.9933 35.3147 20.3267 34.8347 19.46C34.3547 18.5933 34.1147 17.58 34.1147 16.42C34.1147 15.26 34.348 14.2467 34.8147 13.38C35.2947 12.5133 35.9614 11.8467 36.8147 11.38C37.668 10.9133 38.648 10.68 39.7547 10.68C40.8347 10.68 41.7947 10.9067 42.6347 11.36C43.4747 11.8133 44.128 12.46 44.5947 13.3C45.0747 14.14 45.3147 15.12 45.3147 16.24ZM41.8147 15.34C41.8147 14.7533 41.6147 14.2867 41.2147 13.94C40.8147 13.5933 40.3147 13.42 39.7147 13.42C39.1414 13.42 38.6547 13.5867 38.2547 13.92C37.868 14.2533 37.628 14.7267 37.5347 15.34H41.8147ZM51.3589 10.68C52.1456 10.68 52.8322 10.84 53.4189 11.16C54.0189 11.48 54.4789 11.9 54.7989 12.42V10.84H58.2189V21.98C58.2189 23.0067 58.0122 23.9333 57.5989 24.76C57.1989 25.6 56.5789 26.2667 55.7389 26.76C54.9122 27.2533 53.8789 27.5 52.6389 27.5C50.9856 27.5 49.6456 27.1067 48.6189 26.32C47.5922 25.5467 47.0056 24.4933 46.8589 23.16H50.2389C50.3456 23.5867 50.5989 23.92 50.9989 24.16C51.3989 24.4133 51.8922 24.54 52.4789 24.54C53.1856 24.54 53.7456 24.3333 54.1589 23.92C54.5856 23.52 54.7989 22.8733 54.7989 21.98V20.4C54.4656 20.92 54.0056 21.3467 53.4189 21.68C52.8322 22 52.1456 22.16 51.3589 22.16C50.4389 22.16 49.6056 21.9267 48.8589 21.46C48.1122 20.98 47.5189 20.3067 47.0789 19.44C46.6522 18.56 46.4389 17.5467 46.4389 16.4C46.4389 15.2533 46.6522 14.2467 47.0789 13.38C47.5189 12.5133 48.1122 11.8467 48.8589 11.38C49.6056 10.9133 50.4389 10.68 51.3589 10.68ZM54.7989 16.42C54.7989 15.5667 54.5589 14.8933 54.0789 14.4C53.6122 13.9067 53.0389 13.66 52.3589 13.66C51.6789 13.66 51.0989 13.9067 50.6189 14.4C50.1522 14.88 49.9189 15.5467 49.9189 16.4C49.9189 17.2533 50.1522 17.9333 50.6189 18.44C51.0989 18.9333 51.6789 19.18 52.3589 19.18C53.0389 19.18 53.6122 18.9333 54.0789 18.44C54.5589 17.9467 54.7989 17.2733 54.7989 16.42ZM62.4131 9.68C61.8131 9.68 61.3198 9.50667 60.9331 9.16C60.5598 8.8 60.3731 8.36 60.3731 7.84C60.3731 7.30667 60.5598 6.86667 60.9331 6.52C61.3198 6.16 61.8131 5.98 62.4131 5.98C62.9998 5.98 63.4798 6.16 63.8531 6.52C64.2398 6.86667 64.4331 7.30667 64.4331 7.84C64.4331 8.36 64.2398 8.8 63.8531 9.16C63.4798 9.50667 62.9998 9.68 62.4131 9.68ZM64.1131 10.84V22H60.6931V10.84H64.1131ZM71.1316 22.16C70.1582 22.16 69.2916 21.9933 68.5316 21.66C67.7716 21.3267 67.1716 20.8733 66.7316 20.3C66.2916 19.7133 66.0449 19.06 65.9916 18.34H69.3716C69.4116 18.7267 69.5916 19.04 69.9116 19.28C70.2316 19.52 70.6249 19.64 71.0916 19.64C71.5182 19.64 71.8449 19.56 72.0716 19.4C72.3116 19.2267 72.4316 19.0067 72.4316 18.74C72.4316 18.42 72.2649 18.1867 71.9316 18.04C71.5982 17.88 71.0582 17.7067 70.3116 17.52C69.5116 17.3333 68.8449 17.14 68.3116 16.94C67.7782 16.7267 67.3182 16.4 66.9316 15.96C66.5449 15.5067 66.3516 14.9 66.3516 14.14C66.3516 13.5 66.5249 12.92 66.8716 12.4C67.2316 11.8667 67.7516 11.4467 68.4316 11.14C69.1249 10.8333 69.9449 10.68 70.8916 10.68C72.2916 10.68 73.3916 11.0267 74.1916 11.72C75.0049 12.4133 75.4716 13.3333 75.5916 14.48H72.4316C72.3782 14.0933 72.2049 13.7867 71.9116 13.56C71.6316 13.3333 71.2582 13.22 70.7916 13.22C70.3916 13.22 70.0849 13.3 69.8716 13.46C69.6582 13.6067 69.5516 13.8133 69.5516 14.08C69.5516 14.4 69.7182 14.64 70.0516 14.8C70.3982 14.96 70.9316 15.12 71.6516 15.28C72.4782 15.4933 73.1516 15.7067 73.6716 15.92C74.1916 16.12 74.6449 16.4533 75.0316 16.92C75.4316 17.3733 75.6382 17.9867 75.6516 18.76C75.6516 19.4133 75.4649 20 75.0916 20.52C74.7316 21.0267 74.2049 21.4267 73.5116 21.72C72.8316 22.0133 72.0382 22.16 71.1316 22.16ZM83.9639 19.1V22H82.2239C80.9839 22 80.0172 21.7 79.3239 21.1C78.6306 20.4867 78.2839 19.4933 78.2839 18.12V13.68H76.9239V10.84H78.2839V8.12H81.7039V10.84H83.9439V13.68H81.7039V18.16C81.7039 18.4933 81.7839 18.7333 81.9439 18.88C82.1039 19.0267 82.3706 19.1 82.7439 19.1H83.9639ZM89.2889 12.7C89.6889 12.0867 90.1889 11.6067 90.7889 11.26C91.3889 10.9 92.0556 10.72 92.7889 10.72V14.34H91.8489C90.9956 14.34 90.3556 14.5267 89.9289 14.9C89.5022 15.26 89.2889 15.9 89.2889 16.82V22H85.8689V10.84H89.2889V12.7ZM93.7436 16.4C93.7436 15.2533 93.9569 14.2467 94.3836 13.38C94.8236 12.5133 95.4169 11.8467 96.1636 11.38C96.9103 10.9133 97.7436 10.68 98.6636 10.68C99.4503 10.68 100.137 10.84 100.724 11.16C101.324 11.48 101.784 11.9 102.104 12.42V10.84H105.524V22H102.104V20.42C101.77 20.94 101.304 21.36 100.704 21.68C100.117 22 99.4303 22.16 98.6436 22.16C97.7369 22.16 96.9103 21.9267 96.1636 21.46C95.4169 20.98 94.8236 20.3067 94.3836 19.44C93.9569 18.56 93.7436 17.5467 93.7436 16.4ZM102.104 16.42C102.104 15.5667 101.864 14.8933 101.384 14.4C100.917 13.9067 100.344 13.66 99.6636 13.66C98.9836 13.66 98.4036 13.9067 97.9236 14.4C97.4569 14.88 97.2236 15.5467 97.2236 16.4C97.2236 17.2533 97.4569 17.9333 97.9236 18.44C98.4036 18.9333 98.9836 19.18 99.6636 19.18C100.344 19.18 100.917 18.9333 101.384 18.44C101.864 17.9467 102.104 17.2733 102.104 16.42ZM111.418 12.7C111.818 12.0867 112.318 11.6067 112.918 11.26C113.518 10.9 114.184 10.72 114.918 10.72V14.34H113.978C113.124 14.34 112.484 14.5267 112.058 14.9C111.631 15.26 111.418 15.9 111.418 16.82V22H107.998V10.84H111.418V12.7Z" fill="white"/>
<path d="M7.8408 16.3968C11.0899 16.3968 13.7222 18.9302 13.7222 22.0571C13.7222 22.5778 13.2835 23 12.7425 23H0.979687C0.438715 23 0 22.5778 0 22.0571C0 18.9302 2.63229 16.3968 5.88142 16.3968H7.8408ZM15.8333 9.28571C16.272 9.28571 16.625 9.6254 16.625 10.0476V11.5714H18.2083C18.647 11.5714 19 11.9111 19 12.3333C19 12.7556 18.647 13.0952 18.2083 13.0952H16.625V14.619C16.625 15.0413 16.272 15.381 15.8333 15.381C15.3946 15.381 15.0417 15.0413 15.0417 14.619V13.0952H13.4583C13.0196 13.0952 12.6667 12.7556 12.6667 12.3333C12.6667 11.9111 13.0196 11.5714 13.4583 11.5714H15.0417V10.0476C15.0417 9.6254 15.3946 9.28571 15.8333 9.28571ZM6.86111 14.619C4.67413 14.619 2.90278 12.9143 2.90278 10.8095C2.90278 8.70476 4.67413 7 6.86111 7C9.04809 7 10.8194 8.70476 10.8194 10.8095C10.8194 12.9143 9.04809 14.619 6.86111 14.619Z" fill="white"/>
</svg>
