<svg width="82" height="61" viewBox="0 0 82 61" fill="none" xmlns="http://www.w3.org/2000/svg">
<path d="M30.9897 16.8938C30.9897 18.7835 31.521 20.6277 32.5228 22.2138L32.758 22.5933L31.7487 26.2817L35.5357 25.2875L35.9 25.5076C37.433 26.4183 39.1937 26.904 40.9924 26.904H41C46.5098 26.904 51.1165 22.4188 51.1165 16.9013C51.1165 14.2299 49.9629 11.7179 48.0732 9.82812C46.1759 7.9308 43.6714 6.89107 41 6.89107C35.4826 6.89107 30.9973 11.3763 30.9897 16.8938ZM44.8554 22.6161C43.8991 22.7603 43.1554 22.6844 41.2504 21.8647C38.4576 20.658 36.5603 17.9562 36.1732 17.4098C36.1429 17.3643 36.1201 17.3415 36.1125 17.3263C35.9607 17.129 34.883 15.6946 34.883 14.2147C34.883 12.8183 35.5661 12.0973 35.8848 11.7634C35.9076 11.7406 35.9228 11.7254 35.9379 11.7027C36.2112 11.3991 36.5375 11.3232 36.7424 11.3232C36.9397 11.3232 37.1446 11.3232 37.3192 11.3308H37.3799C37.5545 11.3308 37.7746 11.3308 37.9946 11.8469C38.0857 12.067 38.2223 12.4009 38.3665 12.7424C38.617 13.3496 38.875 13.9795 38.9205 14.0781C38.9964 14.2299 39.0496 14.4045 38.9433 14.6018C38.6853 15.1179 38.4196 15.3911 38.2375 15.5884C38.0022 15.8313 37.896 15.9451 38.0629 16.2411C39.2241 18.2371 40.3853 18.9277 42.1536 19.8156C42.4571 19.9674 42.6317 19.9446 42.8062 19.7397C42.9808 19.5424 43.5576 18.8594 43.7549 18.5634C43.9522 18.2598 44.1571 18.3129 44.4304 18.4116C44.7036 18.5103 46.1835 19.2388 46.4871 19.3906C46.5478 19.421 46.6009 19.4438 46.6464 19.4665C46.8589 19.5728 47.0031 19.6411 47.0638 19.7397C47.1321 19.8839 47.1321 20.4911 46.8817 21.1893C46.6313 21.8951 45.4321 22.5326 44.8554 22.6161ZM58 4.85714C58 2.17813 55.8219 0 53.1429 0H28.8571C26.1781 0 24 2.17813 24 4.85714V29.1429C24 31.8219 26.1781 34 28.8571 34H53.1429C55.8219 34 58 31.8219 58 29.1429V4.85714ZM35.2397 27.4656L28.8571 29.1429L30.5647 22.9045C29.5098 21.083 28.9558 19.0112 28.9558 16.8862C28.9634 10.2531 34.3594 4.85714 40.9924 4.85714C44.2103 4.85714 47.2308 6.10938 49.5076 8.38616C51.7768 10.6629 53.1429 13.6835 53.1429 16.9013C53.1429 23.5344 47.6254 28.9304 40.9924 28.9304C38.9737 28.9304 36.9929 28.4219 35.2397 27.4656Z" fill="white"/>
<path d="M13.04 46.184L10.304 55H8.384L6.608 48.488L4.832 55H2.912L0.16 46.184H2.016L3.856 53.272L5.728 46.184H7.632L9.424 53.24L11.248 46.184H13.04ZM18.9631 46.04C19.6351 46.04 20.2325 46.184 20.7551 46.472C21.2885 46.76 21.7045 47.1867 22.0031 47.752C22.3125 48.3173 22.4671 49 22.4671 49.8V55H20.6591V50.072C20.6591 49.2827 20.4618 48.68 20.0671 48.264C19.6725 47.8373 19.1338 47.624 18.4511 47.624C17.7685 47.624 17.2245 47.8373 16.8191 48.264C16.4245 48.68 16.2271 49.2827 16.2271 50.072V55H14.4031V43.16H16.2271V47.208C16.5365 46.8347 16.9258 46.5467 17.3951 46.344C17.8751 46.1413 18.3978 46.04 18.9631 46.04ZM24.1858 50.552C24.1858 49.6667 24.3671 48.8827 24.7298 48.2C25.1031 47.5173 25.6044 46.9893 26.2338 46.616C26.8738 46.232 27.5778 46.04 28.3458 46.04C29.0391 46.04 29.6418 46.1787 30.1538 46.456C30.6764 46.7227 31.0924 47.0587 31.4018 47.464V46.184H33.2418V55H31.4018V53.688C31.0924 54.104 30.6711 54.4507 30.1378 54.728C29.6044 55.0053 28.9964 55.144 28.3138 55.144C27.5564 55.144 26.8631 54.952 26.2338 54.568C25.6044 54.1733 25.1031 53.6293 24.7298 52.936C24.3671 52.232 24.1858 51.4373 24.1858 50.552ZM31.4018 50.584C31.4018 49.976 31.2738 49.448 31.0178 49C30.7724 48.552 30.4471 48.2107 30.0418 47.976C29.6364 47.7413 29.1991 47.624 28.7298 47.624C28.2604 47.624 27.8231 47.7413 27.4178 47.976C27.0124 48.2 26.6818 48.536 26.4258 48.984C26.1804 49.4213 26.0578 49.944 26.0578 50.552C26.0578 51.16 26.1804 51.6933 26.4258 52.152C26.6818 52.6107 27.0124 52.9627 27.4178 53.208C27.8338 53.4427 28.2711 53.56 28.7298 53.56C29.1991 53.56 29.6364 53.4427 30.0418 53.208C30.4471 52.9733 30.7724 52.632 31.0178 52.184C31.2738 51.7253 31.4018 51.192 31.4018 50.584ZM37.7655 47.672V52.552C37.7655 52.8827 37.8402 53.1227 37.9895 53.272C38.1495 53.4107 38.4162 53.48 38.7895 53.48H39.9095V55H38.4695C37.6482 55 37.0188 54.808 36.5815 54.424C36.1442 54.04 35.9255 53.416 35.9255 52.552V47.672H34.8855V46.184H35.9255V43.992H37.7655V46.184H39.9095V47.672H37.7655ZM44.7906 55.144C44.0973 55.144 43.4733 55.0213 42.9186 54.776C42.3746 54.52 41.9426 54.1787 41.6226 53.752C41.3026 53.3147 41.132 52.8293 41.1106 52.296H42.9986C43.0306 52.6693 43.2066 52.984 43.5266 53.24C43.8573 53.4853 44.268 53.608 44.7586 53.608C45.2706 53.608 45.6653 53.512 45.9426 53.32C46.2306 53.1173 46.3746 52.8613 46.3746 52.552C46.3746 52.2213 46.2146 51.976 45.8946 51.816C45.5853 51.656 45.0893 51.48 44.4066 51.288C43.7453 51.1067 43.2066 50.9307 42.7906 50.76C42.3746 50.5893 42.012 50.328 41.7026 49.976C41.404 49.624 41.2546 49.16 41.2546 48.584C41.2546 48.1147 41.3933 47.688 41.6706 47.304C41.948 46.9093 42.3426 46.6 42.8546 46.376C43.3773 46.152 43.9746 46.04 44.6466 46.04C45.6493 46.04 46.4546 46.296 47.0626 46.808C47.6813 47.3093 48.012 47.9973 48.0546 48.872H46.2306C46.1986 48.4773 46.0386 48.1627 45.7506 47.928C45.4626 47.6933 45.0733 47.576 44.5826 47.576C44.1026 47.576 43.7346 47.6667 43.4786 47.848C43.2226 48.0293 43.0946 48.2693 43.0946 48.568C43.0946 48.8027 43.18 49 43.3506 49.16C43.5213 49.32 43.7293 49.448 43.9746 49.544C44.22 49.6293 44.5826 49.7413 45.0626 49.88C45.7026 50.0507 46.2253 50.2267 46.6306 50.408C47.0466 50.5787 47.404 50.8347 47.7026 51.176C48.0013 51.5173 48.156 51.9707 48.1666 52.536C48.1666 53.0373 48.028 53.4853 47.7506 53.88C47.4733 54.2747 47.0786 54.584 46.5666 54.808C46.0653 55.032 45.4733 55.144 44.7906 55.144ZM49.5295 50.552C49.5295 49.6667 49.7108 48.8827 50.0735 48.2C50.4468 47.5173 50.9482 46.9893 51.5775 46.616C52.2175 46.232 52.9215 46.04 53.6895 46.04C54.3828 46.04 54.9855 46.1787 55.4975 46.456C56.0202 46.7227 56.4362 47.0587 56.7455 47.464V46.184H58.5855V55H56.7455V53.688C56.4362 54.104 56.0148 54.4507 55.4815 54.728C54.9482 55.0053 54.3402 55.144 53.6575 55.144C52.9002 55.144 52.2068 54.952 51.5775 54.568C50.9482 54.1733 50.4468 53.6293 50.0735 52.936C49.7108 52.232 49.5295 51.4373 49.5295 50.552ZM56.7455 50.584C56.7455 49.976 56.6175 49.448 56.3615 49C56.1162 48.552 55.7908 48.2107 55.3855 47.976C54.9802 47.7413 54.5428 47.624 54.0735 47.624C53.6042 47.624 53.1668 47.7413 52.7615 47.976C52.3562 48.2 52.0255 48.536 51.7695 48.984C51.5242 49.4213 51.4015 49.944 51.4015 50.552C51.4015 51.16 51.5242 51.6933 51.7695 52.152C52.0255 52.6107 52.3562 52.9627 52.7615 53.208C53.1775 53.4427 53.6148 53.56 54.0735 53.56C54.5428 53.56 54.9802 53.4427 55.3855 53.208C55.7908 52.9733 56.1162 52.632 56.3615 52.184C56.6175 51.7253 56.7455 51.192 56.7455 50.584ZM62.8053 47.48C63.1146 47.0747 63.5359 46.7333 64.0693 46.456C64.6026 46.1787 65.2053 46.04 65.8773 46.04C66.6453 46.04 67.3439 46.232 67.9733 46.616C68.6133 46.9893 69.1146 47.5173 69.4773 48.2C69.8399 48.8827 70.0213 49.6667 70.0213 50.552C70.0213 51.4373 69.8399 52.232 69.4773 52.936C69.1146 53.6293 68.6133 54.1733 67.9733 54.568C67.3439 54.952 66.6453 55.144 65.8773 55.144C65.2053 55.144 64.6079 55.0107 64.0853 54.744C63.5626 54.4667 63.1359 54.1253 62.8053 53.72V59.192H60.9813V46.184H62.8053V47.48ZM68.1653 50.552C68.1653 49.944 68.0373 49.4213 67.7812 48.984C67.5359 48.536 67.2053 48.2 66.7893 47.976C66.3839 47.7413 65.9466 47.624 65.4773 47.624C65.0186 47.624 64.5813 47.7413 64.1653 47.976C63.7599 48.2107 63.4293 48.552 63.1733 49C62.9279 49.448 62.8053 49.976 62.8053 50.584C62.8053 51.192 62.9279 51.7253 63.1733 52.184C63.4293 52.632 63.7599 52.9733 64.1653 53.208C64.5813 53.4427 65.0186 53.56 65.4773 53.56C65.9466 53.56 66.3839 53.4427 66.7893 53.208C67.2053 52.9627 67.5359 52.6107 67.7812 52.152C68.0373 51.6933 68.1653 51.16 68.1653 50.552ZM73.649 47.48C73.9583 47.0747 74.3797 46.7333 74.913 46.456C75.4463 46.1787 76.049 46.04 76.721 46.04C77.489 46.04 78.1877 46.232 78.817 46.616C79.457 46.9893 79.9583 47.5173 80.321 48.2C80.6837 48.8827 80.865 49.6667 80.865 50.552C80.865 51.4373 80.6837 52.232 80.321 52.936C79.9583 53.6293 79.457 54.1733 78.817 54.568C78.1877 54.952 77.489 55.144 76.721 55.144C76.049 55.144 75.4517 55.0107 74.929 54.744C74.4063 54.4667 73.9797 54.1253 73.649 53.72V59.192H71.825V46.184H73.649V47.48ZM79.009 50.552C79.009 49.944 78.881 49.4213 78.625 48.984C78.3797 48.536 78.049 48.2 77.633 47.976C77.2277 47.7413 76.7903 47.624 76.321 47.624C75.8623 47.624 75.425 47.7413 75.009 47.976C74.6037 48.2107 74.273 48.552 74.017 49C73.7717 49.448 73.649 49.976 73.649 50.584C73.649 51.192 73.7717 51.7253 74.017 52.184C74.273 52.632 74.6037 52.9733 75.009 53.208C75.425 53.4427 75.8623 53.56 76.321 53.56C76.7903 53.56 77.2277 53.4427 77.633 53.208C78.049 52.9627 78.3797 52.6107 78.625 52.152C78.881 51.6933 79.009 51.16 79.009 50.552Z" fill="white"/>
</svg>
