<svg width="58" height="80" viewBox="0 0 58 80" fill="none" xmlns="http://www.w3.org/2000/svg">
<path d="M29.36 79.56C24.08 79.56 19.1733 78.1467 14.64 75.32C10.16 72.44 6.58662 68.6267 3.91996 63.88C1.30662 59.08 -4.39491e-05 53.9333 -4.39491e-05 48.44C-4.39491e-05 42.84 1.35996 37.72 4.07996 33.08C6.79996 28.3867 10.48 24.68 15.12 21.96C19.8133 19.1867 24.9066 17.8 30.4 17.8C34.4 17.8 38.24 18.5733 41.92 20.12C45.6533 21.6133 48.88 23.9067 51.6 27C54.32 30.0933 56.24 33.8533 57.36 38.28L43.44 42.52C42.64 40.2267 41.04 38.2 38.64 36.44C36.24 34.68 33.4133 33.8 30.16 33.8C26.1066 33.8 22.72 35.0533 20 37.56C17.3333 40.0133 16 43.5867 16 48.28C16 51.4267 16.64 54.1733 17.92 56.52C19.2 58.8133 20.9066 60.5733 23.04 61.8C25.1733 62.9733 27.4933 63.56 30 63.56C32.24 63.56 34.32 63.08 36.24 62.12C38.16 61.16 39.7333 59.9867 40.96 58.6C42.24 57.16 43.0666 55.8 43.44 54.52L56.48 59C55.84 62.7333 54.1866 66.1733 51.52 69.32C48.8533 72.4667 45.5466 74.9733 41.6 76.84C37.6533 78.6533 33.5733 79.56 29.36 79.56Z" fill="#FF5100"/>
<path d="M28.9438 76.9012C23.9938 76.9012 19.3938 75.5762 15.1438 72.9262C10.9438 70.2262 7.59377 66.6512 5.09377 62.2012C2.64377 57.7012 1.41877 52.8762 1.41877 47.7262C1.41877 42.4762 2.69377 37.6762 5.24377 33.3262C7.79377 28.9262 11.2438 25.4512 15.5938 22.9012C19.9938 20.3012 24.7688 19.0012 29.9188 19.0012C33.6688 19.0012 37.2688 19.7262 40.7188 21.1762C44.2188 22.5762 47.2438 24.7262 49.7938 27.6262C52.3438 30.5262 54.1438 34.0512 55.1938 38.2012L42.1438 42.1762C41.3938 40.0262 39.8938 38.1262 37.6438 36.4762C35.3938 34.8262 32.7438 34.0012 29.6938 34.0012C25.8938 34.0012 22.7188 35.1762 20.1688 37.5262C17.6688 39.8262 16.4188 43.1762 16.4188 47.5762C16.4188 50.5262 17.0188 53.1012 18.2188 55.3012C19.4188 57.4512 21.0188 59.1012 23.0188 60.2512C25.0188 61.3512 27.1938 61.9012 29.5438 61.9012C31.6438 61.9012 33.5938 61.4512 35.3938 60.5512C37.1938 59.6512 38.6688 58.5512 39.8188 57.2512C41.0188 55.9012 41.7938 54.6262 42.1438 53.4262L54.3688 57.6262C53.7688 61.1262 52.2188 64.3512 49.7188 67.3012C47.2188 70.2512 44.1188 72.6012 40.4188 74.3512C36.7188 76.0512 32.8938 76.9012 28.9438 76.9012Z" fill="#141414"/>
<path d="M28.5275 74.2424C23.9075 74.2424 19.6141 73.0058 15.6475 70.5324C11.7275 68.0124 8.6008 64.6758 6.26747 60.5224C3.9808 56.3224 2.83747 51.8191 2.83747 47.0124C2.83747 42.1124 4.02747 37.6324 6.40747 33.5724C8.78747 29.4658 12.0075 26.2224 16.0675 23.8424C20.1741 21.4158 24.6308 20.2024 29.4375 20.2024C32.9375 20.2024 36.2975 20.8791 39.5175 22.2324C42.7841 23.5391 45.6075 25.5458 47.9875 28.2524C50.3675 30.9591 52.0475 34.2491 53.0275 38.1224L40.8475 41.8324C40.1475 39.8258 38.7475 38.0524 36.6475 36.5124C34.5475 34.9724 32.0741 34.2024 29.2275 34.2024C25.6808 34.2024 22.7175 35.2991 20.3375 37.4924C18.0041 39.6391 16.8375 42.7658 16.8375 46.8724C16.8375 49.6258 17.3975 52.0291 18.5175 54.0824C19.6375 56.0891 21.1308 57.6291 22.9975 58.7024C24.8641 59.7291 26.8941 60.2424 29.0875 60.2424C31.0475 60.2424 32.8675 59.8224 34.5475 58.9824C36.2275 58.1424 37.6041 57.1158 38.6775 55.9024C39.7975 54.6424 40.5208 53.4524 40.8475 52.3324L52.2575 56.2524C51.6975 59.5191 50.2508 62.5291 47.9175 65.2824C45.5841 68.0358 42.6908 70.2291 39.2375 71.8624C35.7841 73.4491 32.2141 74.2424 28.5275 74.2424Z" fill="#FF5100"/>
<path d="M28.1113 71.5837C23.8213 71.5837 19.8346 70.4354 16.1513 68.1387C12.5113 65.7987 9.60796 62.7004 7.44129 58.8437C5.31796 54.9437 4.25629 50.7621 4.25629 46.2987C4.25629 41.7487 5.36129 37.5887 7.57129 33.8187C9.78129 30.0054 12.7713 26.9937 16.5413 24.7837C20.3546 22.5304 24.493 21.4037 28.9563 21.4037C32.2063 21.4037 35.3263 22.0321 38.3163 23.2887C41.3496 24.5021 43.9713 26.3654 46.1813 28.8787C48.3913 31.3921 49.9513 34.4471 50.8613 38.0437L39.5513 41.4887C38.9013 39.6254 37.6013 37.9787 35.6513 36.5487C33.7013 35.1187 31.4046 34.4037 28.7613 34.4037C25.468 34.4037 22.7163 35.4221 20.5063 37.4587C18.3396 39.4521 17.2563 42.3554 17.2563 46.1687C17.2563 48.7254 17.7763 50.9571 18.8163 52.8637C19.8563 54.7271 21.243 56.1571 22.9763 57.1537C24.7096 58.1071 26.5946 58.5837 28.6313 58.5837C30.4513 58.5837 32.1413 58.1937 33.7013 57.4137C35.2613 56.6337 36.5396 55.6804 37.5363 54.5537C38.5763 53.3837 39.248 52.2787 39.5513 51.2387L50.1463 54.8787C49.6263 57.9121 48.283 60.7071 46.1163 63.2637C43.9496 65.8204 41.263 67.8571 38.0563 69.3737C34.8496 70.8471 31.5346 71.5837 28.1113 71.5837Z" fill="#141414"/>
<path d="M27.6951 68.9249C23.7351 68.9249 20.0551 67.8649 16.6551 65.7449C13.2951 63.5849 10.6151 60.7249 8.61511 57.1649C6.65511 53.5649 5.67511 49.7049 5.67511 45.5849C5.67511 41.3849 6.69511 37.5449 8.73511 34.0649C10.7751 30.5449 13.5351 27.7649 17.0151 25.7249C20.5351 23.6449 24.3551 22.6049 28.4751 22.6049C31.4751 22.6049 34.3551 23.1849 37.1151 24.3449C39.9151 25.4649 42.3351 27.1849 44.3751 29.5049C46.4151 31.8249 47.8551 34.6449 48.6951 37.9649L38.2551 41.1449C37.6551 39.4249 36.4551 37.9049 34.6551 36.5849C32.8551 35.2649 30.7351 34.6049 28.2951 34.6049C25.2551 34.6049 22.7151 35.5449 20.6751 37.4249C18.6751 39.2649 17.6751 41.9449 17.6751 45.4649C17.6751 47.8249 18.1551 49.8849 19.1151 51.6449C20.0751 53.3649 21.3551 54.6849 22.9551 55.6049C24.5551 56.4849 26.2951 56.9249 28.1751 56.9249C29.8551 56.9249 31.4151 56.5649 32.8551 55.8449C34.2951 55.1249 35.4751 54.2449 36.3951 53.2049C37.3551 52.1249 37.9751 51.1049 38.2551 50.1449L48.0351 53.5049C47.5551 56.3049 46.3151 58.8849 44.3151 61.2449C42.3151 63.6049 39.8351 65.4849 36.8751 66.8849C33.9151 68.2449 30.8551 68.9249 27.6951 68.9249Z" fill="#FF5100"/>
<path d="M27.2789 66.2662C23.6489 66.2662 20.2756 65.2945 17.1589 63.3512C14.0789 61.3712 11.6223 58.7495 9.78893 55.4862C7.99226 52.1862 7.09393 48.6478 7.09393 44.8712C7.09393 41.0212 8.02893 37.5012 9.89893 34.3112C11.7689 31.0845 14.2989 28.5362 17.4889 26.6662C20.7156 24.7595 24.2173 23.8062 27.9939 23.8062C30.7439 23.8062 33.3839 24.3378 35.9139 25.4012C38.4806 26.4278 40.6989 28.0045 42.5689 30.1312C44.4389 32.2578 45.7589 34.8428 46.5289 37.8862L36.9589 40.8012C36.4089 39.2245 35.3089 37.8312 33.6589 36.6212C32.0089 35.4112 30.0656 34.8062 27.8289 34.8062C25.0423 34.8062 22.7139 35.6678 20.8439 37.3912C19.0106 39.0778 18.0939 41.5345 18.0939 44.7612C18.0939 46.9245 18.5339 48.8128 19.4139 50.4262C20.2939 52.0028 21.4673 53.2128 22.9339 54.0562C24.4006 54.8628 25.9956 55.2662 27.7189 55.2662C29.2589 55.2662 30.6889 54.9362 32.0089 54.2762C33.3289 53.6162 34.4106 52.8095 35.2539 51.8562C36.1339 50.8662 36.7023 49.9312 36.9589 49.0512L45.9239 52.1312C45.4839 54.6978 44.3473 57.0628 42.5139 59.2262C40.6806 61.3895 38.4073 63.1128 35.6939 64.3962C32.9806 65.6428 30.1756 66.2662 27.2789 66.2662Z" fill="#141414"/>
<path d="M26.8627 63.6074C23.5627 63.6074 20.4961 62.7241 17.6627 60.9574C14.8627 59.1574 12.6294 56.7741 10.9627 53.8074C9.32941 50.8074 8.51274 47.5908 8.51274 44.1574C8.51274 40.6574 9.36274 37.4574 11.0627 34.5574C12.7627 31.6241 15.0627 29.3074 17.9627 27.6074C20.8961 25.8741 24.0794 25.0074 27.5127 25.0074C30.0127 25.0074 32.4127 25.4908 34.7127 26.4574C37.0461 27.3908 39.0627 28.8241 40.7627 30.7574C42.4627 32.6908 43.6627 35.0408 44.3627 37.8074L35.6627 40.4574C35.1627 39.0241 34.1627 37.7574 32.6627 36.6574C31.1627 35.5574 29.3961 35.0074 27.3627 35.0074C24.8294 35.0074 22.7127 35.7908 21.0127 37.3574C19.3461 38.8908 18.5127 41.1241 18.5127 44.0574C18.5127 46.0241 18.9127 47.7408 19.7127 49.2074C20.5127 50.6408 21.5794 51.7408 22.9127 52.5074C24.2461 53.2408 25.6961 53.6074 27.2627 53.6074C28.6627 53.6074 29.9627 53.3074 31.1627 52.7074C32.3627 52.1074 33.3461 51.3741 34.1127 50.5074C34.9127 49.6074 35.4294 48.7574 35.6627 47.9574L43.8127 50.7574C43.4127 53.0908 42.3794 55.2408 40.7127 57.2074C39.0461 59.1741 36.9794 60.7408 34.5127 61.9074C32.0461 63.0408 29.4961 63.6074 26.8627 63.6074Z" fill="#FF5100"/>
</svg>
