<svg width="64" height="85" viewBox="0 0 64 85" fill="none" xmlns="http://www.w3.org/2000/svg">
<g filter="url(#filter0_d_23_226)">
<path d="M30.36 79.56C25.08 79.56 20.1733 78.1467 15.64 75.32C11.16 72.44 7.58665 68.6267 4.91999 63.88C2.30665 59.08 0.999987 53.9333 0.999987 48.44C0.999987 42.84 2.35999 37.72 5.07999 33.08C7.79999 28.3867 11.48 24.68 16.12 21.96C20.8133 19.1867 25.9067 17.8 31.4 17.8C35.4 17.8 39.24 18.5733 42.92 20.12C46.6533 21.6133 49.88 23.9067 52.6 27C55.32 30.0933 57.24 33.8533 58.36 38.28L44.44 42.52C43.64 40.2267 42.04 38.2 39.64 36.44C37.24 34.68 34.4133 33.8 31.16 33.8C27.1067 33.8 23.72 35.0533 21 37.56C18.3333 40.0133 17 43.5867 17 48.28C17 51.4267 17.64 54.1733 18.92 56.52C20.2 58.8133 21.9067 60.5733 24.04 61.8C26.1733 62.9733 28.4933 63.56 31 63.56C33.24 63.56 35.32 63.08 37.24 62.12C39.16 61.16 40.7333 59.9867 41.96 58.6C43.24 57.16 44.0667 55.8 44.44 54.52L57.48 59C56.84 62.7333 55.1867 66.1733 52.52 69.32C49.8533 72.4667 46.5467 74.9733 42.6 76.84C38.6533 78.6533 34.5733 79.56 30.36 79.56Z" fill="#FF5100"/>
<path d="M29.9437 76.9012C24.9937 76.9012 20.3937 75.5762 16.1437 72.9262C11.9437 70.2262 8.59374 66.6512 6.09374 62.2012C3.64374 57.7012 2.41874 52.8762 2.41874 47.7262C2.41874 42.4762 3.69374 37.6762 6.24374 33.3262C8.79374 28.9262 12.2437 25.4512 16.5937 22.9012C20.9937 20.3012 25.7687 19.0012 30.9187 19.0012C34.6687 19.0012 38.2687 19.7262 41.7187 21.1762C45.2187 22.5762 48.2437 24.7262 50.7937 27.6262C53.3437 30.5262 55.1437 34.0512 56.1937 38.2012L43.1437 42.1762C42.3937 40.0262 40.8937 38.1262 38.6437 36.4762C36.3937 34.8262 33.7437 34.0012 30.6937 34.0012C26.8937 34.0012 23.7187 35.1762 21.1687 37.5262C18.6687 39.8262 17.4187 43.1762 17.4187 47.5762C17.4187 50.5262 18.0187 53.1012 19.2187 55.3012C20.4187 57.4512 22.0187 59.1012 24.0187 60.2512C26.0187 61.3512 28.1937 61.9012 30.5437 61.9012C32.6437 61.9012 34.5937 61.4512 36.3937 60.5512C38.1937 59.6512 39.6687 58.5512 40.8187 57.2512C42.0187 55.9012 42.7937 54.6262 43.1437 53.4262L55.3687 57.6262C54.7687 61.1262 53.2187 64.3512 50.7187 67.3012C48.2187 70.2512 45.1187 72.6012 41.4187 74.3512C37.7187 76.0512 33.8937 76.9012 29.9437 76.9012Z" fill="#141414"/>
<path d="M29.5276 74.2425C24.9076 74.2425 20.6142 73.0058 16.6476 70.5325C12.7276 68.0125 9.6009 64.6758 7.26756 60.5225C4.9809 56.3225 3.83756 51.8191 3.83756 47.0125C3.83756 42.1125 5.02756 37.6325 7.40756 33.5725C9.78756 29.4658 13.0076 26.2225 17.0676 23.8425C21.1742 21.4158 25.6309 20.2025 30.4376 20.2025C33.9376 20.2025 37.2976 20.8791 40.5176 22.2325C43.7842 23.5391 46.6076 25.5458 48.9876 28.2525C51.3676 30.9591 53.0476 34.2491 54.0276 38.1225L41.8476 41.8325C41.1476 39.8258 39.7476 38.0525 37.6476 36.5125C35.5476 34.9725 33.0742 34.2025 30.2276 34.2025C26.6809 34.2025 23.7176 35.2991 21.3376 37.4925C19.0042 39.6391 17.8376 42.7658 17.8376 46.8725C17.8376 49.6258 18.3976 52.0291 19.5176 54.0825C20.6376 56.0891 22.1309 57.6291 23.9976 58.7025C25.8642 59.7291 27.8942 60.2425 30.0876 60.2425C32.0476 60.2425 33.8676 59.8225 35.5476 58.9825C37.2276 58.1425 38.6042 57.1158 39.6776 55.9025C40.7976 54.6425 41.5209 53.4525 41.8476 52.3325L53.2576 56.2525C52.6976 59.5191 51.2509 62.5291 48.9176 65.2825C46.5842 68.0358 43.6909 70.2291 40.2376 71.8625C36.7842 73.4491 33.2142 74.2425 29.5276 74.2425Z" fill="#FF5100"/>
<path d="M29.1114 71.5837C24.8214 71.5837 20.8347 70.4354 17.1514 68.1387C13.5114 65.7987 10.608 62.7004 8.44135 58.8437C6.31802 54.9437 5.25635 50.762 5.25635 46.2987C5.25635 41.7487 6.36135 37.5887 8.57135 33.8187C10.7814 30.0054 13.7714 26.9937 17.5414 24.7837C21.3547 22.5304 25.493 21.4037 29.9564 21.4037C33.2064 21.4037 36.3264 22.032 39.3164 23.2887C42.3497 24.502 44.9714 26.3654 47.1814 28.8787C49.3914 31.392 50.9514 34.447 51.8614 38.0437L40.5514 41.4887C39.9014 39.6254 38.6014 37.9787 36.6514 36.5487C34.7014 35.1187 32.4047 34.4037 29.7614 34.4037C26.468 34.4037 23.7164 35.422 21.5064 37.4587C19.3397 39.452 18.2564 42.3554 18.2564 46.1687C18.2564 48.7254 18.7764 50.957 19.8164 52.8637C20.8564 54.727 22.243 56.157 23.9764 57.1537C25.7097 58.107 27.5947 58.5837 29.6314 58.5837C31.4514 58.5837 33.1414 58.1937 34.7014 57.4137C36.2614 56.6337 37.5397 55.6804 38.5364 54.5537C39.5764 53.3837 40.248 52.2787 40.5514 51.2387L51.1464 54.8787C50.6264 57.912 49.283 60.707 47.1164 63.2637C44.9497 65.8204 42.263 67.857 39.0564 69.3737C35.8497 70.847 32.5347 71.5837 29.1114 71.5837Z" fill="#141414"/>
<path d="M28.6952 68.9249C24.7352 68.9249 21.0552 67.8649 17.6552 65.7449C14.2952 63.5849 11.6152 60.7249 9.61517 57.1649C7.65517 53.5649 6.67517 49.7049 6.67517 45.5849C6.67517 41.3849 7.69517 37.5449 9.73517 34.0649C11.7752 30.5449 14.5352 27.7649 18.0152 25.7249C21.5352 23.6449 25.3552 22.6049 29.4752 22.6049C32.4752 22.6049 35.3552 23.1849 38.1152 24.3449C40.9152 25.4649 43.3352 27.1849 45.3752 29.5049C47.4152 31.8249 48.8552 34.6449 49.6952 37.9649L39.2552 41.1449C38.6552 39.4249 37.4552 37.9049 35.6552 36.5849C33.8552 35.2649 31.7352 34.6049 29.2952 34.6049C26.2552 34.6049 23.7152 35.5449 21.6752 37.4249C19.6752 39.2649 18.6752 41.9449 18.6752 45.4649C18.6752 47.8249 19.1552 49.8849 20.1152 51.6449C21.0752 53.3649 22.3552 54.6849 23.9552 55.6049C25.5552 56.4849 27.2952 56.9249 29.1752 56.9249C30.8552 56.9249 32.4152 56.5649 33.8552 55.8449C35.2952 55.1249 36.4752 54.2449 37.3952 53.2049C38.3552 52.1249 38.9752 51.1049 39.2552 50.1449L49.0352 53.5049C48.5552 56.3049 47.3152 58.8849 45.3152 61.2449C43.3152 63.6049 40.8352 65.4849 37.8752 66.8849C34.9152 68.2449 31.8552 68.9249 28.6952 68.9249Z" fill="#FF5100"/>
<path d="M28.2789 66.2662C24.6489 66.2662 21.2756 65.2945 18.1589 63.3512C15.0789 61.3712 12.6223 58.7495 10.7889 55.4862C8.99226 52.1862 8.09393 48.6478 8.09393 44.8712C8.09393 41.0212 9.02893 37.5012 10.8989 34.3112C12.7689 31.0845 15.2989 28.5362 18.4889 26.6662C21.7156 24.7595 25.2173 23.8062 28.9939 23.8062C31.7439 23.8062 34.3839 24.3378 36.9139 25.4012C39.4806 26.4278 41.6989 28.0045 43.5689 30.1312C45.4389 32.2578 46.7589 34.8428 47.5289 37.8862L37.9589 40.8012C37.4089 39.2245 36.3089 37.8312 34.6589 36.6212C33.0089 35.4112 31.0656 34.8062 28.8289 34.8062C26.0423 34.8062 23.7139 35.6678 21.8439 37.3912C20.0106 39.0778 19.0939 41.5345 19.0939 44.7612C19.0939 46.9245 19.5339 48.8128 20.4139 50.4262C21.2939 52.0028 22.4673 53.2128 23.9339 54.0562C25.4006 54.8628 26.9956 55.2662 28.7189 55.2662C30.2589 55.2662 31.6889 54.9362 33.0089 54.2762C34.3289 53.6162 35.4106 52.8095 36.2539 51.8562C37.1339 50.8662 37.7023 49.9312 37.9589 49.0512L46.9239 52.1312C46.4839 54.6978 45.3473 57.0628 43.5139 59.2262C41.6806 61.3895 39.4073 63.1128 36.6939 64.3962C33.9806 65.6428 31.1756 66.2662 28.2789 66.2662Z" fill="#141414"/>
<path d="M27.8627 63.6074C24.5627 63.6074 21.4961 62.7241 18.6627 60.9574C15.8627 59.1574 13.6294 56.7741 11.9627 53.8074C10.3294 50.8074 9.51274 47.5908 9.51274 44.1574C9.51274 40.6574 10.3627 37.4574 12.0627 34.5574C13.7627 31.6241 16.0627 29.3074 18.9627 27.6074C21.8961 25.8741 25.0794 25.0074 28.5127 25.0074C31.0127 25.0074 33.4127 25.4908 35.7127 26.4574C38.0461 27.3908 40.0627 28.8241 41.7627 30.7574C43.4627 32.6908 44.6627 35.0408 45.3627 37.8074L36.6627 40.4574C36.1627 39.0241 35.1627 37.7574 33.6627 36.6574C32.1627 35.5574 30.3961 35.0074 28.3627 35.0074C25.8294 35.0074 23.7127 35.7908 22.0127 37.3574C20.3461 38.8908 19.5127 41.1241 19.5127 44.0574C19.5127 46.0241 19.9127 47.7408 20.7127 49.2074C21.5127 50.6408 22.5794 51.7408 23.9127 52.5074C25.2461 53.2408 26.6961 53.6074 28.2627 53.6074C29.6627 53.6074 30.9627 53.3074 32.1627 52.7074C33.3627 52.1074 34.3461 51.3741 35.1127 50.5074C35.9127 49.6074 36.4294 48.7574 36.6627 47.9574L44.8127 50.7574C44.4127 53.0908 43.3794 55.2408 41.7127 57.2074C40.0461 59.1741 37.9794 60.7408 35.5127 61.9074C33.0461 63.0408 30.4961 63.6074 27.8627 63.6074Z" fill="#FF5100"/>
</g>
<defs>
<filter id="filter0_d_23_226" x="0" y="16.8" width="63.36" height="67.76" filterUnits="userSpaceOnUse" color-interpolation-filters="sRGB">
<feFlood flood-opacity="0" result="BackgroundImageFix"/>
<feColorMatrix in="SourceAlpha" type="matrix" values="0 0 0 0 0 0 0 0 0 0 0 0 0 0 0 0 0 0 127 0" result="hardAlpha"/>
<feOffset dx="2" dy="2"/>
<feGaussianBlur stdDeviation="1.5"/>
<feComposite in2="hardAlpha" operator="out"/>
<feColorMatrix type="matrix" values="0 0 0 0 0 0 0 0 0 0 0 0 0 0 0 0 0 0 0.75 0"/>
<feBlend mode="normal" in2="BackgroundImageFix" result="effect1_dropShadow_23_226"/>
<feBlend mode="normal" in="SourceGraphic" in2="effect1_dropShadow_23_226" result="shape"/>
</filter>
</defs>
</svg>
