<svg width="270" height="83" viewBox="0 0 270 83" fill="none" xmlns="http://www.w3.org/2000/svg">
<path d="M69.2 33.84C69.2 31.52 69.6667 29.4933 70.6 27.76C71.56 26.0267 72.88 24.6933 74.56 23.76C76.2667 22.8267 78.2133 22.36 80.4 22.36C83.2 22.36 85.5333 23.0933 87.4 24.56C89.2933 26.0267 90.5333 28.0933 91.12 30.76H83.84C83.2267 29.0533 82.04 28.2 80.28 28.2C79.0267 28.2 78.0267 28.6933 77.28 29.68C76.5333 30.64 76.16 32.0267 76.16 33.84C76.16 35.6533 76.5333 37.0533 77.28 38.04C78.0267 39 79.0267 39.48 80.28 39.48C82.04 39.48 83.2267 38.6267 83.84 36.92H91.12C90.5333 39.5333 89.2933 41.5867 87.4 43.08C85.5067 44.5733 83.1733 45.32 80.4 45.32C78.2133 45.32 76.2667 44.8533 74.56 43.92C72.88 42.9867 71.56 41.6533 70.6 39.92C69.6667 38.1867 69.2 36.16 69.2 33.84ZM104.939 45.32C102.752 45.32 100.779 44.8533 99.0187 43.92C97.2854 42.9867 95.9121 41.6533 94.8987 39.92C93.9121 38.1867 93.4187 36.16 93.4187 33.84C93.4187 31.5467 93.9254 29.5333 94.9387 27.8C95.9521 26.04 97.3387 24.6933 99.0987 23.76C100.859 22.8267 102.832 22.36 105.019 22.36C107.205 22.36 109.179 22.8267 110.939 23.76C112.699 24.6933 114.085 26.04 115.099 27.8C116.112 29.5333 116.619 31.5467 116.619 33.84C116.619 36.1333 116.099 38.16 115.059 39.92C114.045 41.6533 112.645 42.9867 110.859 43.92C109.099 44.8533 107.125 45.32 104.939 45.32ZM104.939 39.4C106.245 39.4 107.352 38.92 108.259 37.96C109.192 37 109.659 35.6267 109.659 33.84C109.659 32.0533 109.205 30.68 108.299 29.72C107.419 28.76 106.325 28.28 105.019 28.28C103.685 28.28 102.579 28.76 101.699 29.72C100.819 30.6533 100.379 32.0267 100.379 33.84C100.379 35.6267 100.805 37 101.659 37.96C102.539 38.92 103.632 39.4 104.939 39.4ZM148.727 22.44C151.501 22.44 153.701 23.28 155.327 24.96C156.981 26.64 157.807 28.9733 157.807 31.96V45H151.007V32.88C151.007 31.44 150.621 30.3333 149.847 29.56C149.101 28.76 148.061 28.36 146.727 28.36C145.394 28.36 144.341 28.76 143.567 29.56C142.821 30.3333 142.447 31.44 142.447 32.88V45H135.647V32.88C135.647 31.44 135.261 30.3333 134.487 29.56C133.741 28.76 132.701 28.36 131.367 28.36C130.034 28.36 128.981 28.76 128.207 29.56C127.461 30.3333 127.087 31.44 127.087 32.88V45H120.247V22.68H127.087V25.48C127.781 24.5467 128.687 23.8133 129.807 23.28C130.927 22.72 132.194 22.44 133.607 22.44C135.287 22.44 136.781 22.8 138.087 23.52C139.421 24.24 140.461 25.2667 141.207 26.6C141.981 25.3733 143.034 24.3733 144.367 23.6C145.701 22.8267 147.154 22.44 148.727 22.44ZM169.431 25.84C170.071 24.8 170.991 23.96 172.191 23.32C173.391 22.68 174.765 22.36 176.311 22.36C178.151 22.36 179.818 22.8267 181.311 23.76C182.805 24.6933 183.978 26.0267 184.831 27.76C185.711 29.4933 186.151 31.5067 186.151 33.8C186.151 36.0933 185.711 38.12 184.831 39.88C183.978 41.6133 182.805 42.96 181.311 43.92C179.818 44.8533 178.151 45.32 176.311 45.32C174.738 45.32 173.365 45.0133 172.191 44.4C171.018 43.76 170.098 42.92 169.431 41.88V45H162.591V15.4H169.431V25.84ZM179.191 33.8C179.191 32.0933 178.711 30.76 177.751 29.8C176.818 28.8133 175.658 28.32 174.271 28.32C172.911 28.32 171.751 28.8133 170.791 29.8C169.858 30.7867 169.391 32.1333 169.391 33.84C169.391 35.5467 169.858 36.8933 170.791 37.88C171.751 38.8667 172.911 39.36 174.271 39.36C175.631 39.36 176.791 38.8667 177.751 37.88C178.711 36.8667 179.191 35.5067 179.191 33.8ZM188.38 33.8C188.38 31.5067 188.806 29.4933 189.66 27.76C190.54 26.0267 191.726 24.6933 193.22 23.76C194.713 22.8267 196.38 22.36 198.22 22.36C199.793 22.36 201.166 22.68 202.34 23.32C203.54 23.96 204.46 24.8 205.1 25.84V22.68H211.94V45H205.1V41.84C204.433 42.88 203.5 43.72 202.3 44.36C201.126 45 199.753 45.32 198.18 45.32C196.366 45.32 194.713 44.8533 193.22 43.92C191.726 42.96 190.54 41.6133 189.66 39.88C188.806 38.12 188.38 36.0933 188.38 33.8ZM205.1 33.84C205.1 32.1333 204.62 30.7867 203.66 29.8C202.726 28.8133 201.58 28.32 200.22 28.32C198.86 28.32 197.7 28.8133 196.74 29.8C195.806 30.76 195.34 32.0933 195.34 33.8C195.34 35.5067 195.806 36.8667 196.74 37.88C197.7 38.8667 198.86 39.36 200.22 39.36C201.58 39.36 202.726 38.8667 203.66 37.88C204.62 36.8933 205.1 35.5467 205.1 33.84ZM229.328 39.2V45H225.848C223.368 45 221.435 44.4 220.048 43.2C218.661 41.9733 217.968 39.9867 217.968 37.24V28.36H215.248V22.68H217.968V17.24H224.808V22.68H229.288V28.36H224.808V37.32C224.808 37.9867 224.968 38.4667 225.288 38.76C225.608 39.0533 226.141 39.2 226.888 39.2H229.328Z" fill="#FF5100"/>
<path d="M77.4 52.4V82H70.56V52.4H77.4ZM80.9969 70.8C80.9969 68.5067 81.4235 66.4933 82.2769 64.76C83.1569 63.0267 84.3435 61.6933 85.8369 60.76C87.3302 59.8267 88.9969 59.36 90.8369 59.36C92.4102 59.36 93.7835 59.68 94.9569 60.32C96.1569 60.96 97.0769 61.8 97.7169 62.84V59.68H104.557V82H97.7169V78.84C97.0502 79.88 96.1169 80.72 94.9169 81.36C93.7435 82 92.3702 82.32 90.7969 82.32C88.9835 82.32 87.3302 81.8533 85.8369 80.92C84.3435 79.96 83.1569 78.6133 82.2769 76.88C81.4235 75.12 80.9969 73.0933 80.9969 70.8ZM97.7169 70.84C97.7169 69.1333 97.2369 67.7867 96.2769 66.8C95.3435 65.8133 94.1969 65.32 92.8369 65.32C91.4769 65.32 90.3169 65.8133 89.3569 66.8C88.4235 67.76 87.9569 69.0933 87.9569 70.8C87.9569 72.5067 88.4235 73.8667 89.3569 74.88C90.3169 75.8667 91.4769 76.36 92.8369 76.36C94.1969 76.36 95.3435 75.8667 96.2769 74.88C97.2369 73.8933 97.7169 72.5467 97.7169 70.84ZM123.105 59.44C125.719 59.44 127.799 60.2933 129.345 62C130.919 63.68 131.705 66 131.705 68.96V82H124.905V69.88C124.905 68.3867 124.519 67.2267 123.745 66.4C122.972 65.5733 121.932 65.16 120.625 65.16C119.319 65.16 118.279 65.5733 117.505 66.4C116.732 67.2267 116.345 68.3867 116.345 69.88V82H109.505V59.68H116.345V62.64C117.039 61.6533 117.972 60.88 119.145 60.32C120.319 59.7333 121.639 59.44 123.105 59.44ZM158.655 59.44C161.215 59.44 163.268 60.2933 164.815 62C166.362 63.68 167.135 66 167.135 68.96V82H160.335V69.88C160.335 68.3867 159.948 67.2267 159.175 66.4C158.402 65.5733 157.362 65.16 156.055 65.16C154.748 65.16 153.708 65.5733 152.935 66.4C152.162 67.2267 151.775 68.3867 151.775 69.88V82H144.935V52.4H151.775V62.68C152.468 61.6933 153.415 60.9067 154.615 60.32C155.815 59.7333 157.162 59.44 158.655 59.44ZM182.048 82.32C179.861 82.32 177.888 81.8533 176.128 80.92C174.395 79.9867 173.021 78.6533 172.008 76.92C171.021 75.1867 170.528 73.16 170.528 70.84C170.528 68.5467 171.035 66.5333 172.048 64.8C173.061 63.04 174.448 61.6933 176.208 60.76C177.968 59.8267 179.941 59.36 182.128 59.36C184.315 59.36 186.288 59.8267 188.048 60.76C189.808 61.6933 191.195 63.04 192.208 64.8C193.221 66.5333 193.728 68.5467 193.728 70.84C193.728 73.1333 193.208 75.16 192.168 76.92C191.155 78.6533 189.755 79.9867 187.968 80.92C186.208 81.8533 184.235 82.32 182.048 82.32ZM182.048 76.4C183.355 76.4 184.461 75.92 185.368 74.96C186.301 74 186.768 72.6267 186.768 70.84C186.768 69.0533 186.315 67.68 185.408 66.72C184.528 65.76 183.435 65.28 182.128 65.28C180.795 65.28 179.688 65.76 178.808 66.72C177.928 67.6533 177.488 69.0267 177.488 70.84C177.488 72.6267 177.915 74 178.768 74.96C179.648 75.92 180.741 76.4 182.048 76.4ZM219.397 59.68V82H212.557V78.96C211.864 79.9467 210.917 80.7467 209.717 81.36C208.544 81.9467 207.237 82.24 205.797 82.24C204.09 82.24 202.584 81.8667 201.277 81.12C199.97 80.3467 198.957 79.24 198.237 77.8C197.517 76.36 197.157 74.6667 197.157 72.72V59.68H203.957V71.8C203.957 73.2933 204.344 74.4533 205.117 75.28C205.89 76.1067 206.93 76.52 208.237 76.52C209.57 76.52 210.624 76.1067 211.397 75.28C212.17 74.4533 212.557 73.2933 212.557 71.8V59.68H219.397ZM233.39 82.32C231.443 82.32 229.71 81.9867 228.19 81.32C226.67 80.6533 225.47 79.7467 224.59 78.6C223.71 77.4267 223.217 76.12 223.11 74.68H229.87C229.95 75.4533 230.31 76.08 230.95 76.56C231.59 77.04 232.377 77.28 233.31 77.28C234.163 77.28 234.817 77.12 235.27 76.8C235.75 76.4533 235.99 76.0133 235.99 75.48C235.99 74.84 235.657 74.3733 234.99 74.08C234.323 73.76 233.243 73.4133 231.75 73.04C230.15 72.6667 228.817 72.28 227.75 71.88C226.683 71.4533 225.763 70.8 224.99 69.92C224.217 69.0133 223.83 67.8 223.83 66.28C223.83 65 224.177 63.84 224.87 62.8C225.59 61.7333 226.63 60.8933 227.99 60.28C229.377 59.6667 231.017 59.36 232.91 59.36C235.71 59.36 237.91 60.0533 239.51 61.44C241.137 62.8267 242.07 64.6667 242.31 66.96H235.99C235.883 66.1867 235.537 65.5733 234.95 65.12C234.39 64.6667 233.643 64.44 232.71 64.44C231.91 64.44 231.297 64.6 230.87 64.92C230.443 65.2133 230.23 65.6267 230.23 66.16C230.23 66.8 230.563 67.28 231.23 67.6C231.923 67.92 232.99 68.24 234.43 68.56C236.083 68.9867 237.43 69.4133 238.47 69.84C239.51 70.24 240.417 70.9067 241.19 71.84C241.99 72.7467 242.403 73.9733 242.43 75.52C242.43 76.8267 242.057 78 241.31 79.04C240.59 80.0533 239.537 80.8533 238.15 81.44C236.79 82.0267 235.203 82.32 233.39 82.32ZM267.655 70.48C267.655 71.12 267.615 71.7867 267.535 72.48H252.055C252.161 73.8667 252.601 74.9333 253.375 75.68C254.175 76.4 255.148 76.76 256.295 76.76C258.001 76.76 259.188 76.04 259.855 74.6H267.135C266.761 76.0667 266.081 77.3867 265.095 78.56C264.135 79.7333 262.921 80.6533 261.455 81.32C259.988 81.9867 258.348 82.32 256.535 82.32C254.348 82.32 252.401 81.8533 250.695 80.92C248.988 79.9867 247.655 78.6533 246.695 76.92C245.735 75.1867 245.255 73.16 245.255 70.84C245.255 68.52 245.721 66.4933 246.655 64.76C247.615 63.0267 248.948 61.6933 250.655 60.76C252.361 59.8267 254.321 59.36 256.535 59.36C258.695 59.36 260.615 59.8133 262.295 60.72C263.975 61.6267 265.281 62.92 266.215 64.6C267.175 66.28 267.655 68.24 267.655 70.48ZM260.655 68.68C260.655 67.5067 260.255 66.5733 259.455 65.88C258.655 65.1867 257.655 64.84 256.455 64.84C255.308 64.84 254.335 65.1733 253.535 65.84C252.761 66.5067 252.281 67.4533 252.095 68.68H260.655Z" fill="#FF5100"/>
<path d="M29.36 79.56C24.08 79.56 19.1733 78.1467 14.64 75.32C10.16 72.44 6.58665 68.6267 3.91999 63.88C1.30665 59.08 -1.34315e-05 53.9333 -1.34315e-05 48.44C-1.34315e-05 42.84 1.35999 37.72 4.07999 33.08C6.79999 28.3867 10.48 24.68 15.12 21.96C19.8133 19.1867 24.9067 17.8 30.4 17.8C34.4 17.8 38.24 18.5733 41.92 20.12C45.6533 21.6133 48.88 23.9067 51.6 27C54.32 30.0933 56.24 33.8533 57.36 38.28L43.44 42.52C42.64 40.2267 41.04 38.2 38.64 36.44C36.24 34.68 33.4133 33.8 30.16 33.8C26.1067 33.8 22.72 35.0533 20 37.56C17.3333 40.0133 16 43.5867 16 48.28C16 51.4267 16.64 54.1733 17.92 56.52C19.2 58.8133 20.9067 60.5733 23.04 61.8C25.1733 62.9733 27.4933 63.56 30 63.56C32.24 63.56 34.32 63.08 36.24 62.12C38.16 61.16 39.7333 59.9867 40.96 58.6C42.24 57.16 43.0667 55.8 43.44 54.52L56.48 59C55.84 62.7333 54.1867 66.1733 51.52 69.32C48.8533 72.4667 45.5467 74.9733 41.6 76.84C37.6533 78.6533 33.5733 79.56 29.36 79.56Z" fill="#FF5100"/>
<path d="M28.9437 76.9012C23.9937 76.9012 19.3937 75.5762 15.1437 72.9262C10.9437 70.2262 7.59374 66.6512 5.09374 62.2012C2.64374 57.7012 1.41874 52.8762 1.41874 47.7262C1.41874 42.4762 2.69374 37.6762 5.24374 33.3262C7.79374 28.9262 11.2437 25.4512 15.5937 22.9012C19.9937 20.3012 24.7687 19.0012 29.9187 19.0012C33.6687 19.0012 37.2687 19.7262 40.7187 21.1762C44.2187 22.5762 47.2437 24.7262 49.7937 27.6262C52.3437 30.5262 54.1437 34.0512 55.1937 38.2012L42.1437 42.1762C41.3937 40.0262 39.8937 38.1262 37.6437 36.4762C35.3937 34.8262 32.7437 34.0012 29.6937 34.0012C25.8937 34.0012 22.7187 35.1762 20.1687 37.5262C17.6687 39.8262 16.4187 43.1762 16.4187 47.5762C16.4187 50.5262 17.0187 53.1012 18.2187 55.3012C19.4187 57.4512 21.0187 59.1012 23.0187 60.2512C25.0187 61.3512 27.1937 61.9012 29.5437 61.9012C31.6437 61.9012 33.5937 61.4512 35.3937 60.5512C37.1937 59.6512 38.6687 58.5512 39.8187 57.2512C41.0187 55.9012 41.7937 54.6262 42.1437 53.4262L54.3687 57.6262C53.7687 61.1262 52.2187 64.3512 49.7187 67.3012C47.2187 70.2512 44.1187 72.6012 40.4187 74.3512C36.7187 76.0512 32.8937 76.9012 28.9437 76.9012Z" fill="#141414"/>
<path d="M28.5276 74.2424C23.9076 74.2424 19.6142 73.0058 15.6476 70.5324C11.7276 68.0124 8.6009 64.6758 6.26756 60.5224C3.9809 56.3224 2.83756 51.8191 2.83756 47.0124C2.83756 42.1124 4.02756 37.6324 6.40756 33.5724C8.78756 29.4658 12.0076 26.2224 16.0676 23.8424C20.1742 21.4158 24.6309 20.2024 29.4376 20.2024C32.9376 20.2024 36.2976 20.8791 39.5176 22.2324C42.7842 23.5391 45.6076 25.5458 47.9876 28.2524C50.3676 30.9591 52.0476 34.2491 53.0276 38.1224L40.8476 41.8324C40.1476 39.8258 38.7476 38.0524 36.6476 36.5124C34.5476 34.9724 32.0742 34.2024 29.2276 34.2024C25.6809 34.2024 22.7176 35.2991 20.3376 37.4924C18.0042 39.6391 16.8376 42.7658 16.8376 46.8724C16.8376 49.6258 17.3976 52.0291 18.5176 54.0824C19.6376 56.0891 21.1309 57.6291 22.9976 58.7024C24.8642 59.7291 26.8942 60.2424 29.0876 60.2424C31.0476 60.2424 32.8676 59.8224 34.5476 58.9824C36.2276 58.1424 37.6042 57.1158 38.6776 55.9024C39.7976 54.6424 40.5209 53.4524 40.8476 52.3324L52.2576 56.2524C51.6976 59.5191 50.2509 62.5291 47.9176 65.2824C45.5842 68.0358 42.6909 70.2291 39.2376 71.8624C35.7842 73.4491 32.2142 74.2424 28.5276 74.2424Z" fill="#FF5100"/>
<path d="M28.1114 71.5837C23.8214 71.5837 19.8347 70.4353 16.1514 68.1387C12.5114 65.7987 9.60802 62.7003 7.44135 58.8437C5.31802 54.9437 4.25635 50.762 4.25635 46.2987C4.25635 41.7487 5.36135 37.5887 7.57135 33.8187C9.78135 30.0053 12.7714 26.9937 16.5414 24.7837C20.3547 22.5303 24.493 21.4037 28.9564 21.4037C32.2064 21.4037 35.3264 22.032 38.3164 23.2887C41.3497 24.502 43.9714 26.3653 46.1814 28.8787C48.3914 31.392 49.9514 34.447 50.8614 38.0437L39.5514 41.4887C38.9014 39.6253 37.6014 37.9787 35.6514 36.5487C33.7014 35.1187 31.4047 34.4037 28.7614 34.4037C25.468 34.4037 22.7164 35.422 20.5064 37.4587C18.3397 39.452 17.2564 42.3553 17.2564 46.1687C17.2564 48.7253 17.7764 50.957 18.8164 52.8637C19.8564 54.727 21.243 56.157 22.9764 57.1537C24.7097 58.107 26.5947 58.5837 28.6314 58.5837C30.4514 58.5837 32.1414 58.1937 33.7014 57.4137C35.2614 56.6337 36.5397 55.6803 37.5364 54.5537C38.5764 53.3837 39.248 52.2787 39.5514 51.2387L50.1464 54.8787C49.6264 57.912 48.283 60.707 46.1164 63.2637C43.9497 65.8203 41.263 67.857 38.0564 69.3737C34.8497 70.847 31.5347 71.5837 28.1114 71.5837Z" fill="#141414"/>
<path d="M27.6952 68.9249C23.7352 68.9249 20.0552 67.8649 16.6552 65.7449C13.2952 63.5849 10.6152 60.7249 8.61517 57.1649C6.65517 53.5649 5.67517 49.7049 5.67517 45.5849C5.67517 41.3849 6.69517 37.5449 8.73517 34.0649C10.7752 30.5449 13.5352 27.7649 17.0152 25.7249C20.5352 23.6449 24.3552 22.6049 28.4752 22.6049C31.4752 22.6049 34.3552 23.1849 37.1152 24.3449C39.9152 25.4649 42.3352 27.1849 44.3752 29.5049C46.4152 31.8249 47.8552 34.6449 48.6952 37.9649L38.2552 41.1449C37.6552 39.4249 36.4552 37.9049 34.6552 36.5849C32.8552 35.2649 30.7352 34.6049 28.2952 34.6049C25.2552 34.6049 22.7152 35.5449 20.6752 37.4249C18.6752 39.2649 17.6752 41.9449 17.6752 45.4649C17.6752 47.8249 18.1552 49.8849 19.1152 51.6449C20.0752 53.3649 21.3552 54.6849 22.9552 55.6049C24.5552 56.4849 26.2952 56.9249 28.1752 56.9249C29.8552 56.9249 31.4152 56.5649 32.8552 55.8449C34.2952 55.1249 35.4752 54.2449 36.3952 53.2049C37.3552 52.1249 37.9752 51.1049 38.2552 50.1449L48.0352 53.5049C47.5552 56.3049 46.3152 58.8849 44.3152 61.2449C42.3152 63.6049 39.8352 65.4849 36.8752 66.8849C33.9152 68.2449 30.8552 68.9249 27.6952 68.9249Z" fill="#FF5100"/>
<path d="M27.2789 66.2662C23.6489 66.2662 20.2756 65.2946 17.1589 63.3512C14.0789 61.3712 11.6223 58.7496 9.78893 55.4862C7.99226 52.1862 7.09393 48.6479 7.09393 44.8712C7.09393 41.0212 8.02893 37.5012 9.89893 34.3112C11.7689 31.0846 14.2989 28.5362 17.4889 26.6662C20.7156 24.7596 24.2173 23.8062 27.9939 23.8062C30.7439 23.8062 33.3839 24.3379 35.9139 25.4012C38.4806 26.4279 40.6989 28.0046 42.5689 30.1312C44.4389 32.2579 45.7589 34.8429 46.5289 37.8862L36.9589 40.8012C36.4089 39.2246 35.3089 37.8312 33.6589 36.6212C32.0089 35.4112 30.0656 34.8062 27.8289 34.8062C25.0423 34.8062 22.7139 35.6679 20.8439 37.3912C19.0106 39.0779 18.0939 41.5346 18.0939 44.7612C18.0939 46.9246 18.5339 48.8129 19.4139 50.4262C20.2939 52.0029 21.4673 53.2129 22.9339 54.0562C24.4006 54.8629 25.9956 55.2662 27.7189 55.2662C29.2589 55.2662 30.6889 54.9362 32.0089 54.2762C33.3289 53.6162 34.4106 52.8096 35.2539 51.8562C36.1339 50.8662 36.7023 49.9312 36.9589 49.0512L45.9239 52.1312C45.4839 54.6979 44.3473 57.0629 42.5139 59.2262C40.6806 61.3896 38.4073 63.1129 35.6939 64.3962C32.9806 65.6429 30.1756 66.2662 27.2789 66.2662Z" fill="#141414"/>
<path d="M26.8627 63.6074C23.5627 63.6074 20.4961 62.7241 17.6627 60.9574C14.8627 59.1574 12.6294 56.7741 10.9627 53.8074C9.32941 50.8074 8.51274 47.5908 8.51274 44.1574C8.51274 40.6574 9.36274 37.4574 11.0627 34.5574C12.7627 31.6241 15.0627 29.3074 17.9627 27.6074C20.8961 25.8741 24.0794 25.0074 27.5127 25.0074C30.0127 25.0074 32.4127 25.4908 34.7127 26.4574C37.0461 27.3908 39.0627 28.8241 40.7627 30.7574C42.4627 32.6908 43.6627 35.0408 44.3627 37.8074L35.6627 40.4574C35.1627 39.0241 34.1627 37.7574 32.6627 36.6574C31.1627 35.5574 29.3961 35.0074 27.3627 35.0074C24.8294 35.0074 22.7127 35.7908 21.0127 37.3574C19.3461 38.8908 18.5127 41.1241 18.5127 44.0574C18.5127 46.0241 18.9127 47.7408 19.7127 49.2074C20.5127 50.6408 21.5794 51.7408 22.9127 52.5074C24.2461 53.2408 25.6961 53.6074 27.2627 53.6074C28.6627 53.6074 29.9627 53.3074 31.1627 52.7074C32.3627 52.1074 33.3461 51.3741 34.1127 50.5074C34.9127 49.6074 35.4294 48.7574 35.6627 47.9574L43.8127 50.7574C43.4127 53.0908 42.3794 55.2408 40.7127 57.2074C39.0461 59.1741 36.9794 60.7408 34.5127 61.9074C32.0461 63.0408 29.4961 63.6074 26.8627 63.6074Z" fill="#FF5100"/>
</svg>
